<?xml version='1.0' encoding='utf-8'?>
<!DOCTYPE svg PUBLIC '-//W3C//DTD SVG 1.1//EN' 'http://www.w3.org/Graphics/SVG/1.1/DTD/svg11.dtd'>
<!-- Generator: Adobe Illustrator 14.0.0, SVG Export Plug-In . SVG Version: 6.00 Build 43363)  -->
<svg width="109.167px" x="0px" version="1.1" y="0px" xmlns="http://www.w3.org/2000/svg" height="72px" viewBox="0 0 109.167 72" xmlns:xlink="http://www.w3.org/1999/xlink" id="svg2" enable-background="new 0 0 109.167 72" xml:space="preserve">
 <g id="icon">
  <g id="breadboard">
   <rect width="99.36" x="5.254" y="4.676" fill="#595858" height="63.36" stroke="#000000"/>
   <rect width="2.16" x="14.887" y="17.142" fill="#8C8C8C" height="2.16" id="connector0pin"/>
   <rect width="2.16" x="14.887" y="24.342" fill="#8C8C8C" height="2.16" id="connector1pin"/>
   <rect width="2.16" x="14.887" y="31.542" fill="#8C8C8C" height="2.16" id="connector2pin"/>
   <rect width="2.16" x="14.887" y="38.743" fill="#8C8C8C" height="2.16" id="connector3pin"/>
   <rect width="2.16" x="14.887" y="45.943" fill="#8C8C8C" height="2.16" id="connector4pin"/>
   <rect width="2.16" x="14.887" y="53.143" fill="#8C8C8C" height="2.16" id="connector5pin"/>
   <rect width="2.16" x="94.087" y="17.142" fill="#8C8C8C" height="2.16" id="connector12pin"/>
   <rect width="2.16" x="94.087" y="24.342" fill="#8C8C8C" height="2.16" id="connector11pin"/>
   <rect width="2.16" x="94.087" y="31.542" fill="#8C8C8C" height="2.16" id="connector10pin"/>
   <rect width="2.16" x="94.087" y="38.743" fill="#8C8C8C" height="2.16" id="connector9pin"/>
   <rect width="2.16" x="94.087" y="45.943" fill="#8C8C8C" height="2.16" id="connector8pin"/>
   <rect width="2.16" x="94.087" y="53.143" fill="#8C8C8C" height="2.16" id="connector7pin"/>
   <g>
    <path fill="none" stroke="#0000FF" d="M22.789,36.2l-1.95,1.82l-0.78,7.385l0.988,2.963c0.849-0.225,1.438-0.779,1.768-1.664l0.988-9.385L22.789,36.2z M21.229,34.223l1.638,1.639l1.196-1.195l0.91-8.605c-0.139-0.885-0.607-1.457-1.404-1.717l-1.612,3.016L21.229,34.223z"/>
    <path fill="none" stroke="#0000FF" d="M28.931,43.584l-1.95,1.82l0.988,2.963c0.849-0.225,1.438-0.779,1.768-1.664l0.208-2.002L28.931,43.584z"/>
    <path fill="none" stroke="#0000FF" d="M44.561,48.368l-0.91-2.756h-7.748l-2.964,1.092c0.086,0.885,0.563,1.439,1.43,1.664H44.561z M32.965,46.469l2.964-1.064l0.78-7.359L35.201,36.2l-1.274,1.119L32.965,46.469z M37.827,27.36l-2.756-1.039l-0.884,8.346l1.04,1.221l1.898-1.818L37.827,27.36z M45.575,27.153l1.508-2.809h-10.14c-0.867,0.26-1.474,0.832-1.82,1.717l2.73,1.092H45.575z M44.821,34.379h-7.722l-1.742,1.664l1.378,1.664h7.878l1.794-1.664L44.821,34.379z M46.537,36.2l-1.95,1.82l-0.78,7.385l0.988,2.963c0.849-0.225,1.438-0.779,1.768-1.664l0.988-9.385L46.537,36.2z M44.977,34.223l1.638,1.639l1.196-1.195l0.91-8.605c-0.139-0.885-0.607-1.457-1.404-1.717l-1.612,3.016L44.977,34.223z"/>
    <path fill="none" stroke="#0000FF" d="M50.975,43.584l-1.95,1.82l0.988,2.963c0.849-0.225,1.438-0.779,1.769-1.664l0.207-2.002L50.975,43.584z"/>
    <path fill="none" stroke="#0000FF" d="M66.604,48.368l-0.91-2.756h-7.748l-2.964,1.092c0.086,0.885,0.562,1.439,1.43,1.664H66.604z M55.008,46.469l2.965-1.064l0.779-7.359L57.244,36.2l-1.273,1.119L55.008,46.469z M59.87,27.36l-2.756-1.039l-0.884,8.346l1.04,1.221l1.897-1.818L59.87,27.36z M67.618,27.153l1.508-2.809h-10.14c-0.867,0.26-1.474,0.832-1.82,1.717l2.73,1.092H67.618z M66.864,34.379h-7.722L57.4,36.043l1.378,1.664h7.878l1.794-1.664L66.864,34.379z M68.58,36.2l-1.95,1.82l-0.779,7.385l0.987,2.963c0.85-0.225,1.438-0.779,1.769-1.664l0.988-9.385L68.58,36.2z M67.021,34.223l1.638,1.639l1.196-1.195l0.91-8.605c-0.14-0.885-0.607-1.457-1.404-1.717l-1.612,3.016L67.021,34.223z"/>
    <path fill="none" stroke="#0000FF" d="M73.018,43.584l-1.949,1.82l0.987,2.963c0.85-0.225,1.438-0.779,1.769-1.664l0.208-2.002L73.018,43.584z"/>
    <path fill="none" stroke="#0000FF" d="M88.648,48.368l-0.91-2.756H79.99l-2.964,1.092c0.086,0.885,0.562,1.439,1.43,1.664H88.648z M77.052,46.469l2.965-1.064l0.779-7.359L79.288,36.2l-1.273,1.119L77.052,46.469z M81.914,27.36l-2.756-1.039l-0.884,8.346l1.04,1.221l1.897-1.818L81.914,27.36z M89.662,27.153l1.508-2.809H81.03c-0.867,0.26-1.474,0.832-1.82,1.717l2.73,1.092H89.662z M88.908,34.379h-7.722l-1.742,1.664l1.378,1.664H88.7l1.794-1.664L88.908,34.379z M90.624,36.2l-1.95,1.82l-0.779,7.385l0.987,2.963c0.85-0.225,1.438-0.779,1.769-1.664l0.988-9.385L90.624,36.2z M89.064,34.223l1.638,1.639l1.196-1.195l0.91-8.605c-0.14-0.885-0.607-1.457-1.404-1.717l-1.612,3.016L89.064,34.223z"/>
   </g>
  </g>
 </g>
</svg>
