<?xml version='1.0' encoding='UTF-8' standalone='no'?>
<!-- Created with Fritzing (http://www.fritzing.org/) -->
<svg width="0.1in" x="0in" version="1.2" y="0in" xmlns="http://www.w3.org/2000/svg" height="0.4in" viewBox="0 0 100 400" baseProfile="tiny" xmlns:svg="http://www.w3.org/2000/svg">
 <desc>Fritzing breadboard generated by brd2svg</desc>
 <g id="breadboard">
  <g id="icon">
   <path fill="#1F7A34" stroke="none" stroke-width="0" d="M0,0L0,170A30,30 0 0 1 0,230L0,400L100,400L100,0L0,0z"/>
   <g transform="translate(-142.913,34.5827)">
    <g transform="matrix(-0.302266, 0, 0, -0.302266, 251.225, 215.417)">
     <rect width="149.606" x="0" y="137.858" fill="#F7BD13" connectorname="-" height="55.1182" stroke="none" stroke-linecap="round" stroke-width="0"/>
     <rect width="149.606" x="236.221" y="137.858" fill="#F7BD13" connectorname="+" height="55.1182" stroke="none" stroke-linecap="round" stroke-width="0"/>
     <rect width="330.835" x="-16.6222" y="0" fill="#303030" height="330.835" stroke="none" stroke-width="0"/>
     <polygon fill="#1f1f1f" points="-16.6222,0 314.212,0 304.212,10 -6.62224,10"/>
     <polygon fill="#1f1f1f" points="-16.6222,330.835 314.212,330.835 304.212,320.835 -6.62224,320.835"/>
     <polygon fill="#000000" points="-16.6222,0 -16.6222,330.835 -6.62224,320.835 -6.62224,10"/>
     <polygon fill="#3d3d3d" points="314.212,0 314.212,330.835 304.212,320.835 304.212,10"/>
     <circle fill="#1f1f1f" cx="13.3778" cy="300.835" stroke="none" r="10" stroke-width="0"/>
    </g>
   </g>
   <text x="50" y="224.375" font-family="OCRA" fill="white" text-anchor="start" stroke="none" id="label" stroke-width="0" font-size="65">PANASONIC_E</text>
   <g transform="translate(63.5,326.05)">
    <g transform="rotate(-90)">
     <text x="0" y="0" font-family="OCRA" fill="white" text-anchor="start" stroke="none" stroke-width="0" font-size="45">1</text>
    </g>
   </g>
   <g transform="translate(63.5,73.95)">
    <g transform="rotate(-90)">
     <text x="0" y="0" font-family="OCRA" fill="white" text-anchor="end" stroke="none" stroke-width="0" font-size="45">2</text>
    </g>
   </g>
  </g>
  <g transform="translate(34.035,334.05)">
   <rect width="31.93" x="0" y="0" fill="#8D8C8C" height="31.9" id="connector0pad" stroke-width="0"/>
   <rect width="16.4442" x="7.79153" y="7.73544" fill="#8C8663" height="16.4152" stroke-width="0"/>
   <polygon fill="#B8AF82" points="0,31.9,7.79153,24.1368,7.79153,6.97162,0,0" stroke-width="0"/>
   <polygon fill="#80795B" points="24.2079,7.76321,7.90264,7.76321,0,0,31.93,0" stroke-width="0"/>
   <polygon fill="#5E5B43" points="24.2079,24.1368,24.2079,7.76321,31.93,0,31.93,31.9" stroke-width="0"/>
   <polygon fill="#9A916C" points="0,31.9,7.87486,24.1368,24.2079,24.1368,31.93,31.9" stroke-width="0"/>
  </g>
  <g transform="translate(34.035,34.05)">
   <rect width="31.93" x="0" y="0" fill="#8D8C8C" height="31.9" id="connector1pad" stroke-width="0"/>
   <rect width="16.4442" x="7.79153" y="7.73544" fill="#8C8663" height="16.4152" stroke-width="0"/>
   <polygon fill="#B8AF82" points="0,31.9,7.79153,24.1368,7.79153,6.97162,0,0" stroke-width="0"/>
   <polygon fill="#80795B" points="24.2079,7.76321,7.90264,7.76321,0,0,31.93,0" stroke-width="0"/>
   <polygon fill="#5E5B43" points="24.2079,24.1368,24.2079,7.76321,31.93,0,31.93,31.9" stroke-width="0"/>
   <polygon fill="#9A916C" points="0,31.9,7.87486,24.1368,24.2079,24.1368,31.93,31.9" stroke-width="0"/>
  </g>
 </g>
</svg>
