<?xml version='1.0' encoding='UTF-8' standalone='no'?>
<!-- Created with Fritzing (http://www.fritzing.org/) -->
<svg width="0in" x="0in" version="1.2" y="0in" xmlns="http://www.w3.org/2000/svg" height="0.4in" viewBox="0 0 0 400" baseProfile="tiny" xmlns:svg="http://www.w3.org/2000/svg">
 <desc>Fritzing breadboard generated by brd2svg</desc>
 <g id="breadboard">
  <g id="icon">
   <path fill="#1F7A34" stroke="none" stroke-width="0" d="M0,0L0,170A30,30 0 0 1 0,230L0,400L0,400L0,0L0,0z"/>
   <g transform="translate(-25,175)">
    <g transform="matrix(0.5, 0, 0, 0.5, 12.5, 12.5)">
     <rect width="50" x="0" y="0" fill="#F7BD13" connectorname="P$1" height="50" stroke="none" stroke-linecap="round" stroke-width="0"/>
     <rect width="-1.69093e+11" x="8.45466e+10" y="8.45466e+10" fill="#303030" height="-1.69093e+11" stroke="none" stroke-width="0"/>
     <polygon fill="#1f1f1f" points="8.45466e+10,8.45466e+10 -8.45466e+10,8.45466e+10 -8.45466e+10,8.45466e+10 8.45466e+10,8.45466e+10"/>
     <polygon fill="#1f1f1f" points="8.45466e+10,-8.45466e+10 -8.45466e+10,-8.45466e+10 -8.45466e+10,-8.45466e+10 8.45466e+10,-8.45466e+10"/>
     <polygon fill="#000000" points="8.45466e+10,8.45466e+10 8.45466e+10,-8.45466e+10 8.45466e+10,-8.45466e+10 8.45466e+10,8.45466e+10"/>
     <polygon fill="#3d3d3d" points="-8.45466e+10,8.45466e+10 -8.45466e+10,-8.45466e+10 -8.45466e+10,-8.45466e+10 -8.45466e+10,8.45466e+10"/>
     <circle fill="#1f1f1f" cx="8.45466e+10" cy="-8.45466e+10" stroke="none" r="10" stroke-width="0"/>
    </g>
   </g>
   <text x="50" y="224.375" font-family="OCRA" fill="white" text-anchor="start" stroke="none" id="label" stroke-width="0" font-size="65">PAD.03X.05</text>
  </g>
 </g>
</svg>
