<?xml version='1.0' encoding='UTF-8' standalone='no'?>
<!-- Created with Fritzing (http://www.fritzing.org/) -->
<svg width="0.7in" x="0in" version="1.2" y="0in" xmlns="http://www.w3.org/2000/svg" height="0.6in" viewBox="0 0 700 600" baseProfile="tiny" xmlns:svg="http://www.w3.org/2000/svg">
 <desc>Fritzing breadboard generated by brd2svg</desc>
 <g id="breadboard">
  <g id="icon">
   <path fill="#1F7A34" stroke="none" stroke-width="0" d="M0,0L0,270A30,30 0 0 1 0,330L0,600L700,600L700,0L0,0z"/>
   <g transform="translate(165,166.142)">
    <g transform="matrix(0.5, 0, 0, 0.5, 92.5, 66.9291)">
     <rect width="23.622" x="23.189" y="220.473" fill="#F7BD13" connectorname="1" height="47.2442" stroke="none" stroke-linecap="round" stroke-width="0"/>
     <rect width="23.622" x="73.189" y="220.473" fill="#F7BD13" connectorname="2" height="47.2442" stroke="none" stroke-linecap="round" stroke-width="0"/>
     <rect width="23.622" x="123.189" y="220.473" fill="#F7BD13" connectorname="3" height="47.2442" stroke="none" stroke-linecap="round" stroke-width="0"/>
     <rect width="23.622" x="173.189" y="220.473" fill="#F7BD13" connectorname="4" height="47.2442" stroke="none" stroke-linecap="round" stroke-width="0"/>
     <rect width="23.622" x="223.189" y="220.473" fill="#F7BD13" connectorname="5" height="47.2442" stroke="none" stroke-linecap="round" stroke-width="0"/>
     <rect width="23.622" x="273.189" y="220.473" fill="#F7BD13" connectorname="6" height="47.2442" stroke="none" stroke-linecap="round" stroke-width="0"/>
     <rect width="23.622" x="323.189" y="220.473" fill="#F7BD13" connectorname="7" height="47.2442" stroke="none" stroke-linecap="round" stroke-width="0"/>
     <rect width="23.622" x="323.189" y="0" fill="#F7BD13" connectorname="8" height="47.2442" stroke="none" stroke-linecap="round" stroke-width="0"/>
     <rect width="23.622" x="273.189" y="0" fill="#F7BD13" connectorname="9" height="47.2442" stroke="none" stroke-linecap="round" stroke-width="0"/>
     <rect width="23.622" x="223.189" y="0" fill="#F7BD13" connectorname="10" height="47.2442" stroke="none" stroke-linecap="round" stroke-width="0"/>
     <rect width="23.622" x="173.189" y="0" fill="#F7BD13" connectorname="11" height="47.2442" stroke="none" stroke-linecap="round" stroke-width="0"/>
     <rect width="23.622" x="123.189" y="0" fill="#F7BD13" connectorname="12" height="47.2442" stroke="none" stroke-linecap="round" stroke-width="0"/>
     <rect width="23.622" x="73.189" y="0" fill="#F7BD13" connectorname="13" height="47.2442" stroke="none" stroke-linecap="round" stroke-width="0"/>
     <rect width="23.622" x="23.189" y="0" fill="#F7BD13" connectorname="14" height="47.2442" stroke="none" stroke-linecap="round" stroke-width="0"/>
     <rect width="370" x="0" y="44.3583" fill="#303030" height="179" stroke="none" stroke-width="0"/>
     <polygon fill="#1f1f1f" points="0,44.3583 370,44.3583 360,54.3583 10,54.3583"/>
     <polygon fill="#1f1f1f" points="0,223.358 370,223.358 360,213.358 10,213.358"/>
     <polygon fill="#000000" points="0,44.3583 0,223.358 10,213.358 10,54.3583"/>
     <polygon fill="#3d3d3d" points="370,44.3583 370,223.358 360,213.358 360,54.3583"/>
     <circle fill="#1f1f1f" cx="30" cy="193.358" stroke="none" r="10" stroke-width="0"/>
    </g>
   </g>
   <text x="50" y="324.375" font-family="OCRA" fill="white" text-anchor="start" stroke="none" id="label" stroke-width="0" font-size="65">SO014</text>
   <g transform="translate(63.5,526.05)">
    <g transform="rotate(-90)">
     <text x="0" y="0" font-family="OCRA" fill="white" text-anchor="start" stroke="none" stroke-width="0" font-size="45">1</text>
    </g>
   </g>
   <g transform="translate(63.5,73.95)">
    <g transform="rotate(-90)">
     <text x="0" y="0" font-family="OCRA" fill="white" text-anchor="end" stroke="none" stroke-width="0" font-size="45">14</text>
    </g>
   </g>
   <g transform="translate(163.5,526.05)">
    <g transform="rotate(-90)">
     <text x="0" y="0" font-family="OCRA" fill="white" text-anchor="start" stroke="none" stroke-width="0" font-size="45">2</text>
    </g>
   </g>
   <g transform="translate(163.5,73.95)">
    <g transform="rotate(-90)">
     <text x="0" y="0" font-family="OCRA" fill="white" text-anchor="end" stroke="none" stroke-width="0" font-size="45">13</text>
    </g>
   </g>
   <g transform="translate(263.5,526.05)">
    <g transform="rotate(-90)">
     <text x="0" y="0" font-family="OCRA" fill="white" text-anchor="start" stroke="none" stroke-width="0" font-size="45">3</text>
    </g>
   </g>
   <g transform="translate(263.5,73.95)">
    <g transform="rotate(-90)">
     <text x="0" y="0" font-family="OCRA" fill="white" text-anchor="end" stroke="none" stroke-width="0" font-size="45">12</text>
    </g>
   </g>
   <g transform="translate(363.5,526.05)">
    <g transform="rotate(-90)">
     <text x="0" y="0" font-family="OCRA" fill="white" text-anchor="start" stroke="none" stroke-width="0" font-size="45">4</text>
    </g>
   </g>
   <g transform="translate(363.5,73.95)">
    <g transform="rotate(-90)">
     <text x="0" y="0" font-family="OCRA" fill="white" text-anchor="end" stroke="none" stroke-width="0" font-size="45">11</text>
    </g>
   </g>
   <g transform="translate(463.5,526.05)">
    <g transform="rotate(-90)">
     <text x="0" y="0" font-family="OCRA" fill="white" text-anchor="start" stroke="none" stroke-width="0" font-size="45">5</text>
    </g>
   </g>
   <g transform="translate(463.5,73.95)">
    <g transform="rotate(-90)">
     <text x="0" y="0" font-family="OCRA" fill="white" text-anchor="end" stroke="none" stroke-width="0" font-size="45">10</text>
    </g>
   </g>
   <g transform="translate(563.5,526.05)">
    <g transform="rotate(-90)">
     <text x="0" y="0" font-family="OCRA" fill="white" text-anchor="start" stroke="none" stroke-width="0" font-size="45">6</text>
    </g>
   </g>
   <g transform="translate(563.5,73.95)">
    <g transform="rotate(-90)">
     <text x="0" y="0" font-family="OCRA" fill="white" text-anchor="end" stroke="none" stroke-width="0" font-size="45">9</text>
    </g>
   </g>
   <g transform="translate(663.5,526.05)">
    <g transform="rotate(-90)">
     <text x="0" y="0" font-family="OCRA" fill="white" text-anchor="start" stroke="none" stroke-width="0" font-size="45">7</text>
    </g>
   </g>
   <g transform="translate(663.5,73.95)">
    <g transform="rotate(-90)">
     <text x="0" y="0" font-family="OCRA" fill="white" text-anchor="end" stroke="none" stroke-width="0" font-size="45">8</text>
    </g>
   </g>
  </g>
  <g transform="translate(34.035,534.05)">
   <rect width="31.93" x="0" y="0" fill="#8D8C8C" height="31.9" id="connector0pad" stroke-width="0"/>
   <rect width="16.4442" x="7.79153" y="7.73544" fill="#8C8663" height="16.4152" stroke-width="0"/>
   <polygon fill="#B8AF82" points="0,31.9,7.79153,24.1368,7.79153,6.97162,0,0" stroke-width="0"/>
   <polygon fill="#80795B" points="24.2079,7.76321,7.90264,7.76321,0,0,31.93,0" stroke-width="0"/>
   <polygon fill="#5E5B43" points="24.2079,24.1368,24.2079,7.76321,31.93,0,31.93,31.9" stroke-width="0"/>
   <polygon fill="#9A916C" points="0,31.9,7.87486,24.1368,24.2079,24.1368,31.93,31.9" stroke-width="0"/>
  </g>
  <g transform="translate(34.035,34.05)">
   <rect width="31.93" x="0" y="0" fill="#8D8C8C" height="31.9" id="connector13pad" stroke-width="0"/>
   <rect width="16.4442" x="7.79153" y="7.73544" fill="#8C8663" height="16.4152" stroke-width="0"/>
   <polygon fill="#B8AF82" points="0,31.9,7.79153,24.1368,7.79153,6.97162,0,0" stroke-width="0"/>
   <polygon fill="#80795B" points="24.2079,7.76321,7.90264,7.76321,0,0,31.93,0" stroke-width="0"/>
   <polygon fill="#5E5B43" points="24.2079,24.1368,24.2079,7.76321,31.93,0,31.93,31.9" stroke-width="0"/>
   <polygon fill="#9A916C" points="0,31.9,7.87486,24.1368,24.2079,24.1368,31.93,31.9" stroke-width="0"/>
  </g>
  <g transform="translate(134.035,534.05)">
   <rect width="31.93" x="0" y="0" fill="#8D8C8C" height="31.9" id="connector1pad" stroke-width="0"/>
   <rect width="16.4442" x="7.79153" y="7.73544" fill="#8C8663" height="16.4152" stroke-width="0"/>
   <polygon fill="#B8AF82" points="0,31.9,7.79153,24.1368,7.79153,6.97162,0,0" stroke-width="0"/>
   <polygon fill="#80795B" points="24.2079,7.76321,7.90264,7.76321,0,0,31.93,0" stroke-width="0"/>
   <polygon fill="#5E5B43" points="24.2079,24.1368,24.2079,7.76321,31.93,0,31.93,31.9" stroke-width="0"/>
   <polygon fill="#9A916C" points="0,31.9,7.87486,24.1368,24.2079,24.1368,31.93,31.9" stroke-width="0"/>
  </g>
  <g transform="translate(134.035,34.05)">
   <rect width="31.93" x="0" y="0" fill="#8D8C8C" height="31.9" id="connector12pad" stroke-width="0"/>
   <rect width="16.4442" x="7.79153" y="7.73544" fill="#8C8663" height="16.4152" stroke-width="0"/>
   <polygon fill="#B8AF82" points="0,31.9,7.79153,24.1368,7.79153,6.97162,0,0" stroke-width="0"/>
   <polygon fill="#80795B" points="24.2079,7.76321,7.90264,7.76321,0,0,31.93,0" stroke-width="0"/>
   <polygon fill="#5E5B43" points="24.2079,24.1368,24.2079,7.76321,31.93,0,31.93,31.9" stroke-width="0"/>
   <polygon fill="#9A916C" points="0,31.9,7.87486,24.1368,24.2079,24.1368,31.93,31.9" stroke-width="0"/>
  </g>
  <g transform="translate(234.035,534.05)">
   <rect width="31.93" x="0" y="0" fill="#8D8C8C" height="31.9" id="connector2pad" stroke-width="0"/>
   <rect width="16.4442" x="7.79153" y="7.73544" fill="#8C8663" height="16.4152" stroke-width="0"/>
   <polygon fill="#B8AF82" points="0,31.9,7.79153,24.1368,7.79153,6.97162,0,0" stroke-width="0"/>
   <polygon fill="#80795B" points="24.2079,7.76321,7.90264,7.76321,0,0,31.93,0" stroke-width="0"/>
   <polygon fill="#5E5B43" points="24.2079,24.1368,24.2079,7.76321,31.93,0,31.93,31.9" stroke-width="0"/>
   <polygon fill="#9A916C" points="0,31.9,7.87486,24.1368,24.2079,24.1368,31.93,31.9" stroke-width="0"/>
  </g>
  <g transform="translate(234.035,34.05)">
   <rect width="31.93" x="0" y="0" fill="#8D8C8C" height="31.9" id="connector11pad" stroke-width="0"/>
   <rect width="16.4442" x="7.79153" y="7.73544" fill="#8C8663" height="16.4152" stroke-width="0"/>
   <polygon fill="#B8AF82" points="0,31.9,7.79153,24.1368,7.79153,6.97162,0,0" stroke-width="0"/>
   <polygon fill="#80795B" points="24.2079,7.76321,7.90264,7.76321,0,0,31.93,0" stroke-width="0"/>
   <polygon fill="#5E5B43" points="24.2079,24.1368,24.2079,7.76321,31.93,0,31.93,31.9" stroke-width="0"/>
   <polygon fill="#9A916C" points="0,31.9,7.87486,24.1368,24.2079,24.1368,31.93,31.9" stroke-width="0"/>
  </g>
  <g transform="translate(334.035,534.05)">
   <rect width="31.93" x="0" y="0" fill="#8D8C8C" height="31.9" id="connector3pad" stroke-width="0"/>
   <rect width="16.4442" x="7.79153" y="7.73544" fill="#8C8663" height="16.4152" stroke-width="0"/>
   <polygon fill="#B8AF82" points="0,31.9,7.79153,24.1368,7.79153,6.97162,0,0" stroke-width="0"/>
   <polygon fill="#80795B" points="24.2079,7.76321,7.90264,7.76321,0,0,31.93,0" stroke-width="0"/>
   <polygon fill="#5E5B43" points="24.2079,24.1368,24.2079,7.76321,31.93,0,31.93,31.9" stroke-width="0"/>
   <polygon fill="#9A916C" points="0,31.9,7.87486,24.1368,24.2079,24.1368,31.93,31.9" stroke-width="0"/>
  </g>
  <g transform="translate(334.035,34.05)">
   <rect width="31.93" x="0" y="0" fill="#8D8C8C" height="31.9" id="connector10pad" stroke-width="0"/>
   <rect width="16.4442" x="7.79153" y="7.73544" fill="#8C8663" height="16.4152" stroke-width="0"/>
   <polygon fill="#B8AF82" points="0,31.9,7.79153,24.1368,7.79153,6.97162,0,0" stroke-width="0"/>
   <polygon fill="#80795B" points="24.2079,7.76321,7.90264,7.76321,0,0,31.93,0" stroke-width="0"/>
   <polygon fill="#5E5B43" points="24.2079,24.1368,24.2079,7.76321,31.93,0,31.93,31.9" stroke-width="0"/>
   <polygon fill="#9A916C" points="0,31.9,7.87486,24.1368,24.2079,24.1368,31.93,31.9" stroke-width="0"/>
  </g>
  <g transform="translate(434.035,534.05)">
   <rect width="31.93" x="0" y="0" fill="#8D8C8C" height="31.9" id="connector4pad" stroke-width="0"/>
   <rect width="16.4442" x="7.79153" y="7.73544" fill="#8C8663" height="16.4152" stroke-width="0"/>
   <polygon fill="#B8AF82" points="0,31.9,7.79153,24.1368,7.79153,6.97162,0,0" stroke-width="0"/>
   <polygon fill="#80795B" points="24.2079,7.76321,7.90264,7.76321,0,0,31.93,0" stroke-width="0"/>
   <polygon fill="#5E5B43" points="24.2079,24.1368,24.2079,7.76321,31.93,0,31.93,31.9" stroke-width="0"/>
   <polygon fill="#9A916C" points="0,31.9,7.87486,24.1368,24.2079,24.1368,31.93,31.9" stroke-width="0"/>
  </g>
  <g transform="translate(434.035,34.05)">
   <rect width="31.93" x="0" y="0" fill="#8D8C8C" height="31.9" id="connector9pad" stroke-width="0"/>
   <rect width="16.4442" x="7.79153" y="7.73544" fill="#8C8663" height="16.4152" stroke-width="0"/>
   <polygon fill="#B8AF82" points="0,31.9,7.79153,24.1368,7.79153,6.97162,0,0" stroke-width="0"/>
   <polygon fill="#80795B" points="24.2079,7.76321,7.90264,7.76321,0,0,31.93,0" stroke-width="0"/>
   <polygon fill="#5E5B43" points="24.2079,24.1368,24.2079,7.76321,31.93,0,31.93,31.9" stroke-width="0"/>
   <polygon fill="#9A916C" points="0,31.9,7.87486,24.1368,24.2079,24.1368,31.93,31.9" stroke-width="0"/>
  </g>
  <g transform="translate(534.035,534.05)">
   <rect width="31.93" x="0" y="0" fill="#8D8C8C" height="31.9" id="connector5pad" stroke-width="0"/>
   <rect width="16.4442" x="7.79153" y="7.73544" fill="#8C8663" height="16.4152" stroke-width="0"/>
   <polygon fill="#B8AF82" points="0,31.9,7.79153,24.1368,7.79153,6.97162,0,0" stroke-width="0"/>
   <polygon fill="#80795B" points="24.2079,7.76321,7.90264,7.76321,0,0,31.93,0" stroke-width="0"/>
   <polygon fill="#5E5B43" points="24.2079,24.1368,24.2079,7.76321,31.93,0,31.93,31.9" stroke-width="0"/>
   <polygon fill="#9A916C" points="0,31.9,7.87486,24.1368,24.2079,24.1368,31.93,31.9" stroke-width="0"/>
  </g>
  <g transform="translate(534.035,34.05)">
   <rect width="31.93" x="0" y="0" fill="#8D8C8C" height="31.9" id="connector8pad" stroke-width="0"/>
   <rect width="16.4442" x="7.79153" y="7.73544" fill="#8C8663" height="16.4152" stroke-width="0"/>
   <polygon fill="#B8AF82" points="0,31.9,7.79153,24.1368,7.79153,6.97162,0,0" stroke-width="0"/>
   <polygon fill="#80795B" points="24.2079,7.76321,7.90264,7.76321,0,0,31.93,0" stroke-width="0"/>
   <polygon fill="#5E5B43" points="24.2079,24.1368,24.2079,7.76321,31.93,0,31.93,31.9" stroke-width="0"/>
   <polygon fill="#9A916C" points="0,31.9,7.87486,24.1368,24.2079,24.1368,31.93,31.9" stroke-width="0"/>
  </g>
  <g transform="translate(634.035,534.05)">
   <rect width="31.93" x="0" y="0" fill="#8D8C8C" height="31.9" id="connector6pad" stroke-width="0"/>
   <rect width="16.4442" x="7.79153" y="7.73544" fill="#8C8663" height="16.4152" stroke-width="0"/>
   <polygon fill="#B8AF82" points="0,31.9,7.79153,24.1368,7.79153,6.97162,0,0" stroke-width="0"/>
   <polygon fill="#80795B" points="24.2079,7.76321,7.90264,7.76321,0,0,31.93,0" stroke-width="0"/>
   <polygon fill="#5E5B43" points="24.2079,24.1368,24.2079,7.76321,31.93,0,31.93,31.9" stroke-width="0"/>
   <polygon fill="#9A916C" points="0,31.9,7.87486,24.1368,24.2079,24.1368,31.93,31.9" stroke-width="0"/>
  </g>
  <g transform="translate(634.035,34.05)">
   <rect width="31.93" x="0" y="0" fill="#8D8C8C" height="31.9" id="connector7pad" stroke-width="0"/>
   <rect width="16.4442" x="7.79153" y="7.73544" fill="#8C8663" height="16.4152" stroke-width="0"/>
   <polygon fill="#B8AF82" points="0,31.9,7.79153,24.1368,7.79153,6.97162,0,0" stroke-width="0"/>
   <polygon fill="#80795B" points="24.2079,7.76321,7.90264,7.76321,0,0,31.93,0" stroke-width="0"/>
   <polygon fill="#5E5B43" points="24.2079,24.1368,24.2079,7.76321,31.93,0,31.93,31.9" stroke-width="0"/>
   <polygon fill="#9A916C" points="0,31.9,7.87486,24.1368,24.2079,24.1368,31.93,31.9" stroke-width="0"/>
  </g>
 </g>
</svg>
