<?xml version='1.0' encoding='UTF-8' standalone='no'?>
<!-- Created with Fritzing (http://www.fritzing.org/) -->
<svg width="0.1in" x="0in" version="1.2" y="0in" xmlns="http://www.w3.org/2000/svg" height="0.4in" viewBox="0 0 100 400" baseProfile="tiny" xmlns:svg="http://www.w3.org/2000/svg">
 <desc>Fritzing breadboard generated by brd2svg</desc>
 <g id="breadboard">
  <g id="icon">
   <path fill="#1F7A34" stroke="none" stroke-width="0" d="M0,0L0,170A30,30 0 0 1 0,230L0,400L100,400L100,0L0,0z"/>
   <g transform="translate(-32.9921,112.539)">
    <g transform="matrix(-0.602467, 0, 0, -0.602467, 132.992, 140.153)">
     <rect width="42.9999" x="16.0275" y="111.921" fill="#F7BD13" connectorname="1" height="62.9999" stroke="none" stroke-linecap="round" stroke-width="0"/>
     <rect width="42.9999" x="106.957" y="111.921" fill="#F7BD13" connectorname="3" height="62.9999" stroke="none" stroke-linecap="round" stroke-width="0"/>
     <rect width="62.9999" x="51.492" y="0" fill="#F7BD13" connectorname="2" height="62.9999" stroke="none" stroke-linecap="round" stroke-width="0"/>
     <rect width="165.984" x="0" y="-26.4706" fill="#303030" height="130.984" stroke="none" stroke-width="0"/>
     <polygon fill="#1f1f1f" points="0,-26.4706 165.984,-26.4706 155.984,-16.4706 10,-16.4706"/>
     <polygon fill="#1f1f1f" points="0,104.514 165.984,104.514 155.984,94.5137 10,94.5137"/>
     <polygon fill="#000000" points="0,-26.4706 0,104.514 10,94.5137 10,-16.4706"/>
     <polygon fill="#3d3d3d" points="165.984,-26.4706 165.984,104.514 155.984,94.5137 155.984,-16.4706"/>
     <circle fill="#1f1f1f" cx="30" cy="74.5137" stroke="none" r="10" stroke-width="0"/>
    </g>
   </g>
   <text x="50" y="224.375" font-family="OCRA" fill="white" text-anchor="start" stroke="none" id="label" stroke-width="0" font-size="65">TRIMPOT-3MM-2</text>
   <g transform="translate(63.5,326.05)">
    <g transform="rotate(-90)">
     <text x="0" y="0" font-family="OCRA" fill="white" text-anchor="start" stroke="none" stroke-width="0" font-size="45">1</text>
    </g>
   </g>
   <g transform="translate(63.5,73.95)">
    <g transform="rotate(-90)">
     <text x="0" y="0" font-family="OCRA" fill="white" text-anchor="end" stroke="none" stroke-width="0" font-size="45">3</text>
    </g>
   </g>
  </g>
  <g transform="translate(34.035,334.05)">
   <rect width="31.93" x="0" y="0" fill="#8D8C8C" height="31.9" id="connector0pad" stroke-width="0"/>
   <rect width="16.4442" x="7.79153" y="7.73544" fill="#8C8663" height="16.4152" stroke-width="0"/>
   <polygon fill="#B8AF82" points="0,31.9,7.79153,24.1368,7.79153,6.97162,0,0" stroke-width="0"/>
   <polygon fill="#80795B" points="24.2079,7.76321,7.90264,7.76321,0,0,31.93,0" stroke-width="0"/>
   <polygon fill="#5E5B43" points="24.2079,24.1368,24.2079,7.76321,31.93,0,31.93,31.9" stroke-width="0"/>
   <polygon fill="#9A916C" points="0,31.9,7.87486,24.1368,24.2079,24.1368,31.93,31.9" stroke-width="0"/>
  </g>
  <g transform="translate(34.035,34.05)">
   <rect width="31.93" x="0" y="0" fill="#8D8C8C" height="31.9" id="connector2pad" stroke-width="0"/>
   <rect width="16.4442" x="7.79153" y="7.73544" fill="#8C8663" height="16.4152" stroke-width="0"/>
   <polygon fill="#B8AF82" points="0,31.9,7.79153,24.1368,7.79153,6.97162,0,0" stroke-width="0"/>
   <polygon fill="#80795B" points="24.2079,7.76321,7.90264,7.76321,0,0,31.93,0" stroke-width="0"/>
   <polygon fill="#5E5B43" points="24.2079,24.1368,24.2079,7.76321,31.93,0,31.93,31.9" stroke-width="0"/>
   <polygon fill="#9A916C" points="0,31.9,7.87486,24.1368,24.2079,24.1368,31.93,31.9" stroke-width="0"/>
  </g>
 </g>
</svg>
