<?xml version='1.0' encoding='UTF-8' standalone='no'?>
<!-- Created with Fritzing (http://www.fritzing.org/) -->
<svg width="0in" x="0in" version="1.2" y="0in" xmlns="http://www.w3.org/2000/svg" height="0.6in" viewBox="0 0 0 600" baseProfile="tiny" xmlns:svg="http://www.w3.org/2000/svg">
 <desc>Fritzing breadboard generated by brd2svg</desc>
 <g id="breadboard">
  <g id="icon">
   <path fill="#1F7A34" stroke="none" stroke-width="0" d="M0,0L0,270A30,30 0 0 1 0,330L0,600L0,600L0,0L0,0z"/>
   <g transform="translate(-62,71.25)">
    <g transform="matrix(0.5, 0, 0, 0.5, 31, 114.375)">
     <rect width="25" x="49.5" y="202.5" fill="#F7BD13" connectorname="GROUND" height="50" stroke="none" stroke-linecap="round" stroke-width="0"/>
     <path class="other" fill="#F7BD13" stroke="none" stroke-linecap="round" stroke-width="0" d="M62,452.5L69,452.5A50,50,0,0,0,119,402.5L119,62.5L119,59.5A57,57,0,0,0,62,2.5A57,57,0,0,0,5,59.5L5,62.5L5,402.5A50,50,0,0,0,55,452.5z"/>
     <rect width="-1.69093e+11" x="8.45466e+10" y="8.45466e+10" fill="#303030" height="-1.69093e+11" stroke="none" stroke-width="0"/>
     <polygon fill="#1f1f1f" points="8.45466e+10,8.45466e+10 -8.45466e+10,8.45466e+10 -8.45466e+10,8.45466e+10 8.45466e+10,8.45466e+10"/>
     <polygon fill="#1f1f1f" points="8.45466e+10,-8.45466e+10 -8.45466e+10,-8.45466e+10 -8.45466e+10,-8.45466e+10 8.45466e+10,-8.45466e+10"/>
     <polygon fill="#000000" points="8.45466e+10,8.45466e+10 8.45466e+10,-8.45466e+10 8.45466e+10,-8.45466e+10 8.45466e+10,8.45466e+10"/>
     <polygon fill="#3d3d3d" points="-8.45466e+10,8.45466e+10 -8.45466e+10,-8.45466e+10 -8.45466e+10,-8.45466e+10 -8.45466e+10,8.45466e+10"/>
     <circle fill="#1f1f1f" cx="8.45466e+10" cy="-8.45466e+10" stroke="none" r="10" stroke-width="0"/>
    </g>
   </g>
   <text x="50" y="324.375" font-family="OCRA" fill="white" text-anchor="start" stroke="none" id="label" stroke-width="0" font-size="65">STARBOARD_GROUND_SMALL</text>
  </g>
 </g>
</svg>
