<?xml version='1.0' encoding='UTF-8' standalone='no'?>
<!-- Created with Fritzing (http://www.fritzing.org/) -->
<svg width="0in" x="0in" version="1.2" y="0in" xmlns="http://www.w3.org/2000/svg" height="0.8in" viewBox="0 0 0 800" baseProfile="tiny" xmlns:svg="http://www.w3.org/2000/svg">
 <desc>Fritzing breadboard generated by brd2svg</desc>
 <g id="breadboard">
  <g id="icon">
   <path fill="#1F7A34" stroke="none" stroke-width="0" d="M0,0L0,370A30,30 0 0 1 0,430L0,800L0,800L0,0L0,0z"/>
   <g transform="translate(-129,-63)">
    <g transform="matrix(0.5, 0, 0, 0.5, 64.5, 231.5)">
     <rect width="50" x="104" y="30.5" fill="#F7BD13" connectorname="PWR" height="25" stroke="none" stroke-linecap="round" stroke-width="0"/>
     <path class="other" fill="#F7BD13" stroke="none" stroke-linecap="round" stroke-width="0" d="M150,918L108,918A100,100,0,0,1,8,818L8,108A100,100,0,0,1,108,8L150,8A100,100,0,0,1,250,108L250,118L149,118L129,58L109,118L44,118L96,157L74,223L129,182L184,223L162,157L213,119L250,119L250,818A100,100,0,0,1,150,918z"/>
     <rect width="-1.69093e+11" x="8.45466e+10" y="8.45466e+10" fill="#303030" height="-1.69093e+11" stroke="none" stroke-width="0"/>
     <polygon fill="#1f1f1f" points="8.45466e+10,8.45466e+10 -8.45466e+10,8.45466e+10 -8.45466e+10,8.45466e+10 8.45466e+10,8.45466e+10"/>
     <polygon fill="#1f1f1f" points="8.45466e+10,-8.45466e+10 -8.45466e+10,-8.45466e+10 -8.45466e+10,-8.45466e+10 8.45466e+10,-8.45466e+10"/>
     <polygon fill="#000000" points="8.45466e+10,8.45466e+10 8.45466e+10,-8.45466e+10 8.45466e+10,-8.45466e+10 8.45466e+10,8.45466e+10"/>
     <polygon fill="#3d3d3d" points="-8.45466e+10,8.45466e+10 -8.45466e+10,-8.45466e+10 -8.45466e+10,-8.45466e+10 -8.45466e+10,8.45466e+10"/>
     <circle fill="#1f1f1f" cx="8.45466e+10" cy="-8.45466e+10" stroke="none" r="10" stroke-width="0"/>
    </g>
   </g>
   <text x="50" y="424.375" font-family="OCRA" fill="white" text-anchor="start" stroke="none" id="label" stroke-width="0" font-size="65">STARBOARD_PWR</text>
  </g>
 </g>
</svg>
