<?xml version='1.0' encoding='UTF-8' standalone='no'?>
<!-- Created with Fritzing (http://www.fritzing.org/) -->
<svg width="0in" x="0in" version="1.2" y="0in" xmlns="http://www.w3.org/2000/svg" height="0.6in" viewBox="0 0 0 600" baseProfile="tiny" xmlns:svg="http://www.w3.org/2000/svg">
 <desc>Fritzing breadboard generated by brd2svg</desc>
 <g id="breadboard">
  <g id="icon">
   <path fill="#1F7A34" stroke="none" stroke-width="0" d="M0,0L0,270A30,30 0 0 1 0,330L0,600L0,600L0,0L0,0z"/>
   <g transform="translate(-230,15)">
    <g transform="matrix(0.5, 0, 0, 0.5, 115, 142.5)">
     <rect width="25" x="217.5" y="260" fill="#F7BD13" connectorname="GROUND" height="50" stroke="none" stroke-linecap="round" stroke-width="0"/>
     <path class="other" fill="#F7BD13" stroke="none" stroke-linecap="round" stroke-width="0" d="M230,565L187.882,565A158.114,158.114,0,0,1,172.15,564.217L130,560L91.815,552.362A131.247,131.247,0,0,1,68.815,545.528L62.815,543.126A172.254,172.254,0,0,1,5,505L5,460L5,255L5,165L5,67.5A6.03543,6.03543,0,0,1,6.76772,63.2323A161.439,161.439,0,0,1,60.5079,27.7953L70.8504,23.6575A107.352,107.352,0,0,1,89.6614,18.0669L124.965,11.0079A105.007,105.007,0,0,1,135.11,9.48819L174.539,5.54724A109.996,109.996,0,0,1,185.488,5L230,5L274.512,5A110,110,0,0,1,285.461,5.54724L324.343,9.43307A116.278,116.278,0,0,1,335.579,11.1142L366.185,17.2362A153.38,153.38,0,0,1,393.051,25.2205L397.173,26.8701A173.713,173.713,0,0,1,455,65L455,230L455,360L455,505L454.429,505.571A168.315,168.315,0,0,1,397.925,542.831A210.296,210.296,0,0,1,361.067,553.787L337.354,558.528A153.371,153.371,0,0,1,322.539,560.744A856.776,856.776,0,0,1,237.248,565z"/>
     <rect width="-1.69093e+11" x="8.45466e+10" y="8.45466e+10" fill="#303030" height="-1.69093e+11" stroke="none" stroke-width="0"/>
     <polygon fill="#1f1f1f" points="8.45466e+10,8.45466e+10 -8.45466e+10,8.45466e+10 -8.45466e+10,8.45466e+10 8.45466e+10,8.45466e+10"/>
     <polygon fill="#1f1f1f" points="8.45466e+10,-8.45466e+10 -8.45466e+10,-8.45466e+10 -8.45466e+10,-8.45466e+10 8.45466e+10,-8.45466e+10"/>
     <polygon fill="#000000" points="8.45466e+10,8.45466e+10 8.45466e+10,-8.45466e+10 8.45466e+10,-8.45466e+10 8.45466e+10,8.45466e+10"/>
     <polygon fill="#3d3d3d" points="-8.45466e+10,8.45466e+10 -8.45466e+10,-8.45466e+10 -8.45466e+10,-8.45466e+10 -8.45466e+10,8.45466e+10"/>
     <circle fill="#1f1f1f" cx="8.45466e+10" cy="-8.45466e+10" stroke="none" r="10" stroke-width="0"/>
    </g>
   </g>
   <text x="50" y="324.375" font-family="OCRA" fill="white" text-anchor="start" stroke="none" id="label" stroke-width="0" font-size="65">STARBOARD_GROUND_WIDE</text>
  </g>
 </g>
</svg>
