<?xml version='1.0' encoding='UTF-8' standalone='no'?>
<!-- Created with Fritzing (http://www.fritzing.org/) -->
<svg width="0.1in" x="0in" version="1.2" y="0in" xmlns="http://www.w3.org/2000/svg" height="0.4in" viewBox="0 0 100 400" baseProfile="tiny" xmlns:svg="http://www.w3.org/2000/svg">
 <desc>Fritzing breadboard generated by brd2svg</desc>
 <g id="breadboard">
  <g id="icon">
   <path fill="#1F7A34" stroke="none" stroke-width="0" d="M0,0L0,170A30,30 0 0 1 0,230L0,400L100,400L100,0L0,0z"/>
   <g transform="translate(-168.504,78.3622)">
    <g transform="matrix(-0.311947, 0, 0, -0.311947, 286.666, 159.582)">
     <rect width="66.9292" x="287.992" y="0" fill="#F7BD13" connectorname="V-" height="118.11" stroke="none" stroke-linecap="round" stroke-width="0"/>
     <rect width="66.9292" x="187.992" y="0" fill="#F7BD13" connectorname="SIG" height="118.11" stroke="none" stroke-linecap="round" stroke-width="0"/>
     <rect width="66.9292" x="87.9922" y="0" fill="#F7BD13" connectorname="V+" height="118.11" stroke="none" stroke-linecap="round" stroke-width="0"/>
     <circle fill="black" cx="410.039" cy="200.394" stroke="black" r="26.9685" id="nonconn0" stroke-width="0"/>
     <circle fill="black" cx="32.874" cy="200.394" stroke="black" r="26.9685" id="nonconn1" stroke-width="0"/>
     <rect width="320.567" x="-36.3234" y="-2.20083" fill="#303030" height="236.22" stroke="none" stroke-width="0"/>
     <polygon fill="#1f1f1f" points="-36.3234,-2.20083 284.243,-2.20083 274.243,7.79917 -26.3234,7.79917"/>
     <polygon fill="#1f1f1f" points="-36.3234,234.02 284.243,234.02 274.243,224.02 -26.3234,224.02"/>
     <polygon fill="#000000" points="-36.3234,-2.20083 -36.3234,234.02 -26.3234,224.02 -26.3234,7.79917"/>
     <polygon fill="#3d3d3d" points="284.243,-2.20083 284.243,234.02 274.243,224.02 274.243,7.79917"/>
     <circle fill="#1f1f1f" cx="-6.32344" cy="204.02" stroke="none" r="10" stroke-width="0"/>
    </g>
   </g>
   <text x="50" y="224.375" font-family="OCRA" fill="white" text-anchor="start" stroke="none" id="label" stroke-width="0" font-size="65">LITTLE_BITS_MALE</text>
   <g transform="translate(63.5,326.05)">
    <g transform="rotate(-90)">
     <text x="0" y="0" font-family="OCRA" fill="white" text-anchor="start" stroke="none" stroke-width="0" font-size="45">1</text>
    </g>
   </g>
   <g transform="translate(63.5,73.95)">
    <g transform="rotate(-90)">
     <text x="0" y="0" font-family="OCRA" fill="white" text-anchor="end" stroke="none" stroke-width="0" font-size="45">3</text>
    </g>
   </g>
  </g>
  <g transform="translate(34.035,334.05)">
   <rect width="31.93" x="0" y="0" fill="#8D8C8C" height="31.9" id="connector0pad" stroke-width="0"/>
   <rect width="16.4442" x="7.79153" y="7.73544" fill="#8C8663" height="16.4152" stroke-width="0"/>
   <polygon fill="#B8AF82" points="0,31.9,7.79153,24.1368,7.79153,6.97162,0,0" stroke-width="0"/>
   <polygon fill="#80795B" points="24.2079,7.76321,7.90264,7.76321,0,0,31.93,0" stroke-width="0"/>
   <polygon fill="#5E5B43" points="24.2079,24.1368,24.2079,7.76321,31.93,0,31.93,31.9" stroke-width="0"/>
   <polygon fill="#9A916C" points="0,31.9,7.87486,24.1368,24.2079,24.1368,31.93,31.9" stroke-width="0"/>
  </g>
  <g transform="translate(34.035,34.05)">
   <rect width="31.93" x="0" y="0" fill="#8D8C8C" height="31.9" id="connector2pad" stroke-width="0"/>
   <rect width="16.4442" x="7.79153" y="7.73544" fill="#8C8663" height="16.4152" stroke-width="0"/>
   <polygon fill="#B8AF82" points="0,31.9,7.79153,24.1368,7.79153,6.97162,0,0" stroke-width="0"/>
   <polygon fill="#80795B" points="24.2079,7.76321,7.90264,7.76321,0,0,31.93,0" stroke-width="0"/>
   <polygon fill="#5E5B43" points="24.2079,24.1368,24.2079,7.76321,31.93,0,31.93,31.9" stroke-width="0"/>
   <polygon fill="#9A916C" points="0,31.9,7.87486,24.1368,24.2079,24.1368,31.93,31.9" stroke-width="0"/>
  </g>
 </g>
</svg>
