<?xml version='1.0' encoding='UTF-8' standalone='no'?>
<!-- Created with Fritzing (http://www.fritzing.org/) -->
<svg width="1.6in" x="0in" version="1.2" y="0in" xmlns="http://www.w3.org/2000/svg" height="0.6in" viewBox="0 0 1600 600" baseProfile="tiny" xmlns:svg="http://www.w3.org/2000/svg">
 <desc>Fritzing breadboard generated by brd2svg</desc>
 <g id="breadboard">
  <g id="icon">
   <path fill="#1F7A34" stroke="none" stroke-width="0" d="M0,0L0,270A30,30 0 0 1 0,330L0,600L1600,600L1600,0L0,0z"/>
   <g transform="translate(313.78,150.362)">
    <g transform="matrix(0.5, 0, 0, 0.5, 243.11, 74.8189)">
     <rect width="13.7795" x="193.898" y="230.378" fill="#F7BD13" connectorname="1" height="68.8977" stroke="none" stroke-linecap="round" stroke-width="0"/>
     <rect width="13.7795" x="213.583" y="230.378" fill="#F7BD13" connectorname="2" height="68.8977" stroke="none" stroke-linecap="round" stroke-width="0"/>
     <rect width="13.7795" x="233.268" y="230.378" fill="#F7BD13" connectorname="3" height="68.8977" stroke="none" stroke-linecap="round" stroke-width="0"/>
     <rect width="13.7795" x="252.953" y="230.378" fill="#F7BD13" connectorname="4" height="68.8977" stroke="none" stroke-linecap="round" stroke-width="0"/>
     <rect width="13.7795" x="272.638" y="230.378" fill="#F7BD13" connectorname="5" height="68.8977" stroke="none" stroke-linecap="round" stroke-width="0"/>
     <rect width="13.7795" x="292.323" y="230.378" fill="#F7BD13" connectorname="6" height="68.8977" stroke="none" stroke-linecap="round" stroke-width="0"/>
     <rect width="13.7795" x="312.008" y="230.378" fill="#F7BD13" connectorname="7" height="68.8977" stroke="none" stroke-linecap="round" stroke-width="0"/>
     <rect width="13.7795" x="331.693" y="230.378" fill="#F7BD13" connectorname="8" height="68.8977" stroke="none" stroke-linecap="round" stroke-width="0"/>
     <rect width="13.7795" x="351.378" y="230.378" fill="#F7BD13" connectorname="9" height="68.8977" stroke="none" stroke-linecap="round" stroke-width="0"/>
     <rect width="13.7795" x="371.063" y="230.378" fill="#F7BD13" connectorname="10" height="68.8977" stroke="none" stroke-linecap="round" stroke-width="0"/>
     <rect width="13.7795" x="390.748" y="230.378" fill="#F7BD13" connectorname="11" height="68.8977" stroke="none" stroke-linecap="round" stroke-width="0"/>
     <rect width="13.7795" x="410.433" y="230.378" fill="#F7BD13" connectorname="12" height="68.8977" stroke="none" stroke-linecap="round" stroke-width="0"/>
     <rect width="13.7795" x="430.118" y="230.378" fill="#F7BD13" connectorname="13" height="68.8977" stroke="none" stroke-linecap="round" stroke-width="0"/>
     <rect width="13.7795" x="449.803" y="230.378" fill="#F7BD13" connectorname="14" height="68.8977" stroke="none" stroke-linecap="round" stroke-width="0"/>
     <rect width="13.7795" x="469.488" y="230.378" fill="#F7BD13" connectorname="15" height="68.8977" stroke="none" stroke-linecap="round" stroke-width="0"/>
     <rect width="13.7795" x="489.173" y="230.378" fill="#F7BD13" connectorname="16" height="68.8977" stroke="none" stroke-linecap="round" stroke-width="0"/>
     <rect width="13.7795" x="508.858" y="230.378" fill="#F7BD13" connectorname="17" height="68.8977" stroke="none" stroke-linecap="round" stroke-width="0"/>
     <rect width="13.7795" x="528.543" y="230.378" fill="#F7BD13" connectorname="18" height="68.8977" stroke="none" stroke-linecap="round" stroke-width="0"/>
     <rect width="13.7795" x="548.228" y="230.378" fill="#F7BD13" connectorname="19" height="68.8977" stroke="none" stroke-linecap="round" stroke-width="0"/>
     <rect width="13.7795" x="567.913" y="230.378" fill="#F7BD13" connectorname="20" height="68.8977" stroke="none" stroke-linecap="round" stroke-width="0"/>
     <rect width="13.7795" x="587.598" y="230.378" fill="#F7BD13" connectorname="21" height="68.8977" stroke="none" stroke-linecap="round" stroke-width="0"/>
     <rect width="13.7795" x="607.283" y="230.378" fill="#F7BD13" connectorname="22" height="68.8977" stroke="none" stroke-linecap="round" stroke-width="0"/>
     <rect width="13.7795" x="626.969" y="230.378" fill="#F7BD13" connectorname="23" height="68.8977" stroke="none" stroke-linecap="round" stroke-width="0"/>
     <rect width="13.7795" x="646.654" y="230.378" fill="#F7BD13" connectorname="24" height="68.8977" stroke="none" stroke-linecap="round" stroke-width="0"/>
     <rect width="13.7795" x="666.339" y="230.378" fill="#F7BD13" connectorname="25" height="68.8977" stroke="none" stroke-linecap="round" stroke-width="0"/>
     <rect width="13.7795" x="686.024" y="230.378" fill="#F7BD13" connectorname="26" height="68.8977" stroke="none" stroke-linecap="round" stroke-width="0"/>
     <rect width="13.7795" x="705.709" y="230.378" fill="#F7BD13" connectorname="27" height="68.8977" stroke="none" stroke-linecap="round" stroke-width="0"/>
     <rect width="13.7795" x="725.394" y="230.378" fill="#F7BD13" connectorname="28" height="68.8977" stroke="none" stroke-linecap="round" stroke-width="0"/>
     <rect width="55.1181" x="0" y="127.032" fill="#F7BD13" connectorname="31" height="80.7088" stroke="none" stroke-linecap="round" stroke-width="0"/>
     <rect width="55.1181" x="917.323" y="127.032" fill="#F7BD13" connectorname="32" height="80.7088" stroke="none" stroke-linecap="round" stroke-width="0"/>
     <rect width="13.7795" x="745.079" y="230.378" fill="#F7BD13" connectorname="29" height="68.8977" stroke="none" stroke-linecap="round" stroke-width="0"/>
     <rect width="13.7795" x="764.764" y="230.378" fill="#F7BD13" connectorname="30" height="68.8977" stroke="none" stroke-linecap="round" stroke-width="0"/>
     <circle fill="black" cx="732.284" cy="181.166" stroke="black" r="21.6535" id="nonconn0" stroke-width="0"/>
     <circle fill="black" cx="240.157" cy="181.166" stroke="black" r="21.6535" id="nonconn1" stroke-width="0"/>
     <circle fill="black" cx="912.402" cy="66.9922" stroke="black" r="25.5906" id="nonconn2" stroke-width="0"/>
     <circle fill="black" cx="60.0394" cy="66.9922" stroke="black" r="25.5906" id="nonconn3" stroke-width="0"/>
     <rect width="850.52" x="60.9606" y="26.5433" fill="#303030" height="246.189" stroke="none" stroke-width="0"/>
     <polygon fill="#1f1f1f" points="60.9606,26.5433 911.48,26.5433 901.48,36.5433 70.9606,36.5433"/>
     <polygon fill="#1f1f1f" points="60.9606,272.732 911.48,272.732 901.48,262.732 70.9606,262.732"/>
     <polygon fill="#000000" points="60.9606,26.5433 60.9606,272.732 70.9606,262.732 70.9606,36.5433"/>
     <polygon fill="#3d3d3d" points="911.48,26.5433 911.48,272.732 901.48,262.732 901.48,36.5433"/>
     <circle fill="#1f1f1f" cx="90.9606" cy="242.732" stroke="none" r="10" stroke-width="0"/>
    </g>
   </g>
   <text x="50" y="324.375" font-family="OCRA" fill="white" text-anchor="start" stroke="none" id="label" stroke-width="0" font-size="65">IPOD_FEMALE_CONNECTOR</text>
   <g transform="translate(63.5,526.05)">
    <g transform="rotate(-90)">
     <text x="0" y="0" font-family="OCRA" fill="white" text-anchor="start" stroke="none" stroke-width="0" font-size="45">1</text>
    </g>
   </g>
   <g transform="translate(63.5,73.95)">
    <g transform="rotate(-90)">
     <text x="0" y="0" font-family="OCRA" fill="white" text-anchor="end" stroke="none" stroke-width="0" font-size="45">32</text>
    </g>
   </g>
   <g transform="translate(163.5,526.05)">
    <g transform="rotate(-90)">
     <text x="0" y="0" font-family="OCRA" fill="white" text-anchor="start" stroke="none" stroke-width="0" font-size="45">2</text>
    </g>
   </g>
   <g transform="translate(163.5,73.95)">
    <g transform="rotate(-90)">
     <text x="0" y="0" font-family="OCRA" fill="white" text-anchor="end" stroke="none" stroke-width="0" font-size="45">31</text>
    </g>
   </g>
   <g transform="translate(263.5,526.05)">
    <g transform="rotate(-90)">
     <text x="0" y="0" font-family="OCRA" fill="white" text-anchor="start" stroke="none" stroke-width="0" font-size="45">3</text>
    </g>
   </g>
   <g transform="translate(263.5,73.95)">
    <g transform="rotate(-90)">
     <text x="0" y="0" font-family="OCRA" fill="white" text-anchor="end" stroke="none" stroke-width="0" font-size="45">30</text>
    </g>
   </g>
   <g transform="translate(363.5,526.05)">
    <g transform="rotate(-90)">
     <text x="0" y="0" font-family="OCRA" fill="white" text-anchor="start" stroke="none" stroke-width="0" font-size="45">4</text>
    </g>
   </g>
   <g transform="translate(363.5,73.95)">
    <g transform="rotate(-90)">
     <text x="0" y="0" font-family="OCRA" fill="white" text-anchor="end" stroke="none" stroke-width="0" font-size="45">29</text>
    </g>
   </g>
   <g transform="translate(463.5,526.05)">
    <g transform="rotate(-90)">
     <text x="0" y="0" font-family="OCRA" fill="white" text-anchor="start" stroke="none" stroke-width="0" font-size="45">5</text>
    </g>
   </g>
   <g transform="translate(463.5,73.95)">
    <g transform="rotate(-90)">
     <text x="0" y="0" font-family="OCRA" fill="white" text-anchor="end" stroke="none" stroke-width="0" font-size="45">28</text>
    </g>
   </g>
   <g transform="translate(563.5,526.05)">
    <g transform="rotate(-90)">
     <text x="0" y="0" font-family="OCRA" fill="white" text-anchor="start" stroke="none" stroke-width="0" font-size="45">6</text>
    </g>
   </g>
   <g transform="translate(563.5,73.95)">
    <g transform="rotate(-90)">
     <text x="0" y="0" font-family="OCRA" fill="white" text-anchor="end" stroke="none" stroke-width="0" font-size="45">27</text>
    </g>
   </g>
   <g transform="translate(663.5,526.05)">
    <g transform="rotate(-90)">
     <text x="0" y="0" font-family="OCRA" fill="white" text-anchor="start" stroke="none" stroke-width="0" font-size="45">7</text>
    </g>
   </g>
   <g transform="translate(663.5,73.95)">
    <g transform="rotate(-90)">
     <text x="0" y="0" font-family="OCRA" fill="white" text-anchor="end" stroke="none" stroke-width="0" font-size="45">26</text>
    </g>
   </g>
   <g transform="translate(763.5,526.05)">
    <g transform="rotate(-90)">
     <text x="0" y="0" font-family="OCRA" fill="white" text-anchor="start" stroke="none" stroke-width="0" font-size="45">8</text>
    </g>
   </g>
   <g transform="translate(763.5,73.95)">
    <g transform="rotate(-90)">
     <text x="0" y="0" font-family="OCRA" fill="white" text-anchor="end" stroke="none" stroke-width="0" font-size="45">25</text>
    </g>
   </g>
   <g transform="translate(863.5,526.05)">
    <g transform="rotate(-90)">
     <text x="0" y="0" font-family="OCRA" fill="white" text-anchor="start" stroke="none" stroke-width="0" font-size="45">9</text>
    </g>
   </g>
   <g transform="translate(863.5,73.95)">
    <g transform="rotate(-90)">
     <text x="0" y="0" font-family="OCRA" fill="white" text-anchor="end" stroke="none" stroke-width="0" font-size="45">24</text>
    </g>
   </g>
   <g transform="translate(963.5,526.05)">
    <g transform="rotate(-90)">
     <text x="0" y="0" font-family="OCRA" fill="white" text-anchor="start" stroke="none" stroke-width="0" font-size="45">10</text>
    </g>
   </g>
   <g transform="translate(963.5,73.95)">
    <g transform="rotate(-90)">
     <text x="0" y="0" font-family="OCRA" fill="white" text-anchor="end" stroke="none" stroke-width="0" font-size="45">23</text>
    </g>
   </g>
   <g transform="translate(1063.5,526.05)">
    <g transform="rotate(-90)">
     <text x="0" y="0" font-family="OCRA" fill="white" text-anchor="start" stroke="none" stroke-width="0" font-size="45">11</text>
    </g>
   </g>
   <g transform="translate(1063.5,73.95)">
    <g transform="rotate(-90)">
     <text x="0" y="0" font-family="OCRA" fill="white" text-anchor="end" stroke="none" stroke-width="0" font-size="45">22</text>
    </g>
   </g>
   <g transform="translate(1163.5,526.05)">
    <g transform="rotate(-90)">
     <text x="0" y="0" font-family="OCRA" fill="white" text-anchor="start" stroke="none" stroke-width="0" font-size="45">12</text>
    </g>
   </g>
   <g transform="translate(1163.5,73.95)">
    <g transform="rotate(-90)">
     <text x="0" y="0" font-family="OCRA" fill="white" text-anchor="end" stroke="none" stroke-width="0" font-size="45">21</text>
    </g>
   </g>
   <g transform="translate(1263.5,526.05)">
    <g transform="rotate(-90)">
     <text x="0" y="0" font-family="OCRA" fill="white" text-anchor="start" stroke="none" stroke-width="0" font-size="45">13</text>
    </g>
   </g>
   <g transform="translate(1263.5,73.95)">
    <g transform="rotate(-90)">
     <text x="0" y="0" font-family="OCRA" fill="white" text-anchor="end" stroke="none" stroke-width="0" font-size="45">20</text>
    </g>
   </g>
   <g transform="translate(1363.5,526.05)">
    <g transform="rotate(-90)">
     <text x="0" y="0" font-family="OCRA" fill="white" text-anchor="start" stroke="none" stroke-width="0" font-size="45">14</text>
    </g>
   </g>
   <g transform="translate(1363.5,73.95)">
    <g transform="rotate(-90)">
     <text x="0" y="0" font-family="OCRA" fill="white" text-anchor="end" stroke="none" stroke-width="0" font-size="45">19</text>
    </g>
   </g>
   <g transform="translate(1463.5,526.05)">
    <g transform="rotate(-90)">
     <text x="0" y="0" font-family="OCRA" fill="white" text-anchor="start" stroke="none" stroke-width="0" font-size="45">15</text>
    </g>
   </g>
   <g transform="translate(1463.5,73.95)">
    <g transform="rotate(-90)">
     <text x="0" y="0" font-family="OCRA" fill="white" text-anchor="end" stroke="none" stroke-width="0" font-size="45">18</text>
    </g>
   </g>
   <g transform="translate(1563.5,526.05)">
    <g transform="rotate(-90)">
     <text x="0" y="0" font-family="OCRA" fill="white" text-anchor="start" stroke="none" stroke-width="0" font-size="45">16</text>
    </g>
   </g>
   <g transform="translate(1563.5,73.95)">
    <g transform="rotate(-90)">
     <text x="0" y="0" font-family="OCRA" fill="white" text-anchor="end" stroke="none" stroke-width="0" font-size="45">17</text>
    </g>
   </g>
  </g>
  <g transform="translate(34.035,534.05)">
   <rect width="31.93" x="0" y="0" fill="#8D8C8C" height="31.9" id="connector0pad" stroke-width="0"/>
   <rect width="16.4442" x="7.79153" y="7.73544" fill="#8C8663" height="16.4152" stroke-width="0"/>
   <polygon fill="#B8AF82" points="0,31.9,7.79153,24.1368,7.79153,6.97162,0,0" stroke-width="0"/>
   <polygon fill="#80795B" points="24.2079,7.76321,7.90264,7.76321,0,0,31.93,0" stroke-width="0"/>
   <polygon fill="#5E5B43" points="24.2079,24.1368,24.2079,7.76321,31.93,0,31.93,31.9" stroke-width="0"/>
   <polygon fill="#9A916C" points="0,31.9,7.87486,24.1368,24.2079,24.1368,31.93,31.9" stroke-width="0"/>
  </g>
  <g transform="translate(34.035,34.05)">
   <rect width="31.93" x="0" y="0" fill="#8D8C8C" height="31.9" id="connector31pad" stroke-width="0"/>
   <rect width="16.4442" x="7.79153" y="7.73544" fill="#8C8663" height="16.4152" stroke-width="0"/>
   <polygon fill="#B8AF82" points="0,31.9,7.79153,24.1368,7.79153,6.97162,0,0" stroke-width="0"/>
   <polygon fill="#80795B" points="24.2079,7.76321,7.90264,7.76321,0,0,31.93,0" stroke-width="0"/>
   <polygon fill="#5E5B43" points="24.2079,24.1368,24.2079,7.76321,31.93,0,31.93,31.9" stroke-width="0"/>
   <polygon fill="#9A916C" points="0,31.9,7.87486,24.1368,24.2079,24.1368,31.93,31.9" stroke-width="0"/>
  </g>
  <g transform="translate(134.035,534.05)">
   <rect width="31.93" x="0" y="0" fill="#8D8C8C" height="31.9" id="connector1pad" stroke-width="0"/>
   <rect width="16.4442" x="7.79153" y="7.73544" fill="#8C8663" height="16.4152" stroke-width="0"/>
   <polygon fill="#B8AF82" points="0,31.9,7.79153,24.1368,7.79153,6.97162,0,0" stroke-width="0"/>
   <polygon fill="#80795B" points="24.2079,7.76321,7.90264,7.76321,0,0,31.93,0" stroke-width="0"/>
   <polygon fill="#5E5B43" points="24.2079,24.1368,24.2079,7.76321,31.93,0,31.93,31.9" stroke-width="0"/>
   <polygon fill="#9A916C" points="0,31.9,7.87486,24.1368,24.2079,24.1368,31.93,31.9" stroke-width="0"/>
  </g>
  <g transform="translate(134.035,34.05)">
   <rect width="31.93" x="0" y="0" fill="#8D8C8C" height="31.9" id="connector30pad" stroke-width="0"/>
   <rect width="16.4442" x="7.79153" y="7.73544" fill="#8C8663" height="16.4152" stroke-width="0"/>
   <polygon fill="#B8AF82" points="0,31.9,7.79153,24.1368,7.79153,6.97162,0,0" stroke-width="0"/>
   <polygon fill="#80795B" points="24.2079,7.76321,7.90264,7.76321,0,0,31.93,0" stroke-width="0"/>
   <polygon fill="#5E5B43" points="24.2079,24.1368,24.2079,7.76321,31.93,0,31.93,31.9" stroke-width="0"/>
   <polygon fill="#9A916C" points="0,31.9,7.87486,24.1368,24.2079,24.1368,31.93,31.9" stroke-width="0"/>
  </g>
  <g transform="translate(234.035,534.05)">
   <rect width="31.93" x="0" y="0" fill="#8D8C8C" height="31.9" id="connector2pad" stroke-width="0"/>
   <rect width="16.4442" x="7.79153" y="7.73544" fill="#8C8663" height="16.4152" stroke-width="0"/>
   <polygon fill="#B8AF82" points="0,31.9,7.79153,24.1368,7.79153,6.97162,0,0" stroke-width="0"/>
   <polygon fill="#80795B" points="24.2079,7.76321,7.90264,7.76321,0,0,31.93,0" stroke-width="0"/>
   <polygon fill="#5E5B43" points="24.2079,24.1368,24.2079,7.76321,31.93,0,31.93,31.9" stroke-width="0"/>
   <polygon fill="#9A916C" points="0,31.9,7.87486,24.1368,24.2079,24.1368,31.93,31.9" stroke-width="0"/>
  </g>
  <g transform="translate(234.035,34.05)">
   <rect width="31.93" x="0" y="0" fill="#8D8C8C" height="31.9" id="connector29pad" stroke-width="0"/>
   <rect width="16.4442" x="7.79153" y="7.73544" fill="#8C8663" height="16.4152" stroke-width="0"/>
   <polygon fill="#B8AF82" points="0,31.9,7.79153,24.1368,7.79153,6.97162,0,0" stroke-width="0"/>
   <polygon fill="#80795B" points="24.2079,7.76321,7.90264,7.76321,0,0,31.93,0" stroke-width="0"/>
   <polygon fill="#5E5B43" points="24.2079,24.1368,24.2079,7.76321,31.93,0,31.93,31.9" stroke-width="0"/>
   <polygon fill="#9A916C" points="0,31.9,7.87486,24.1368,24.2079,24.1368,31.93,31.9" stroke-width="0"/>
  </g>
  <g transform="translate(334.035,534.05)">
   <rect width="31.93" x="0" y="0" fill="#8D8C8C" height="31.9" id="connector3pad" stroke-width="0"/>
   <rect width="16.4442" x="7.79153" y="7.73544" fill="#8C8663" height="16.4152" stroke-width="0"/>
   <polygon fill="#B8AF82" points="0,31.9,7.79153,24.1368,7.79153,6.97162,0,0" stroke-width="0"/>
   <polygon fill="#80795B" points="24.2079,7.76321,7.90264,7.76321,0,0,31.93,0" stroke-width="0"/>
   <polygon fill="#5E5B43" points="24.2079,24.1368,24.2079,7.76321,31.93,0,31.93,31.9" stroke-width="0"/>
   <polygon fill="#9A916C" points="0,31.9,7.87486,24.1368,24.2079,24.1368,31.93,31.9" stroke-width="0"/>
  </g>
  <g transform="translate(334.035,34.05)">
   <rect width="31.93" x="0" y="0" fill="#8D8C8C" height="31.9" id="connector28pad" stroke-width="0"/>
   <rect width="16.4442" x="7.79153" y="7.73544" fill="#8C8663" height="16.4152" stroke-width="0"/>
   <polygon fill="#B8AF82" points="0,31.9,7.79153,24.1368,7.79153,6.97162,0,0" stroke-width="0"/>
   <polygon fill="#80795B" points="24.2079,7.76321,7.90264,7.76321,0,0,31.93,0" stroke-width="0"/>
   <polygon fill="#5E5B43" points="24.2079,24.1368,24.2079,7.76321,31.93,0,31.93,31.9" stroke-width="0"/>
   <polygon fill="#9A916C" points="0,31.9,7.87486,24.1368,24.2079,24.1368,31.93,31.9" stroke-width="0"/>
  </g>
  <g transform="translate(434.035,534.05)">
   <rect width="31.93" x="0" y="0" fill="#8D8C8C" height="31.9" id="connector4pad" stroke-width="0"/>
   <rect width="16.4442" x="7.79153" y="7.73544" fill="#8C8663" height="16.4152" stroke-width="0"/>
   <polygon fill="#B8AF82" points="0,31.9,7.79153,24.1368,7.79153,6.97162,0,0" stroke-width="0"/>
   <polygon fill="#80795B" points="24.2079,7.76321,7.90264,7.76321,0,0,31.93,0" stroke-width="0"/>
   <polygon fill="#5E5B43" points="24.2079,24.1368,24.2079,7.76321,31.93,0,31.93,31.9" stroke-width="0"/>
   <polygon fill="#9A916C" points="0,31.9,7.87486,24.1368,24.2079,24.1368,31.93,31.9" stroke-width="0"/>
  </g>
  <g transform="translate(434.035,34.05)">
   <rect width="31.93" x="0" y="0" fill="#8D8C8C" height="31.9" id="connector27pad" stroke-width="0"/>
   <rect width="16.4442" x="7.79153" y="7.73544" fill="#8C8663" height="16.4152" stroke-width="0"/>
   <polygon fill="#B8AF82" points="0,31.9,7.79153,24.1368,7.79153,6.97162,0,0" stroke-width="0"/>
   <polygon fill="#80795B" points="24.2079,7.76321,7.90264,7.76321,0,0,31.93,0" stroke-width="0"/>
   <polygon fill="#5E5B43" points="24.2079,24.1368,24.2079,7.76321,31.93,0,31.93,31.9" stroke-width="0"/>
   <polygon fill="#9A916C" points="0,31.9,7.87486,24.1368,24.2079,24.1368,31.93,31.9" stroke-width="0"/>
  </g>
  <g transform="translate(534.035,534.05)">
   <rect width="31.93" x="0" y="0" fill="#8D8C8C" height="31.9" id="connector5pad" stroke-width="0"/>
   <rect width="16.4442" x="7.79153" y="7.73544" fill="#8C8663" height="16.4152" stroke-width="0"/>
   <polygon fill="#B8AF82" points="0,31.9,7.79153,24.1368,7.79153,6.97162,0,0" stroke-width="0"/>
   <polygon fill="#80795B" points="24.2079,7.76321,7.90264,7.76321,0,0,31.93,0" stroke-width="0"/>
   <polygon fill="#5E5B43" points="24.2079,24.1368,24.2079,7.76321,31.93,0,31.93,31.9" stroke-width="0"/>
   <polygon fill="#9A916C" points="0,31.9,7.87486,24.1368,24.2079,24.1368,31.93,31.9" stroke-width="0"/>
  </g>
  <g transform="translate(534.035,34.05)">
   <rect width="31.93" x="0" y="0" fill="#8D8C8C" height="31.9" id="connector26pad" stroke-width="0"/>
   <rect width="16.4442" x="7.79153" y="7.73544" fill="#8C8663" height="16.4152" stroke-width="0"/>
   <polygon fill="#B8AF82" points="0,31.9,7.79153,24.1368,7.79153,6.97162,0,0" stroke-width="0"/>
   <polygon fill="#80795B" points="24.2079,7.76321,7.90264,7.76321,0,0,31.93,0" stroke-width="0"/>
   <polygon fill="#5E5B43" points="24.2079,24.1368,24.2079,7.76321,31.93,0,31.93,31.9" stroke-width="0"/>
   <polygon fill="#9A916C" points="0,31.9,7.87486,24.1368,24.2079,24.1368,31.93,31.9" stroke-width="0"/>
  </g>
  <g transform="translate(634.035,534.05)">
   <rect width="31.93" x="0" y="0" fill="#8D8C8C" height="31.9" id="connector6pad" stroke-width="0"/>
   <rect width="16.4442" x="7.79153" y="7.73544" fill="#8C8663" height="16.4152" stroke-width="0"/>
   <polygon fill="#B8AF82" points="0,31.9,7.79153,24.1368,7.79153,6.97162,0,0" stroke-width="0"/>
   <polygon fill="#80795B" points="24.2079,7.76321,7.90264,7.76321,0,0,31.93,0" stroke-width="0"/>
   <polygon fill="#5E5B43" points="24.2079,24.1368,24.2079,7.76321,31.93,0,31.93,31.9" stroke-width="0"/>
   <polygon fill="#9A916C" points="0,31.9,7.87486,24.1368,24.2079,24.1368,31.93,31.9" stroke-width="0"/>
  </g>
  <g transform="translate(634.035,34.05)">
   <rect width="31.93" x="0" y="0" fill="#8D8C8C" height="31.9" id="connector25pad" stroke-width="0"/>
   <rect width="16.4442" x="7.79153" y="7.73544" fill="#8C8663" height="16.4152" stroke-width="0"/>
   <polygon fill="#B8AF82" points="0,31.9,7.79153,24.1368,7.79153,6.97162,0,0" stroke-width="0"/>
   <polygon fill="#80795B" points="24.2079,7.76321,7.90264,7.76321,0,0,31.93,0" stroke-width="0"/>
   <polygon fill="#5E5B43" points="24.2079,24.1368,24.2079,7.76321,31.93,0,31.93,31.9" stroke-width="0"/>
   <polygon fill="#9A916C" points="0,31.9,7.87486,24.1368,24.2079,24.1368,31.93,31.9" stroke-width="0"/>
  </g>
  <g transform="translate(734.035,534.05)">
   <rect width="31.93" x="0" y="0" fill="#8D8C8C" height="31.9" id="connector7pad" stroke-width="0"/>
   <rect width="16.4442" x="7.79153" y="7.73544" fill="#8C8663" height="16.4152" stroke-width="0"/>
   <polygon fill="#B8AF82" points="0,31.9,7.79153,24.1368,7.79153,6.97162,0,0" stroke-width="0"/>
   <polygon fill="#80795B" points="24.2079,7.76321,7.90264,7.76321,0,0,31.93,0" stroke-width="0"/>
   <polygon fill="#5E5B43" points="24.2079,24.1368,24.2079,7.76321,31.93,0,31.93,31.9" stroke-width="0"/>
   <polygon fill="#9A916C" points="0,31.9,7.87486,24.1368,24.2079,24.1368,31.93,31.9" stroke-width="0"/>
  </g>
  <g transform="translate(734.035,34.05)">
   <rect width="31.93" x="0" y="0" fill="#8D8C8C" height="31.9" id="connector24pad" stroke-width="0"/>
   <rect width="16.4442" x="7.79153" y="7.73544" fill="#8C8663" height="16.4152" stroke-width="0"/>
   <polygon fill="#B8AF82" points="0,31.9,7.79153,24.1368,7.79153,6.97162,0,0" stroke-width="0"/>
   <polygon fill="#80795B" points="24.2079,7.76321,7.90264,7.76321,0,0,31.93,0" stroke-width="0"/>
   <polygon fill="#5E5B43" points="24.2079,24.1368,24.2079,7.76321,31.93,0,31.93,31.9" stroke-width="0"/>
   <polygon fill="#9A916C" points="0,31.9,7.87486,24.1368,24.2079,24.1368,31.93,31.9" stroke-width="0"/>
  </g>
  <g transform="translate(834.035,534.05)">
   <rect width="31.93" x="0" y="0" fill="#8D8C8C" height="31.9" id="connector8pad" stroke-width="0"/>
   <rect width="16.4442" x="7.79153" y="7.73544" fill="#8C8663" height="16.4152" stroke-width="0"/>
   <polygon fill="#B8AF82" points="0,31.9,7.79153,24.1368,7.79153,6.97162,0,0" stroke-width="0"/>
   <polygon fill="#80795B" points="24.2079,7.76321,7.90264,7.76321,0,0,31.93,0" stroke-width="0"/>
   <polygon fill="#5E5B43" points="24.2079,24.1368,24.2079,7.76321,31.93,0,31.93,31.9" stroke-width="0"/>
   <polygon fill="#9A916C" points="0,31.9,7.87486,24.1368,24.2079,24.1368,31.93,31.9" stroke-width="0"/>
  </g>
  <g transform="translate(834.035,34.05)">
   <rect width="31.93" x="0" y="0" fill="#8D8C8C" height="31.9" id="connector23pad" stroke-width="0"/>
   <rect width="16.4442" x="7.79153" y="7.73544" fill="#8C8663" height="16.4152" stroke-width="0"/>
   <polygon fill="#B8AF82" points="0,31.9,7.79153,24.1368,7.79153,6.97162,0,0" stroke-width="0"/>
   <polygon fill="#80795B" points="24.2079,7.76321,7.90264,7.76321,0,0,31.93,0" stroke-width="0"/>
   <polygon fill="#5E5B43" points="24.2079,24.1368,24.2079,7.76321,31.93,0,31.93,31.9" stroke-width="0"/>
   <polygon fill="#9A916C" points="0,31.9,7.87486,24.1368,24.2079,24.1368,31.93,31.9" stroke-width="0"/>
  </g>
  <g transform="translate(934.035,534.05)">
   <rect width="31.93" x="0" y="0" fill="#8D8C8C" height="31.9" id="connector9pad" stroke-width="0"/>
   <rect width="16.4442" x="7.79153" y="7.73544" fill="#8C8663" height="16.4152" stroke-width="0"/>
   <polygon fill="#B8AF82" points="0,31.9,7.79153,24.1368,7.79153,6.97162,0,0" stroke-width="0"/>
   <polygon fill="#80795B" points="24.2079,7.76321,7.90264,7.76321,0,0,31.93,0" stroke-width="0"/>
   <polygon fill="#5E5B43" points="24.2079,24.1368,24.2079,7.76321,31.93,0,31.93,31.9" stroke-width="0"/>
   <polygon fill="#9A916C" points="0,31.9,7.87486,24.1368,24.2079,24.1368,31.93,31.9" stroke-width="0"/>
  </g>
  <g transform="translate(934.035,34.05)">
   <rect width="31.93" x="0" y="0" fill="#8D8C8C" height="31.9" id="connector22pad" stroke-width="0"/>
   <rect width="16.4442" x="7.79153" y="7.73544" fill="#8C8663" height="16.4152" stroke-width="0"/>
   <polygon fill="#B8AF82" points="0,31.9,7.79153,24.1368,7.79153,6.97162,0,0" stroke-width="0"/>
   <polygon fill="#80795B" points="24.2079,7.76321,7.90264,7.76321,0,0,31.93,0" stroke-width="0"/>
   <polygon fill="#5E5B43" points="24.2079,24.1368,24.2079,7.76321,31.93,0,31.93,31.9" stroke-width="0"/>
   <polygon fill="#9A916C" points="0,31.9,7.87486,24.1368,24.2079,24.1368,31.93,31.9" stroke-width="0"/>
  </g>
  <g transform="translate(1034.04,534.05)">
   <rect width="31.93" x="0" y="0" fill="#8D8C8C" height="31.9" id="connector10pad" stroke-width="0"/>
   <rect width="16.4442" x="7.79153" y="7.73544" fill="#8C8663" height="16.4152" stroke-width="0"/>
   <polygon fill="#B8AF82" points="0,31.9,7.79153,24.1368,7.79153,6.97162,0,0" stroke-width="0"/>
   <polygon fill="#80795B" points="24.2079,7.76321,7.90264,7.76321,0,0,31.93,0" stroke-width="0"/>
   <polygon fill="#5E5B43" points="24.2079,24.1368,24.2079,7.76321,31.93,0,31.93,31.9" stroke-width="0"/>
   <polygon fill="#9A916C" points="0,31.9,7.87486,24.1368,24.2079,24.1368,31.93,31.9" stroke-width="0"/>
  </g>
  <g transform="translate(1034.04,34.05)">
   <rect width="31.93" x="0" y="0" fill="#8D8C8C" height="31.9" id="connector21pad" stroke-width="0"/>
   <rect width="16.4442" x="7.79153" y="7.73544" fill="#8C8663" height="16.4152" stroke-width="0"/>
   <polygon fill="#B8AF82" points="0,31.9,7.79153,24.1368,7.79153,6.97162,0,0" stroke-width="0"/>
   <polygon fill="#80795B" points="24.2079,7.76321,7.90264,7.76321,0,0,31.93,0" stroke-width="0"/>
   <polygon fill="#5E5B43" points="24.2079,24.1368,24.2079,7.76321,31.93,0,31.93,31.9" stroke-width="0"/>
   <polygon fill="#9A916C" points="0,31.9,7.87486,24.1368,24.2079,24.1368,31.93,31.9" stroke-width="0"/>
  </g>
  <g transform="translate(1134.04,534.05)">
   <rect width="31.93" x="0" y="0" fill="#8D8C8C" height="31.9" id="connector11pad" stroke-width="0"/>
   <rect width="16.4442" x="7.79153" y="7.73544" fill="#8C8663" height="16.4152" stroke-width="0"/>
   <polygon fill="#B8AF82" points="0,31.9,7.79153,24.1368,7.79153,6.97162,0,0" stroke-width="0"/>
   <polygon fill="#80795B" points="24.2079,7.76321,7.90264,7.76321,0,0,31.93,0" stroke-width="0"/>
   <polygon fill="#5E5B43" points="24.2079,24.1368,24.2079,7.76321,31.93,0,31.93,31.9" stroke-width="0"/>
   <polygon fill="#9A916C" points="0,31.9,7.87486,24.1368,24.2079,24.1368,31.93,31.9" stroke-width="0"/>
  </g>
  <g transform="translate(1134.04,34.05)">
   <rect width="31.93" x="0" y="0" fill="#8D8C8C" height="31.9" id="connector20pad" stroke-width="0"/>
   <rect width="16.4442" x="7.79153" y="7.73544" fill="#8C8663" height="16.4152" stroke-width="0"/>
   <polygon fill="#B8AF82" points="0,31.9,7.79153,24.1368,7.79153,6.97162,0,0" stroke-width="0"/>
   <polygon fill="#80795B" points="24.2079,7.76321,7.90264,7.76321,0,0,31.93,0" stroke-width="0"/>
   <polygon fill="#5E5B43" points="24.2079,24.1368,24.2079,7.76321,31.93,0,31.93,31.9" stroke-width="0"/>
   <polygon fill="#9A916C" points="0,31.9,7.87486,24.1368,24.2079,24.1368,31.93,31.9" stroke-width="0"/>
  </g>
  <g transform="translate(1234.04,534.05)">
   <rect width="31.93" x="0" y="0" fill="#8D8C8C" height="31.9" id="connector12pad" stroke-width="0"/>
   <rect width="16.4442" x="7.79153" y="7.73544" fill="#8C8663" height="16.4152" stroke-width="0"/>
   <polygon fill="#B8AF82" points="0,31.9,7.79153,24.1368,7.79153,6.97162,0,0" stroke-width="0"/>
   <polygon fill="#80795B" points="24.2079,7.76321,7.90264,7.76321,0,0,31.93,0" stroke-width="0"/>
   <polygon fill="#5E5B43" points="24.2079,24.1368,24.2079,7.76321,31.93,0,31.93,31.9" stroke-width="0"/>
   <polygon fill="#9A916C" points="0,31.9,7.87486,24.1368,24.2079,24.1368,31.93,31.9" stroke-width="0"/>
  </g>
  <g transform="translate(1234.04,34.05)">
   <rect width="31.93" x="0" y="0" fill="#8D8C8C" height="31.9" id="connector19pad" stroke-width="0"/>
   <rect width="16.4442" x="7.79153" y="7.73544" fill="#8C8663" height="16.4152" stroke-width="0"/>
   <polygon fill="#B8AF82" points="0,31.9,7.79153,24.1368,7.79153,6.97162,0,0" stroke-width="0"/>
   <polygon fill="#80795B" points="24.2079,7.76321,7.90264,7.76321,0,0,31.93,0" stroke-width="0"/>
   <polygon fill="#5E5B43" points="24.2079,24.1368,24.2079,7.76321,31.93,0,31.93,31.9" stroke-width="0"/>
   <polygon fill="#9A916C" points="0,31.9,7.87486,24.1368,24.2079,24.1368,31.93,31.9" stroke-width="0"/>
  </g>
  <g transform="translate(1334.04,534.05)">
   <rect width="31.93" x="0" y="0" fill="#8D8C8C" height="31.9" id="connector13pad" stroke-width="0"/>
   <rect width="16.4442" x="7.79153" y="7.73544" fill="#8C8663" height="16.4152" stroke-width="0"/>
   <polygon fill="#B8AF82" points="0,31.9,7.79153,24.1368,7.79153,6.97162,0,0" stroke-width="0"/>
   <polygon fill="#80795B" points="24.2079,7.76321,7.90264,7.76321,0,0,31.93,0" stroke-width="0"/>
   <polygon fill="#5E5B43" points="24.2079,24.1368,24.2079,7.76321,31.93,0,31.93,31.9" stroke-width="0"/>
   <polygon fill="#9A916C" points="0,31.9,7.87486,24.1368,24.2079,24.1368,31.93,31.9" stroke-width="0"/>
  </g>
  <g transform="translate(1334.04,34.05)">
   <rect width="31.93" x="0" y="0" fill="#8D8C8C" height="31.9" id="connector18pad" stroke-width="0"/>
   <rect width="16.4442" x="7.79153" y="7.73544" fill="#8C8663" height="16.4152" stroke-width="0"/>
   <polygon fill="#B8AF82" points="0,31.9,7.79153,24.1368,7.79153,6.97162,0,0" stroke-width="0"/>
   <polygon fill="#80795B" points="24.2079,7.76321,7.90264,7.76321,0,0,31.93,0" stroke-width="0"/>
   <polygon fill="#5E5B43" points="24.2079,24.1368,24.2079,7.76321,31.93,0,31.93,31.9" stroke-width="0"/>
   <polygon fill="#9A916C" points="0,31.9,7.87486,24.1368,24.2079,24.1368,31.93,31.9" stroke-width="0"/>
  </g>
  <g transform="translate(1434.04,534.05)">
   <rect width="31.93" x="0" y="0" fill="#8D8C8C" height="31.9" id="connector14pad" stroke-width="0"/>
   <rect width="16.4442" x="7.79153" y="7.73544" fill="#8C8663" height="16.4152" stroke-width="0"/>
   <polygon fill="#B8AF82" points="0,31.9,7.79153,24.1368,7.79153,6.97162,0,0" stroke-width="0"/>
   <polygon fill="#80795B" points="24.2079,7.76321,7.90264,7.76321,0,0,31.93,0" stroke-width="0"/>
   <polygon fill="#5E5B43" points="24.2079,24.1368,24.2079,7.76321,31.93,0,31.93,31.9" stroke-width="0"/>
   <polygon fill="#9A916C" points="0,31.9,7.87486,24.1368,24.2079,24.1368,31.93,31.9" stroke-width="0"/>
  </g>
  <g transform="translate(1434.04,34.05)">
   <rect width="31.93" x="0" y="0" fill="#8D8C8C" height="31.9" id="connector17pad" stroke-width="0"/>
   <rect width="16.4442" x="7.79153" y="7.73544" fill="#8C8663" height="16.4152" stroke-width="0"/>
   <polygon fill="#B8AF82" points="0,31.9,7.79153,24.1368,7.79153,6.97162,0,0" stroke-width="0"/>
   <polygon fill="#80795B" points="24.2079,7.76321,7.90264,7.76321,0,0,31.93,0" stroke-width="0"/>
   <polygon fill="#5E5B43" points="24.2079,24.1368,24.2079,7.76321,31.93,0,31.93,31.9" stroke-width="0"/>
   <polygon fill="#9A916C" points="0,31.9,7.87486,24.1368,24.2079,24.1368,31.93,31.9" stroke-width="0"/>
  </g>
  <g transform="translate(1534.04,534.05)">
   <rect width="31.93" x="0" y="0" fill="#8D8C8C" height="31.9" id="connector15pad" stroke-width="0"/>
   <rect width="16.4442" x="7.79153" y="7.73544" fill="#8C8663" height="16.4152" stroke-width="0"/>
   <polygon fill="#B8AF82" points="0,31.9,7.79153,24.1368,7.79153,6.97162,0,0" stroke-width="0"/>
   <polygon fill="#80795B" points="24.2079,7.76321,7.90264,7.76321,0,0,31.93,0" stroke-width="0"/>
   <polygon fill="#5E5B43" points="24.2079,24.1368,24.2079,7.76321,31.93,0,31.93,31.9" stroke-width="0"/>
   <polygon fill="#9A916C" points="0,31.9,7.87486,24.1368,24.2079,24.1368,31.93,31.9" stroke-width="0"/>
  </g>
  <g transform="translate(1534.04,34.05)">
   <rect width="31.93" x="0" y="0" fill="#8D8C8C" height="31.9" id="connector16pad" stroke-width="0"/>
   <rect width="16.4442" x="7.79153" y="7.73544" fill="#8C8663" height="16.4152" stroke-width="0"/>
   <polygon fill="#B8AF82" points="0,31.9,7.79153,24.1368,7.79153,6.97162,0,0" stroke-width="0"/>
   <polygon fill="#80795B" points="24.2079,7.76321,7.90264,7.76321,0,0,31.93,0" stroke-width="0"/>
   <polygon fill="#5E5B43" points="24.2079,24.1368,24.2079,7.76321,31.93,0,31.93,31.9" stroke-width="0"/>
   <polygon fill="#9A916C" points="0,31.9,7.87486,24.1368,24.2079,24.1368,31.93,31.9" stroke-width="0"/>
  </g>
 </g>
</svg>
