<?xml version="1.0" encoding="utf-8"?>
<!-- Generator: Adobe Illustrator 13.0.0, SVG Export Plug-In . SVG Version: 6.00 Build 14948)  -->
<svg version="1.2" baseProfile="tiny" id="Layer_1" xmlns="http://www.w3.org/2000/svg" xmlns:xlink="http://www.w3.org/1999/xlink"
	 x="0px" y="0px" width="174.3px" height="258.375px" viewBox="0 0 174.3 258.375" xml:space="preserve">
<g id="schematic">
<rect id="connector0pin" x="1.15" y="59.226" fill="none" width="10" height="2"/>
<rect id="connector1pin" x="1.15" y="85.226" fill="none" width="10" height="2"/>
<rect id="connector2pin" x="1.15" y="111.226" fill="none" width="10" height="2"/>
<rect id="connector3pin" x="1.15" y="137.227" fill="none" width="10" height="2"/>
<rect id="connector4pin" x="1.15" y="163.227" fill="none" width="10" height="2"/>
<rect id="connector5pin" x="1.15" y="189.227" fill="none" width="10" height="2"/>
<rect id="connector6pin" x="1.15" y="215.227" fill="none" width="10" height="2"/>
<rect id="connector7pin" x="1.15" y="241.227" fill="none" width="10" height="2"/>
<rect id="connector8pin" x="163.15" y="241.227" fill="none" width="10" height="2"/>
<rect id="connector9pin" x="163.15" y="215.227" fill="none" width="10" height="2"/>
<rect id="connector10pin" x="163.15" y="189.227" fill="none" width="10" height="2"/>
<rect id="connector11pin" x="163.15" y="163.227" fill="none" width="10" height="2"/>
<rect id="connector12pin" x="163.15" y="137.227" fill="none" width="10" height="2"/>
<rect id="connector13pin" x="163.15" y="111.226" fill="none" width="10" height="2"/>
<rect id="connector14pin" x="163.15" y="85.226" fill="none" width="10" height="2"/>
<rect id="connector15pin" x="163.15" y="59.226" fill="none" width="10" height="2"/>
<rect id="connector0terminal" x="1.15" y="59.226" fill="none" width="2" height="2"/>
<rect id="connector1terminal" x="1.15" y="85.226" fill="none" width="2" height="2"/>
<rect id="connector2terminal" x="1.15" y="111.226" fill="none" width="2" height="2"/>
<rect id="connector3terminal" x="1.15" y="137.227" fill="none" width="2" height="2"/>
<rect id="connector4terminal" x="1.15" y="163.227" fill="none" width="2" height="2"/>
<rect id="connector5terminal" x="1.15" y="189.227" fill="none" width="2" height="2"/>
<rect id="connector6terminal" x="1.15" y="215.227" fill="none" width="2" height="2"/>
<rect id="connector7terminal" x="1.15" y="241.227" fill="none" width="2" height="2"/>
<rect id="connector8terminal" x="171.15" y="241.227" fill="none" width="2" height="2"/>
<rect id="connector9terminal" x="171.15" y="215.227" fill="none" width="2" height="2"/>
<rect id="connector10terminal" x="171.15" y="189.227" fill="none" width="2" height="2"/>
<rect id="connector11terminal" x="171.15" y="163.227" fill="none" width="2" height="2"/>
<rect id="connector12terminal" x="171.15" y="137.227" fill="none" width="2" height="2"/>
<rect id="connector13terminal" x="171.15" y="111.226" fill="none" width="2" height="2"/>
<rect id="connector14terminal" x="171.15" y="85.226" fill="none" width="2" height="2"/>
<rect id="connector15terminal" x="171.15" y="59.226" fill="none" width="2" height="2"/>
	
		<rect id="box" x="32.15" y="45.226" fill="none" stroke="#000000" stroke-width="2.3" stroke-linecap="round" stroke-linejoin="round" width="110" height="212"/>
	
		<line fill="none" stroke="#000000" stroke-width="2.3" stroke-linecap="round" stroke-linejoin="round" x1="1.15" y1="60.226" x2="32.15" y2="60.226"/>
	
		<line fill="none" stroke="#000000" stroke-width="2.3" stroke-linecap="round" stroke-linejoin="round" x1="1.15" y1="86.226" x2="32.15" y2="86.226"/>
	
		<line fill="none" stroke="#000000" stroke-width="2.3" stroke-linecap="round" stroke-linejoin="round" x1="1.15" y1="112.226" x2="32.15" y2="112.226"/>
	
		<line fill="none" stroke="#000000" stroke-width="2.3" stroke-linecap="round" stroke-linejoin="round" x1="1.15" y1="138.227" x2="32.15" y2="138.227"/>
	
		<line fill="none" stroke="#000000" stroke-width="2.3" stroke-linecap="round" stroke-linejoin="round" x1="1.15" y1="164.227" x2="32.15" y2="164.227"/>
	
		<line fill="none" stroke="#000000" stroke-width="2.3" stroke-linecap="round" stroke-linejoin="round" x1="1.15" y1="190.227" x2="32.15" y2="190.227"/>
	
		<line fill="none" stroke="#000000" stroke-width="2.3" stroke-linecap="round" stroke-linejoin="round" x1="1.15" y1="216.227" x2="32.15" y2="216.227"/>
	
		<line fill="none" stroke="#000000" stroke-width="2.3" stroke-linecap="round" stroke-linejoin="round" x1="1.15" y1="242.227" x2="32.15" y2="242.227"/>
	
		<line fill="none" stroke="#000000" stroke-width="2.3" stroke-linecap="round" stroke-linejoin="round" x1="142.15" y1="242.227" x2="173.15" y2="242.227"/>
	
		<line fill="none" stroke="#000000" stroke-width="2.3" stroke-linecap="round" stroke-linejoin="round" x1="142.15" y1="216.227" x2="173.15" y2="216.227"/>
	
		<line fill="none" stroke="#000000" stroke-width="2.3" stroke-linecap="round" stroke-linejoin="round" x1="142.15" y1="190.227" x2="173.15" y2="190.227"/>
	
		<line fill="none" stroke="#000000" stroke-width="2.3" stroke-linecap="round" stroke-linejoin="round" x1="142.15" y1="164.227" x2="173.15" y2="164.227"/>
	
		<line fill="none" stroke="#000000" stroke-width="2.3" stroke-linecap="round" stroke-linejoin="round" x1="142.15" y1="138.227" x2="173.15" y2="138.227"/>
	
		<line fill="none" stroke="#000000" stroke-width="2.3" stroke-linecap="round" stroke-linejoin="round" x1="142.15" y1="112.226" x2="173.15" y2="112.226"/>
	
		<line fill="none" stroke="#000000" stroke-width="2.3" stroke-linecap="round" stroke-linejoin="round" x1="142.15" y1="86.226" x2="173.15" y2="86.226"/>
	
		<line fill="none" stroke="#000000" stroke-width="2.3" stroke-linecap="round" stroke-linejoin="round" x1="142.15" y1="60.226" x2="173.15" y2="60.226"/>
	<text transform="matrix(1 0 0 1 26.0903 15.0771)" font-family="DroidSans" font-weight="bold" font-size="18">Quadruple half</text>
	<text transform="matrix(1 0 0 1 50.6865 36.6758)" font-family="DroidSans" font-weight="bold" font-size="18">H-bridge</text>
	<g id="numbersOnPins">
		<text transform="matrix(1 0 0 1 21.4004 57.0771)" font-family="DroidSans" font-size="12">1</text>
		<text transform="matrix(1 0 0 1 21.4004 83.0771)" font-family="DroidSans" font-size="12">2</text>
		<text transform="matrix(1 0 0 1 21.4004 109.0771)" font-family="DroidSans" font-size="12">3</text>
		<text transform="matrix(1 0 0 1 21.4004 135.0771)" font-family="DroidSans" font-size="12">4</text>
		<text transform="matrix(1 0 0 1 21.4004 161.0771)" font-family="DroidSans" font-size="12">5</text>
		<text transform="matrix(1 0 0 1 21.4004 187.0771)" font-family="DroidSans" font-size="12">6</text>
		<text transform="matrix(1 0 0 1 21.4004 213.0771)" font-family="DroidSans" font-size="12">7</text>
		<text transform="matrix(1 0 0 1 21.4004 239.0771)" font-family="DroidSans" font-size="12">8</text>
		<text transform="matrix(1 0 0 1 145.9995 239.0771)" font-family="DroidSans" font-size="12">9</text>
		<text transform="matrix(1 0 0 1 145.9995 213.0771)" font-family="DroidSans" font-size="12">10</text>
		<text transform="matrix(1 0 0 1 145.9995 187.0771)" font-family="DroidSans" font-size="12">11</text>
		<text transform="matrix(1 0 0 1 145.9995 161.0771)" font-family="DroidSans" font-size="12">12</text>
		<text transform="matrix(1 0 0 1 145.9995 135.0771)" font-family="DroidSans" font-size="12">13</text>
		<text transform="matrix(1 0 0 1 145.9995 109.0771)" font-family="DroidSans" font-size="12">14</text>
		<text transform="matrix(1 0 0 1 145.9995 83.0771)" font-family="DroidSans" font-size="12">15</text>
		<text transform="matrix(1 0 0 1 145.9995 57.0771)" font-family="DroidSans" font-size="12">16</text>
	</g>
	<g id="textOnPins">
		<g id="numbersOnPins_1_">
			<text transform="matrix(1 0 0 1 36.4004 63.0771)" font-family="DroidSans" font-size="12">1,2EN</text>
			<text transform="matrix(1 0 0 1 36.4004 89.0771)" font-family="DroidSans" font-size="12">1A</text>
			<text transform="matrix(1 0 0 1 36.4004 115.0771)" font-family="DroidSans" font-size="12">1Y</text>
			<text transform="matrix(1 0 0 1 58.6787 147.0771)" font-family="DroidSans" font-size="12">HEATSINK</text>
			<text transform="matrix(1 0 0 1 47.5786 161.4775)" font-family="DroidSans" font-size="12">AND GROUND</text>
			<text transform="matrix(1 0 0 1 36.4004 193.0771)" font-family="DroidSans" font-size="12">2Y</text>
			<text transform="matrix(1 0 0 1 36.4004 219.0771)" font-family="DroidSans" font-size="12">2A</text>
			<text transform="matrix(1 0 0 1 36.4004 245.0771)" font-family="DroidSans" font-size="12">V</text>
			<text transform="matrix(1 0 0 1 43.8164 248.0771)" font-family="DroidSans" font-size="10">CC2</text>
			<text transform="matrix(1 0 0 1 106.5679 245.0771)" font-family="DroidSans" font-size="12">3,4EN</text>
			<text transform="matrix(1 0 0 1 123.021 219.0771)" font-family="DroidSans" font-size="12">3A</text>
			<text transform="matrix(1 0 0 1 123.9565 193.0771)" font-family="DroidSans" font-size="12">3Y</text>
			<text transform="matrix(1 0 0 1 123.9565 115.0771)" font-family="DroidSans" font-size="12">4Y</text>
			<text transform="matrix(1 0 0 1 123.021 89.0771)" font-family="DroidSans" font-size="12">4A</text>
			<text transform="matrix(1 0 0 1 112.4243 63.0771)" font-family="DroidSans" font-size="12">V</text>
			<text transform="matrix(1 0 0 1 119.8403 65.0771)" font-family="DroidSans" font-size="10">CC1</text>
		</g>
		<polyline fill="none" stroke="#000000" points="36.65,138.227 39.65,138.227 43.9,151.227 39.65,164.227 36.65,164.227 		"/>
		<polyline fill="none" stroke="#000000" points="137.9,164.227 134.9,164.227 130.65,151.227 134.9,138.227 137.9,138.227 		"/>
	</g>
</g>
</svg>
