<?xml version="1.0" encoding="UTF-8" standalone="no"?>
<!-- Created with Inkscape (http://www.inkscape.org/) -->
<svg
   xmlns:dc="http://purl.org/dc/elements/1.1/"
   xmlns:cc="http://creativecommons.org/ns#"
   xmlns:rdf="http://www.w3.org/1999/02/22-rdf-syntax-ns#"
   xmlns:svg="http://www.w3.org/2000/svg"
   xmlns="http://www.w3.org/2000/svg"
   xmlns:sodipodi="http://sodipodi.sourceforge.net/DTD/sodipodi-0.dtd"
   xmlns:inkscape="http://www.inkscape.org/namespaces/inkscape"
   version="1.0"
   width="174.29999"
   height="208.29999"
   id="Layer_1"
   sodipodi:version="0.32"
   inkscape:version="0.46"
   sodipodi:docname="lm358_schematic.svg"
   inkscape:output_extension="org.inkscape.output.svg.inkscape">
  <metadata
     id="metadata41">
    <rdf:RDF>
      <cc:Work
         rdf:about="">
        <dc:format>image/svg+xml</dc:format>
        <dc:type
           rdf:resource="http://purl.org/dc/dcmitype/StillImage" />
      </cc:Work>
    </rdf:RDF>
  </metadata>
  <sodipodi:namedview
     inkscape:window-height="726"
     inkscape:window-width="645"
     inkscape:pageshadow="2"
     inkscape:pageopacity="0.0"
     guidetolerance="10.0"
     gridtolerance="10.0"
     objecttolerance="10.0"
     borderopacity="1.0"
     bordercolor="#666666"
     pagecolor="#ffffff"
     id="base"
     showgrid="false"
     inkscape:zoom="2.3715796"
     inkscape:cx="87.149994"
     inkscape:cy="104.14999"
     inkscape:window-x="1330"
     inkscape:window-y="0"
     inkscape:current-layer="Layer_1" />
  <defs
     id="defs2824">
    <inkscape:perspective
       sodipodi:type="inkscape:persp3d"
       inkscape:vp_x="0 : 104.14999 : 1"
       inkscape:vp_y="0 : 1000 : 0"
       inkscape:vp_z="174.29999 : 104.14999 : 1"
       inkscape:persp3d-origin="87.149994 : 69.433329 : 1"
       id="perspective43" />
  </defs>
  <g
     id="schematic">
    <path
       style="font-size:8px;font-style:normal;font-variant:normal;font-weight:bold;font-stretch:normal;fill:#000000;fill-opacity:1;stroke:none;stroke-width:1px;stroke-linecap:butt;stroke-linejoin:miter;stroke-opacity:1;font-family:DroidSans;-inkscape-font-specification:DroidSans"
       d="M 33.699812,23.014534 C 33.753144,23.01454 33.801144,23.019873 33.843812,23.030534 C 33.918477,23.051873 33.985143,23.089207 34.043812,23.142534 C 34.134477,23.211873 34.19581,23.30254 34.227812,23.414534 C 34.233143,23.43054 34.23581,23.449206 34.235812,23.470534 C 34.241143,23.523873 34.24381,24.337205 34.243812,25.910534 L 34.243812,28.166534 L 35.419812,28.166534 C 36.289141,28.166535 36.745141,28.169202 36.787812,28.174534 C 36.798474,28.174535 36.806474,28.174535 36.811812,28.174534 C 36.939807,28.201201 37.043807,28.265201 37.123812,28.366534 C 37.20914,28.467868 37.251807,28.585201 37.251812,28.718534 C 37.251807,28.846534 37.20914,28.961201 37.123812,29.062534 C 37.043807,29.158534 36.939807,29.219867 36.811812,29.246534 C 36.801141,29.246534 36.793141,29.246534 36.787812,29.246534 C 36.734474,29.251867 36.150475,29.254534 35.035812,29.254534 L 33.163812,29.254534 L 33.163812,26.310534 C 33.163811,26.18787 33.163811,26.022537 33.163812,25.814534 C 33.163811,25.601204 33.163811,25.454538 33.163812,25.374534 C 33.163811,24.163872 33.166478,23.523873 33.171812,23.454534 C 33.177144,23.427873 33.185144,23.401206 33.195812,23.374534 L 33.195812,23.366534 C 33.195811,23.36654 33.195811,23.369206 33.195812,23.374534 C 33.222477,23.31054 33.249144,23.26254 33.275812,23.230534 C 33.297144,23.209206 33.313144,23.193206 33.323812,23.182534 C 33.366477,23.139873 33.403811,23.107873 33.435812,23.086534 C 33.457144,23.075873 33.478477,23.065207 33.499812,23.054534 C 33.531811,23.043873 33.566477,23.035873 33.603812,23.030534 C 33.630477,23.019873 33.662477,23.01454 33.699812,23.014534 M 38.882562,25.958534 L 38.882562,23.014534 L 40.082562,23.014534 L 40.930562,24.222534 L 41.770562,23.014534 L 42.978562,23.014534 L 42.978562,25.974534 C 42.978557,25.974537 42.97589,26.915869 42.970562,28.798534 C 42.970557,28.819868 42.96789,28.838534 42.962562,28.854534 C 42.914557,29.014534 42.818557,29.129201 42.674562,29.198534 C 42.594557,29.235867 42.514557,29.254534 42.434562,29.254534 C 42.370557,29.254534 42.309224,29.243867 42.250562,29.222534 C 42.223891,29.211867 42.202558,29.2012 42.186562,29.190534 C 42.165224,29.179867 42.143891,29.166534 42.122562,29.150534 C 42.106558,29.139867 42.087891,29.123867 42.066562,29.102534 C 41.991891,29.033201 41.938558,28.947867 41.906562,28.846534 C 41.901225,28.830534 41.898558,28.811868 41.898562,28.790534 C 41.893225,28.737201 41.890558,27.974535 41.890562,26.502534 L 41.890562,24.742534 L 41.466562,25.342534 L 41.466562,25.406534 C 41.466558,25.513204 41.461225,25.585204 41.450562,25.622534 C 41.445225,25.649204 41.437225,25.675871 41.426562,25.702534 C 41.415892,25.723871 41.405225,25.745204 41.394562,25.766534 C 41.351892,25.835871 41.293225,25.894537 41.218562,25.942534 C 41.133225,26.001204 41.034559,26.030537 40.922562,26.030534 C 40.901226,26.030537 40.879892,26.030537 40.858562,26.030534 C 40.783892,26.01987 40.714559,25.99587 40.650562,25.958534 C 40.538559,25.894537 40.461226,25.806537 40.418562,25.694534 C 40.402559,25.641204 40.391893,25.595871 40.386562,25.558534 C 40.386559,25.537204 40.386559,25.491871 40.386562,25.422534 L 40.378562,25.342534 L 39.970562,24.750534 L 39.962562,26.510534 C 39.96256,27.993202 39.959893,28.755868 39.954562,28.798534 C 39.95456,28.819868 39.951893,28.838534 39.946562,28.854534 C 39.89856,29.014534 39.80256,29.129201 39.658562,29.198534 C 39.583894,29.235867 39.50656,29.254534 39.426562,29.254534 C 39.357227,29.254534 39.295894,29.243867 39.242562,29.222534 C 39.178561,29.195867 39.127894,29.169201 39.090562,29.142534 C 39.074561,29.126534 39.058561,29.110534 39.042562,29.094534 C 39.021227,29.067867 39.005227,29.049201 38.994562,29.038534 C 38.962561,29.001201 38.935894,28.955867 38.914562,28.902534 C 38.903894,28.875867 38.895894,28.846534 38.890562,28.814534 C 38.885228,28.745201 38.882561,28.105202 38.882562,26.894534 C 38.882561,26.814536 38.882561,26.670536 38.882562,26.462534 C 38.882561,26.254537 38.882561,26.086537 38.882562,25.958534 M 52.184062,23.014534 C 52.258726,23.01454 52.360059,23.01454 52.488062,23.014534 C 52.616059,23.01454 52.709392,23.01454 52.768062,23.014534 C 53.296058,23.01454 53.586724,23.019873 53.640062,23.030534 C 53.650724,23.03054 53.661391,23.033207 53.672062,23.038534 C 53.677391,23.03854 53.693391,23.041207 53.720062,23.046534 C 53.901391,23.09454 54.05339,23.187873 54.176062,23.326534 C 54.304057,23.465206 54.38139,23.630539 54.408062,23.822534 C 54.41339,23.865206 54.416057,24.142539 54.416062,24.654534 C 54.416057,25.171871 54.41339,25.457204 54.408062,25.510534 C 54.38139,25.739871 54.30139,25.94787 54.168062,26.134534 C 54.23739,26.23587 54.29339,26.342537 54.336062,26.454534 C 54.362724,26.52387 54.384057,26.60387 54.400062,26.694534 L 54.416062,26.774534 L 54.416062,28.438534 L 54.400062,28.510534 C 54.362724,28.665201 54.298724,28.798534 54.208062,28.910534 C 54.048057,29.107867 53.842724,29.219867 53.592062,29.246534 C 53.560058,29.251867 53.282725,29.254534 52.760062,29.254534 C 52.600059,29.254534 52.400059,29.254534 52.160062,29.254534 L 50.768062,29.254534 L 50.712062,29.230534 C 50.573394,29.187867 50.472061,29.118534 50.408062,29.022534 C 50.349394,28.921201 50.320061,28.819868 50.320062,28.718534 C 50.320061,28.611868 50.349394,28.507868 50.408062,28.406534 C 50.472061,28.305201 50.573394,28.233201 50.712062,28.190534 L 50.768062,28.174534 L 53.328062,28.166534 L 53.328062,27.582534 C 53.328058,27.097203 53.325391,26.846536 53.320062,26.830534 L 53.304062,26.806534 C 53.282725,26.758536 53.248058,26.72387 53.200062,26.702534 L 53.176062,26.686534 C 53.144058,26.681203 52.872058,26.678536 52.360062,26.678534 C 51.821393,26.673203 51.52806,26.66787 51.480062,26.662534 C 51.453393,26.657203 51.426726,26.646536 51.400062,26.630534 C 51.394726,26.630536 51.389393,26.630536 51.384062,26.630534 C 51.378726,26.625203 51.37606,26.622536 51.376062,26.622534 C 51.23206,26.553203 51.13606,26.441203 51.088062,26.286534 C 51.077393,26.249203 51.07206,26.21187 51.072062,26.174534 C 51.07206,26.158537 51.07206,26.145204 51.072062,26.134534 C 51.07206,26.07587 51.074727,26.03587 51.080062,26.014534 C 51.085393,26.00387 51.08806,25.993204 51.088062,25.982534 C 51.13606,25.827871 51.23206,25.715871 51.376062,25.646534 L 51.400062,25.638534 C 51.426726,25.622537 51.453393,25.611871 51.480062,25.606534 C 51.52806,25.595871 51.821393,25.590537 52.360062,25.590534 L 53.144062,25.590534 L 53.160062,25.582534 C 53.240058,25.555871 53.293391,25.502538 53.320062,25.422534 C 53.325391,25.395871 53.328058,25.150538 53.328062,24.686534 L 53.328062,24.102534 L 50.768062,24.102534 L 50.712062,24.078534 C 50.546727,24.030539 50.432061,23.931872 50.368062,23.782534 C 50.336061,23.713206 50.320061,23.638539 50.320062,23.558534 C 50.320061,23.47854 50.336061,23.403873 50.368062,23.334534 C 50.442727,23.15854 50.578727,23.05454 50.776062,23.022534 C 50.797394,23.017207 51.266727,23.01454 52.184062,23.014534 M 56.790812,26.678534 L 56.790812,23.014534 L 58.286812,23.014534 C 59.161474,23.01454 59.620141,23.017207 59.662812,23.022534 C 59.673474,23.02254 59.681474,23.02254 59.686812,23.022534 C 59.814807,23.049207 59.918807,23.113207 59.998812,23.214534 C 60.08414,23.315873 60.126807,23.433206 60.126812,23.566534 C 60.126807,23.694539 60.08414,23.809206 59.998812,23.910534 C 59.918807,24.006539 59.814807,24.067872 59.686812,24.094534 C 59.654807,24.099872 59.316141,24.102539 58.670812,24.102534 L 57.870812,24.102534 L 57.870812,25.590534 L 58.486812,25.590534 L 58.542812,25.590534 C 59.060141,25.590537 59.358808,25.601204 59.438812,25.622534 C 59.625474,25.670537 59.78014,25.766537 59.902812,25.910534 C 60.030807,26.054537 60.105473,26.222537 60.126812,26.414534 C 60.13214,26.446537 60.134807,26.638536 60.134812,26.990534 C 60.134807,27.118536 60.134807,27.273202 60.134812,27.454534 L 60.134812,28.446534 L 60.118812,28.510534 C 60.081474,28.665201 60.017474,28.798534 59.926812,28.910534 C 59.793474,29.070534 59.630807,29.174534 59.438812,29.222534 C 59.358808,29.243867 59.030808,29.254534 58.454812,29.254534 L 58.342812,29.254534 C 57.718809,29.254534 57.380143,29.251867 57.326812,29.246534 C 57.236143,29.235867 57.153476,29.2172 57.078812,29.190534 C 57.057477,29.179867 56.929477,29.126534 56.694812,29.030534 C 56.465477,28.934534 56.332144,28.875867 56.294812,28.854534 C 56.204144,28.801201 56.134811,28.721201 56.086812,28.614534 C 56.054811,28.545201 56.038811,28.470535 56.038812,28.390534 C 56.038811,28.305201 56.057478,28.225201 56.094812,28.150534 C 56.137477,28.054535 56.201477,27.979868 56.286812,27.926534 C 56.377477,27.873202 56.473477,27.846535 56.574812,27.846534 C 56.633477,27.846535 56.689477,27.857202 56.742812,27.878534 C 56.769477,27.883868 56.892143,27.931868 57.110812,28.022534 C 57.31881,28.113202 57.42281,28.158535 57.422812,28.158534 C 57.449476,28.163868 57.745476,28.166535 58.310812,28.166534 L 59.046812,28.166534 L 59.046812,26.678534 L 56.790812,26.678534 M 63.493562,23.014534 C 63.546892,23.01454 63.653559,23.01454 63.813562,23.014534 C 64.346892,23.019873 64.637558,23.025207 64.685562,23.030534 C 64.712225,23.035873 64.738891,23.04654 64.765562,23.062534 C 64.770891,23.06254 64.776225,23.065207 64.781562,23.070534 C 64.786891,23.07054 64.789558,23.07054 64.789562,23.070534 C 64.901558,23.123873 64.984224,23.20654 65.037562,23.318534 L 65.045562,23.334534 C 65.061558,23.361206 65.072224,23.393206 65.077562,23.430534 C 65.088224,23.47854 65.093558,23.875872 65.093562,24.622534 L 65.093562,25.606534 C 65.114891,25.611871 65.136224,25.617204 65.157562,25.622534 C 65.322891,25.665204 65.466891,25.747871 65.589562,25.870534 C 65.712224,25.993204 65.792224,26.13987 65.829562,26.310534 C 65.845557,26.37987 65.853557,26.57987 65.853562,26.910534 C 65.853557,27.001203 65.853557,27.182536 65.853562,27.454534 L 65.853562,28.446534 L 65.837562,28.510534 C 65.800224,28.665201 65.736224,28.798534 65.645562,28.910534 C 65.485557,29.107867 65.280224,29.219867 65.029562,29.246534 C 64.997558,29.251867 64.768225,29.254534 64.341562,29.254534 C 64.186892,29.254534 63.997559,29.254534 63.773562,29.254534 L 62.565562,29.254534 L 62.501562,29.238534 C 62.27756,29.1852 62.098894,29.075867 61.965562,28.910534 C 61.880227,28.809201 61.818894,28.691868 61.781562,28.558534 C 61.765561,28.483868 61.757561,28.150535 61.757562,27.558534 L 61.757562,27.422534 L 61.757562,27.286534 C 61.757561,26.694536 61.765561,26.361203 61.781562,26.286534 C 61.829561,26.11587 61.917561,25.969204 62.045562,25.846534 C 62.178894,25.718537 62.33356,25.638537 62.509562,25.606534 L 62.509562,24.638534 L 62.509562,24.350534 C 62.50956,23.779873 62.514893,23.47054 62.525562,23.422534 C 62.52556,23.417206 62.52556,23.411873 62.525562,23.406534 C 62.530893,23.395873 62.536227,23.385206 62.541562,23.374534 C 62.568227,23.31054 62.594893,23.26254 62.621562,23.230534 C 62.63756,23.209206 62.65356,23.193206 62.669562,23.182534 C 62.71756,23.139873 62.754893,23.107873 62.781562,23.086534 C 62.802893,23.075873 62.824226,23.065207 62.845562,23.054534 C 62.87756,23.043873 62.912226,23.035873 62.949562,23.030534 C 62.976226,23.019873 63.157559,23.01454 63.493562,23.014534 M 64.013562,25.590534 L 64.013562,24.102534 L 63.589562,24.102534 L 63.589562,25.590534 L 64.013562,25.590534 M 64.765562,28.166534 L 64.765562,26.678534 L 62.837562,26.678534 L 62.837562,28.166534 L 64.765562,28.166534"
       id="text2416" />
    <line
       x1="87.149994"
       y1="207.14999"
       x2="87.149994"
       y2="176.14999"
       id="line2717"
       style="fill:none;stroke:#000000;stroke-width:2.29999995;stroke-linecap:round;stroke-linejoin:round" />
    <rect
       width="2"
       height="10"
       x="86.149994"
       y="196.29999"
       id="connector3pin" />
    <rect
       width="10"
       height="2"
       x="1.15"
       y="118.15"
       id="connector5pin" />
    <rect
       width="10"
       height="2"
       x="163.14999"
       y="69.099998"
       id="connector0pin" />
    <rect
       width="10"
       height="2"
       x="1.15"
       y="52.150002"
       id="connector1pin" />
    <rect
       width="10"
       height="2"
       x="0"
       y="151.09929"
       id="connector4pin" />
    <rect
       width="10"
       height="2"
       x="1.15"
       y="85.178703"
       id="connector2pin" />
    <rect
       width="10"
       height="2"
       x="164.54204"
       y="134.84099"
       id="connector6pin" />
    <rect
       width="2"
       height="10"
       x="86.150002"
       y="1.15"
       id="connector7pin" />
    <rect
       width="2"
       height="2"
       x="171.14999"
       y="69.099998"
       id="connector0terminal" />
    <rect
       width="2"
       height="2"
       x="0"
       y="52.150002"
       id="connector1terminal" />
    <rect
       width="2"
       height="2"
       x="0"
       y="85.178703"
       id="connector2terminal" />
    <rect
       width="2"
       height="2"
       x="86.149994"
       y="206.29999"
       id="connector3terminal" />
    <rect
       width="2"
       height="2"
       x="0"
       y="118.15"
       id="connector5terminal" />
    <rect
       width="2"
       height="2"
       x="0"
       y="151.09929"
       id="connector4terminal" />
    <rect
       width="2"
       height="2"
       x="172.54204"
       y="134.89999"
       id="connector6terminal" />
    <rect
       width="2"
       height="2"
       x="86.149994"
       y="0"
       id="connector7terminal" />
    <rect
       width="110"
       height="143"
       x="32.150002"
       y="32.150002"
       id="rect2707"
       style="fill:none;stroke:#000000;stroke-width:2.29999995;stroke-linecap:round;stroke-linejoin:round" />
    <line
       x1="115"
       y1="70.099998"
       x2="173.14999"
       y2="70.099998"
       id="line2709"
       style="fill:none;stroke:#000000;stroke-width:2.29999995;stroke-linecap:round;stroke-linejoin:round" />
    <line
       x1="1.15"
       y1="86.178711"
       x2="66"
       y2="86.178711"
       id="line2711"
       style="fill:none;stroke:#000000;stroke-width:2.29999995;stroke-linecap:round;stroke-linejoin:round" />
    <line
       x1="1.15"
       y1="53.150002"
       x2="66"
       y2="53.150002"
       id="line2713"
       style="fill:none;stroke:#000000;stroke-width:2.29999995;stroke-linecap:round;stroke-linejoin:round" />
    <line
       x1="1.15"
       y1="119.20743"
       x2="66"
       y2="119.20743"
       id="line2715"
       style="fill:none;stroke:#000000;stroke-width:2.29999995;stroke-linecap:round;stroke-linejoin:round" />
    <line
       x1="87.149994"
       y1="1.15"
       x2="87.149994"
       y2="32.150002"
       id="line2721"
       style="fill:none;stroke:#000000;stroke-width:2.29999995;stroke-linecap:round;stroke-linejoin:round" />
    <line
       x1="1.15"
       y1="152.23615"
       x2="66"
       y2="152.23615"
       id="line2956"
       style="fill:none;stroke:#000000;stroke-width:2.29999995;stroke-linecap:round;stroke-linejoin:round" />
    <line
       x1="115"
       y1="135.91415"
       x2="173.14999"
       y2="135.91415"
       id="line2958"
       style="fill:none;stroke:#000000;stroke-width:2.29999995;stroke-linecap:round;stroke-linejoin:round" />
    <path
       d="M 40.645751,73.99229 L 40.836072,31.469453 L 77.566769,52.895694 L 40.645751,73.99229 z"
       transform="matrix(1.2727127,0,0,1.2617218,15.690693,3.3410862)"
       id="path2960"
       style="fill:none;fill-opacity:1;stroke:#000000;stroke-width:2.00441074;stroke-linecap:round;stroke-linejoin:round;stroke-miterlimit:4;stroke-dasharray:none;stroke-opacity:1" />
    <path
       d="M 40.645751,73.99229 L 40.836072,31.469453 L 77.566769,52.895694 L 40.645751,73.99229 z"
       transform="matrix(1.2727127,0,0,1.2617218,15.690636,69.175177)"
       id="path3732"
       style="fill:none;fill-opacity:1;stroke:#000000;stroke-width:2.00441074;stroke-linecap:round;stroke-linejoin:round;stroke-miterlimit:4;stroke-dasharray:none;stroke-opacity:1" />
    <rect
       width="2"
       height="2"
       x="172.54204"
       y="135.19443"
       id="rect3736" />
    <rect
       width="10"
       height="2"
       x="164.54204"
       y="134.84099"
       id="rect3738" />
    <path
       d="M 72.273002,52.462785 C 72.422333,52.462789 72.606333,52.462789 72.825002,52.462785 C 73.832999,52.462789 74.358331,52.465456 74.401002,52.470785 C 74.422331,52.470789 74.440998,52.473456 74.457002,52.478785 C 74.531665,52.505456 74.598331,52.540122 74.657002,52.582785 C 74.715664,52.630789 74.763664,52.692122 74.801002,52.766785 C 74.832998,52.830789 74.848998,52.892122 74.849002,52.950785 C 74.854331,52.982788 74.856998,53.052122 74.857002,53.158785 C 74.856998,53.158788 74.856998,53.161455 74.857002,53.166785 C 74.856998,53.166788 74.856998,53.169455 74.857002,53.174785 C 74.856998,53.286788 74.854331,53.356121 74.849002,53.382785 C 74.848998,53.441455 74.832998,53.502788 74.801002,53.566785 C 74.763664,53.641454 74.715664,53.702788 74.657002,53.750785 C 74.598331,53.798788 74.531665,53.833454 74.457002,53.854785 C 74.440998,53.860121 74.422331,53.862788 74.401002,53.862785 C 74.358331,53.868121 73.835665,53.870788 72.833002,53.870785 C 72.518333,53.870788 72.278334,53.870788 72.113002,53.870785 C 71.569001,53.870788 71.278335,53.868121 71.241002,53.862785 C 71.230335,53.862788 71.225001,53.862788 71.225002,53.862785 C 71.150335,53.852121 71.083668,53.830788 71.025002,53.798785 C 70.945002,53.750788 70.881002,53.686788 70.833002,53.606785 C 70.817002,53.574788 70.803668,53.545455 70.793002,53.518785 C 70.782335,53.481455 70.774335,53.452121 70.769002,53.430785 C 70.763668,53.388121 70.761002,53.300121 70.761002,53.166785 C 70.761002,53.028122 70.763668,52.940122 70.769002,52.902785 C 70.774335,52.870789 70.782335,52.841455 70.793002,52.814785 C 70.814335,52.756122 70.841002,52.708122 70.873002,52.670785 C 70.894335,52.649455 70.910335,52.633455 70.921002,52.622785 C 70.969002,52.580122 71.006335,52.550789 71.033002,52.534785 C 71.054335,52.524122 71.075668,52.513456 71.097002,52.502785 C 71.129001,52.486789 71.163668,52.476122 71.201002,52.470785 C 71.211668,52.470789 71.219668,52.470789 71.225002,52.470785 C 71.273001,52.465456 71.622334,52.462789 72.273002,52.462785"
       id="text3740"
       style="font-size:8px;font-style:normal;font-variant:normal;font-weight:bold;font-stretch:normal;fill:#000000;fill-opacity:1;stroke:none;stroke-width:1px;stroke-linecap:butt;stroke-linejoin:miter;stroke-opacity:1;font-family:DroidSans;-inkscape-font-specification:DroidSans" />
    <path
       d="M 72.801002,84.061618 C 72.854333,84.061623 72.902333,84.066957 72.945002,84.077618 C 72.971666,84.08829 73.003666,84.101623 73.041002,84.117618 C 73.152999,84.170956 73.235666,84.253623 73.289002,84.365618 C 73.304999,84.397623 73.312999,84.41629 73.313002,84.421618 C 73.323666,84.437623 73.328999,84.453623 73.329002,84.469618 C 73.339666,84.512289 73.344999,84.733623 73.345002,85.133618 L 73.345002,85.565618 L 73.769002,85.565618 C 74.147665,85.565622 74.355665,85.568288 74.393002,85.573618 C 74.398331,85.573622 74.403665,85.573622 74.409002,85.573618 C 74.536998,85.600288 74.640998,85.664288 74.721002,85.765618 C 74.806331,85.861621 74.848998,85.976288 74.849002,86.109618 C 74.848998,86.237621 74.806331,86.352288 74.721002,86.453618 C 74.640998,86.554954 74.536998,86.618954 74.409002,86.645618 C 74.376998,86.650954 74.163665,86.653621 73.769002,86.653618 L 73.345002,86.653618 L 73.345002,87.085618 C 73.344999,87.48562 73.339666,87.70962 73.329002,87.757618 C 73.328999,87.77362 73.323666,87.786953 73.313002,87.797618 C 73.312999,87.802953 73.304999,87.821619 73.289002,87.853618 C 73.235666,87.965619 73.152999,88.048286 73.041002,88.101618 C 72.966333,88.138952 72.889,88.157619 72.809002,88.157618 C 72.739666,88.157619 72.678333,88.146952 72.625002,88.125618 C 72.561,88.104286 72.510333,88.077619 72.473002,88.045618 C 72.457,88.029619 72.441,88.013619 72.425002,87.997618 C 72.403667,87.976286 72.387667,87.960286 72.377002,87.949618 C 72.345,87.906953 72.318334,87.858953 72.297002,87.805618 C 72.281,87.768286 72.273,87.730953 72.273002,87.693618 C 72.267667,87.64562 72.265,87.458953 72.265002,87.133618 L 72.265002,87.069618 L 72.265002,86.653618 L 71.209002,86.645618 L 71.153002,86.629618 C 71.014335,86.586954 70.913002,86.514954 70.849002,86.413618 C 70.790335,86.312288 70.761002,86.210954 70.761002,86.109618 C 70.761002,86.002955 70.790335,85.898955 70.849002,85.797618 C 70.913002,85.696288 71.014335,85.624288 71.153002,85.581618 L 71.209002,85.565618 L 72.265002,85.565618 L 72.265002,85.149618 L 72.265002,85.085618 C 72.265,84.760289 72.267667,84.573623 72.273002,84.525618 C 72.273,84.488289 72.281,84.450956 72.297002,84.413618 C 72.318334,84.354956 72.345,84.306956 72.377002,84.269618 C 72.393,84.253623 72.409,84.237623 72.425002,84.221618 C 72.467667,84.178956 72.505,84.149623 72.537002,84.133618 C 72.558333,84.122957 72.579667,84.11229 72.601002,84.101618 C 72.633,84.090957 72.667667,84.08029 72.705002,84.069618 C 72.726333,84.06429 72.758333,84.061623 72.801002,84.061618"
       id="text3744"
       style="font-size:8px;font-style:normal;font-variant:normal;font-weight:bold;font-stretch:normal;fill:#000000;fill-opacity:1;stroke:none;stroke-width:1px;stroke-linecap:butt;stroke-linejoin:miter;stroke-opacity:1;font-family:DroidSans;-inkscape-font-specification:DroidSans" />
    <path
       d="M 72.272911,118.69199 C 72.422242,118.692 72.606242,118.692 72.824911,118.69199 C 73.832907,118.692 74.35824,118.69466 74.400911,118.69999 C 74.42224,118.7 74.440907,118.70266 74.456911,118.70799 C 74.531573,118.73466 74.59824,118.76933 74.656911,118.81199 C 74.715573,118.85999 74.763573,118.92133 74.800911,118.99599 C 74.832906,119.05999 74.848906,119.12133 74.848911,119.17999 C 74.854239,119.21199 74.856906,119.28133 74.856911,119.38799 C 74.856906,119.38799 74.856906,119.39066 74.856911,119.39599 C 74.856906,119.39599 74.856906,119.39866 74.856911,119.40399 C 74.856906,119.51599 74.854239,119.58533 74.848911,119.61199 C 74.848906,119.67066 74.832906,119.73199 74.800911,119.79599 C 74.763573,119.87066 74.715573,119.93199 74.656911,119.97999 C 74.59824,120.02799 74.531573,120.06266 74.456911,120.08399 C 74.440907,120.08933 74.42224,120.09199 74.400911,120.09199 C 74.35824,120.09733 73.835574,120.09999 72.832911,120.09999 C 72.518242,120.09999 72.278242,120.09999 72.112911,120.09999 C 71.568909,120.09999 71.278243,120.09733 71.240911,120.09199 C 71.230243,120.09199 71.22491,120.09199 71.224911,120.09199 C 71.150243,120.08133 71.083577,120.05999 71.024911,120.02799 C 70.94491,119.97999 70.88091,119.91599 70.832911,119.83599 C 70.81691,119.80399 70.803577,119.77466 70.792911,119.74799 C 70.782244,119.71066 70.774244,119.68133 70.768911,119.65999 C 70.763577,119.61733 70.76091,119.52933 70.760911,119.39599 C 70.76091,119.25733 70.763577,119.16933 70.768911,119.13199 C 70.774244,119.09999 70.782244,119.07066 70.792911,119.04399 C 70.814243,118.98533 70.84091,118.93733 70.872911,118.89999 C 70.894243,118.87866 70.910243,118.86266 70.920911,118.85199 C 70.96891,118.80933 71.006243,118.77999 71.032911,118.76399 C 71.054243,118.75333 71.075577,118.74266 71.096911,118.73199 C 71.12891,118.71599 71.163576,118.70533 71.200911,118.69999 C 71.211576,118.7 71.219576,118.7 71.224911,118.69999 C 71.27291,118.69466 71.622243,118.692 72.272911,118.69199"
       id="text3748"
       style="font-size:8px;font-style:normal;font-variant:normal;font-weight:bold;font-stretch:normal;fill:#000000;fill-opacity:1;stroke:none;stroke-width:1px;stroke-linecap:butt;stroke-linejoin:miter;stroke-opacity:1;font-family:DroidSans;-inkscape-font-specification:DroidSans" />
    <path
       d="M 72.801002,149.93417 C 72.854333,149.93417 72.902333,149.93951 72.945002,149.95017 C 72.971666,149.96084 73.003666,149.97417 73.041002,149.99017 C 73.152999,150.04351 73.235666,150.12617 73.289002,150.23817 C 73.304999,150.27017 73.312999,150.28884 73.313002,150.29417 C 73.323666,150.31017 73.328999,150.32617 73.329002,150.34217 C 73.339666,150.38484 73.344999,150.60617 73.345002,151.00617 L 73.345002,151.43817 L 73.769002,151.43817 C 74.147665,151.43817 74.355665,151.44084 74.393002,151.44617 C 74.398331,151.44617 74.403665,151.44617 74.409002,151.44617 C 74.536998,151.47284 74.640998,151.53684 74.721002,151.63817 C 74.806331,151.73417 74.848998,151.84884 74.849002,151.98217 C 74.848998,152.11017 74.806331,152.22484 74.721002,152.32617 C 74.640998,152.42751 74.536998,152.4915 74.409002,152.51817 C 74.376998,152.5235 74.163665,152.52617 73.769002,152.52617 L 73.345002,152.52617 L 73.345002,152.95817 C 73.344999,153.35817 73.339666,153.58217 73.329002,153.63017 C 73.328999,153.64617 73.323666,153.6595 73.313002,153.67017 C 73.312999,153.6755 73.304999,153.69417 73.289002,153.72617 C 73.235666,153.83817 73.152999,153.92084 73.041002,153.97417 C 72.966333,154.0115 72.889,154.03017 72.809002,154.03017 C 72.739666,154.03017 72.678333,154.0195 72.625002,153.99817 C 72.561,153.97684 72.510333,153.95017 72.473002,153.91817 C 72.457,153.90217 72.441,153.88617 72.425002,153.87017 C 72.403667,153.84884 72.387667,153.83284 72.377002,153.82217 C 72.345,153.7795 72.318334,153.7315 72.297002,153.67817 C 72.281,153.64084 72.273,153.6035 72.273002,153.56617 C 72.267667,153.51817 72.265,153.3315 72.265002,153.00617 L 72.265002,152.94217 L 72.265002,152.52617 L 71.209002,152.51817 L 71.153002,152.50217 C 71.014335,152.45951 70.913002,152.38751 70.849002,152.28617 C 70.790335,152.18484 70.761002,152.08351 70.761002,151.98217 C 70.761002,151.87551 70.790335,151.77151 70.849002,151.67017 C 70.913002,151.56884 71.014335,151.49684 71.153002,151.45417 L 71.209002,151.43817 L 72.265002,151.43817 L 72.265002,151.02217 L 72.265002,150.95817 C 72.265,150.63284 72.267667,150.44617 72.273002,150.39817 C 72.273,150.36084 72.281,150.32351 72.297002,150.28617 C 72.318334,150.22751 72.345,150.17951 72.377002,150.14217 C 72.393,150.12617 72.409,150.11017 72.425002,150.09417 C 72.467667,150.05151 72.505,150.02217 72.537002,150.00617 C 72.558333,149.99551 72.579667,149.98484 72.601002,149.97417 C 72.633,149.96351 72.667667,149.95284 72.705002,149.94217 C 72.726333,149.93684 72.758333,149.93417 72.801002,149.93417"
       id="text3752"
       style="font-size:8px;font-style:normal;font-variant:normal;font-weight:bold;font-stretch:normal;fill:#000000;fill-opacity:1;stroke:none;stroke-width:1px;stroke-linecap:butt;stroke-linejoin:miter;stroke-opacity:1;font-family:DroidSans;-inkscape-font-specification:DroidSans" />
    <path
       d="M 80.044271,35.567987 C 80.097603,35.567993 80.145603,35.573327 80.188271,35.583987 C 80.214936,35.59466 80.246936,35.607993 80.284271,35.623987 C 80.39627,35.677327 80.478936,35.759993 80.532271,35.871987 C 80.548269,35.903993 80.556269,35.919993 80.556271,35.919987 C 80.561603,35.935993 80.566936,35.949326 80.572271,35.959987 C 80.582936,36.007993 80.588269,36.250659 80.588271,36.687987 L 80.596271,37.303987 L 81.140271,38.711987 L 81.556271,39.759987 L 82.516271,37.295987 L 82.516271,36.703987 C 82.516267,36.703992 82.516267,36.677326 82.516271,36.623987 C 82.516267,36.287993 82.518934,36.095993 82.524271,36.047987 C 82.529601,36.005326 82.540267,35.965326 82.556271,35.927987 C 82.577601,35.869326 82.604267,35.821327 82.636271,35.783987 C 82.652267,35.76266 82.665601,35.74666 82.676271,35.735987 C 82.702934,35.709327 82.721601,35.693327 82.732271,35.687987 C 82.774934,35.65066 82.822934,35.621327 82.876271,35.599987 C 82.940267,35.57866 83.0016,35.567993 83.060271,35.567987 C 83.140267,35.567993 83.220267,35.58666 83.300271,35.623987 C 83.412267,35.677327 83.494933,35.759993 83.548271,35.871987 C 83.548266,35.871993 83.5536,35.88266 83.564271,35.903987 C 83.574933,35.925326 83.582933,35.949326 83.588271,35.975987 C 83.598933,36.023993 83.604266,36.285326 83.604271,36.759987 L 83.604271,37.503987 L 82.820271,39.503987 C 82.446934,40.485322 82.188268,41.149321 82.044271,41.495987 C 82.044268,41.501321 82.041601,41.506654 82.036271,41.511987 C 82.009601,41.565321 81.972268,41.615987 81.924271,41.663987 C 81.817601,41.759987 81.694935,41.807987 81.556271,41.807987 C 81.454935,41.807987 81.358935,41.778654 81.268271,41.719987 C 81.177602,41.666654 81.108269,41.591987 81.060271,41.495987 C 81.033602,41.431988 80.782936,40.783988 80.308271,39.551987 L 79.540271,37.591987 L 79.508271,37.503987 L 79.508271,36.775987 L 79.508271,36.663987 C 79.50827,36.301326 79.510937,36.093326 79.516271,36.039987 C 79.51627,36.00266 79.52427,35.965326 79.540271,35.927987 C 79.561604,35.869326 79.58827,35.821327 79.620271,35.783987 C 79.641604,35.76266 79.657604,35.74666 79.668271,35.735987 C 79.710937,35.693327 79.74827,35.661327 79.780271,35.639987 C 79.801603,35.629327 79.822937,35.61866 79.844271,35.607987 C 79.87627,35.597327 79.910937,35.589327 79.948271,35.583987 C 79.969603,35.573327 80.001603,35.567993 80.044271,35.567987 M 87.995021,37.175987 C 88.549684,37.175992 88.843017,37.181325 88.875021,37.191987 C 89.003017,37.213325 89.107017,37.274658 89.187021,37.375987 C 89.27235,37.477325 89.315016,37.591991 89.315021,37.719987 C 89.315016,37.831991 89.285683,37.933324 89.227021,38.023987 C 89.16835,38.114658 89.08835,38.181324 88.987021,38.223987 L 88.963021,38.231987 C 88.947017,38.242657 88.92835,38.247991 88.907021,38.247987 C 88.859017,38.258657 88.547017,38.263991 87.971021,38.263987 L 87.131021,38.271987 L 87.123021,38.271987 C 87.096352,38.277324 87.072352,38.287991 87.051021,38.303987 C 87.040352,38.314657 86.923019,38.415991 86.699021,38.607987 C 86.496352,38.778657 86.381686,38.877323 86.355021,38.903987 C 86.339019,38.925323 86.325686,38.95199 86.315021,38.983987 L 86.315021,38.991987 L 86.315021,39.487987 C 86.315019,39.818656 86.315019,39.989322 86.315021,39.999987 C 86.325686,40.031989 86.339019,40.061322 86.355021,40.087987 C 86.360353,40.093322 86.475019,40.191989 86.699021,40.383987 C 86.923019,40.575988 87.043019,40.677322 87.059021,40.687987 C 87.069685,40.698655 87.088352,40.706655 87.115021,40.711987 C 87.141685,40.717322 87.427018,40.719988 87.971021,40.719987 C 88.547017,40.725322 88.859017,40.730655 88.907021,40.735987 C 88.92835,40.741322 88.947017,40.746655 88.963021,40.751987 L 88.987021,40.759987 C 89.08835,40.802655 89.16835,40.869321 89.227021,40.959987 C 89.285683,41.050655 89.315016,41.151988 89.315021,41.263987 C 89.315016,41.397321 89.27235,41.514654 89.187021,41.615987 C 89.107017,41.711987 89.003017,41.773321 88.875021,41.799987 C 88.837683,41.805321 88.541684,41.807987 87.987021,41.807987 C 87.400352,41.807987 87.080352,41.805321 87.027021,41.799987 C 86.792352,41.773321 86.584352,41.690654 86.403021,41.551987 C 86.360353,41.519987 86.227019,41.407988 86.003021,41.215987 C 85.77902,41.023988 85.648353,40.909321 85.611021,40.871987 C 85.43502,40.701322 85.320354,40.498655 85.267021,40.263987 C 85.240354,40.167989 85.22702,39.919989 85.227021,39.519987 C 85.22702,39.35999 85.22702,39.250656 85.227021,39.191987 C 85.22702,39.03199 85.229687,38.925323 85.235021,38.871987 C 85.272354,38.589324 85.389687,38.346657 85.587021,38.143987 C 85.61902,38.106658 85.749687,37.989324 85.979021,37.791987 C 86.208353,37.594658 86.347019,37.477325 86.395021,37.439987 C 86.576352,37.301325 86.787019,37.218658 87.027021,37.191987 C 87.075019,37.181325 87.397685,37.175992 87.995021,37.175987 M 93.713771,37.175987 C 94.268434,37.175992 94.561767,37.181325 94.593771,37.191987 C 94.721767,37.213325 94.825767,37.274658 94.905771,37.375987 C 94.9911,37.477325 95.033766,37.591991 95.033771,37.719987 C 95.033766,37.831991 95.004433,37.933324 94.945771,38.023987 C 94.8871,38.114658 94.8071,38.181324 94.705771,38.223987 L 94.681771,38.231987 C 94.665767,38.242657 94.6471,38.247991 94.625771,38.247987 C 94.577767,38.258657 94.265767,38.263991 93.689771,38.263987 L 92.849771,38.271987 L 92.841771,38.271987 C 92.815102,38.277324 92.791102,38.287991 92.769771,38.303987 C 92.759102,38.314657 92.641769,38.415991 92.417771,38.607987 C 92.215102,38.778657 92.100436,38.877323 92.073771,38.903987 C 92.057769,38.925323 92.044436,38.95199 92.033771,38.983987 L 92.033771,38.991987 L 92.033771,39.487987 C 92.033769,39.818656 92.033769,39.989322 92.033771,39.999987 C 92.044436,40.031989 92.057769,40.061322 92.073771,40.087987 C 92.079103,40.093322 92.193769,40.191989 92.417771,40.383987 C 92.641769,40.575988 92.761769,40.677322 92.777771,40.687987 C 92.788435,40.698655 92.807102,40.706655 92.833771,40.711987 C 92.860435,40.717322 93.145768,40.719988 93.689771,40.719987 C 94.265767,40.725322 94.577767,40.730655 94.625771,40.735987 C 94.6471,40.741322 94.665767,40.746655 94.681771,40.751987 L 94.705771,40.759987 C 94.8071,40.802655 94.8871,40.869321 94.945771,40.959987 C 95.004433,41.050655 95.033766,41.151988 95.033771,41.263987 C 95.033766,41.397321 94.9911,41.514654 94.905771,41.615987 C 94.825767,41.711987 94.721767,41.773321 94.593771,41.799987 C 94.556433,41.805321 94.260434,41.807987 93.705771,41.807987 C 93.119102,41.807987 92.799102,41.805321 92.745771,41.799987 C 92.511102,41.773321 92.303102,41.690654 92.121771,41.551987 C 92.079103,41.519987 91.945769,41.407988 91.721771,41.215987 C 91.49777,41.023988 91.367103,40.909321 91.329771,40.871987 C 91.15377,40.701322 91.039104,40.498655 90.985771,40.263987 C 90.959104,40.167989 90.94577,39.919989 90.945771,39.519987 C 90.94577,39.35999 90.94577,39.250656 90.945771,39.191987 C 90.94577,39.03199 90.948437,38.925323 90.953771,38.871987 C 90.991104,38.589324 91.108437,38.346657 91.305771,38.143987 C 91.33777,38.106658 91.468437,37.989324 91.697771,37.791987 C 91.927103,37.594658 92.065769,37.477325 92.113771,37.439987 C 92.295102,37.301325 92.505769,37.218658 92.745771,37.191987 C 92.793769,37.181325 93.116435,37.175992 93.713771,37.175987"
       id="text3760"
       style="font-size:8px;font-style:normal;font-variant:normal;font-weight:bold;font-stretch:normal;fill:#000000;fill-opacity:1;stroke:none;stroke-width:1px;stroke-linecap:butt;stroke-linejoin:miter;stroke-opacity:1;font-family:DroidSans;-inkscape-font-specification:DroidSans" />
    <path
       d="M 82.468271,164.75521 C 82.484267,164.75521 82.510934,164.75521 82.548271,164.75521 C 82.585601,164.75521 82.614934,164.75521 82.636271,164.75521 C 82.934934,164.75521 83.102933,164.75788 83.140271,164.76321 C 83.1456,164.76321 83.150933,164.76321 83.156271,164.76321 C 83.284267,164.78988 83.388267,164.85388 83.468271,164.95521 C 83.5536,165.05654 83.596266,165.17121 83.596271,165.29921 C 83.596266,165.41121 83.566933,165.51254 83.508271,165.60321 C 83.4496,165.69388 83.3696,165.76054 83.268271,165.80321 C 83.2416,165.81388 83.2256,165.81921 83.220271,165.81921 C 83.214933,165.81921 83.206933,165.82188 83.196271,165.82721 C 83.1536,165.83788 82.918934,165.84321 82.492271,165.84321 C 82.081601,165.84321 81.868268,165.84588 81.852271,165.85121 C 81.852268,165.85121 81.846935,165.85388 81.836271,165.85921 C 81.830935,165.86454 81.828268,165.86721 81.828271,165.86721 C 81.806935,165.87788 81.790935,165.88854 81.780271,165.89921 C 81.742935,165.94188 81.564268,166.16854 81.244271,166.57921 C 80.892269,167.02721 80.708269,167.26454 80.692271,167.29121 C 80.649603,167.34988 80.620269,167.42454 80.604271,167.51521 L 80.596271,167.54721 L 80.596271,168.64321 C 80.596269,169.32587 80.596269,169.69121 80.596271,169.73921 C 80.617603,169.80321 80.657603,169.85121 80.716271,169.88321 C 80.726936,169.88854 80.734936,169.89387 80.740271,169.89921 C 80.745603,169.89921 80.748269,169.89921 80.748271,169.89921 C 80.774936,169.90454 80.937602,169.90721 81.236271,169.90721 C 81.262935,169.90721 81.310935,169.90721 81.380271,169.90721 C 81.449602,169.90721 81.508268,169.90721 81.556271,169.90721 C 81.588268,169.90721 81.641602,169.90721 81.716271,169.90721 C 81.790935,169.90721 81.844268,169.90721 81.876271,169.90721 C 82.174934,169.90721 82.337601,169.90454 82.364271,169.89921 C 82.369601,169.89387 82.372268,169.89121 82.372271,169.89121 C 82.377601,169.89121 82.382934,169.88854 82.388271,169.88321 C 82.436267,169.86187 82.470934,169.82721 82.492271,169.77921 C 82.502934,169.76321 82.508267,169.75521 82.508271,169.75521 L 82.508271,169.74721 C 82.513601,169.73121 82.516267,169.58987 82.516271,169.32321 L 82.516271,169.05921 L 82.284271,169.05921 L 81.844271,169.05121 C 81.806935,169.05121 81.772268,169.04321 81.740271,169.02721 C 81.681602,169.00587 81.633602,168.97921 81.596271,168.94721 C 81.580268,168.93121 81.564268,168.91521 81.548271,168.89921 C 81.526935,168.87787 81.510935,168.86187 81.500271,168.85121 C 81.462935,168.80854 81.436268,168.75787 81.420271,168.69921 C 81.398935,168.64054 81.388269,168.58187 81.388271,168.52321 C 81.388269,168.45921 81.398935,168.39787 81.420271,168.33921 C 81.441602,168.28054 81.468268,168.22987 81.500271,168.18721 C 81.516268,168.17121 81.532268,168.15521 81.548271,168.13921 C 81.569602,168.11787 81.585602,168.10187 81.596271,168.09121 C 81.638935,168.05921 81.686935,168.03254 81.740271,168.01121 C 81.777601,167.99521 81.814935,167.98721 81.852271,167.98721 C 81.900268,167.98187 82.124268,167.97921 82.524271,167.97921 L 82.668271,167.97921 L 83.604271,167.97921 L 83.604271,168.94721 C 83.604266,169.49121 83.6016,169.78987 83.596271,169.84321 C 83.574933,169.98721 83.532266,170.12587 83.468271,170.25921 C 83.372267,170.45654 83.2336,170.61921 83.052271,170.74721 C 82.870934,170.87521 82.670934,170.9552 82.452271,170.98721 C 82.398934,170.99254 82.100268,170.9952 81.556271,170.99521 L 81.500271,170.99521 C 80.950936,170.9952 80.630936,170.98454 80.540271,170.96321 C 80.390936,170.9312 80.254936,170.87787 80.132271,170.80321 C 79.961603,170.69654 79.82027,170.55787 79.708271,170.38721 C 79.601604,170.21654 79.537604,170.02987 79.516271,169.82721 C 79.505604,169.77387 79.50027,169.38721 79.500271,168.66721 C 79.50027,167.92587 79.505604,167.52588 79.516271,167.46721 C 79.542937,167.17921 79.633604,166.91788 79.788271,166.68321 C 79.814937,166.64588 80.01227,166.39254 80.380271,165.92321 C 80.742936,165.45388 80.942936,165.20054 80.980271,165.16321 C 81.193602,164.93921 81.452268,164.80854 81.756271,164.77121 C 81.809601,164.76054 82.046935,164.75521 82.468271,164.75521 M 85.227021,167.69921 L 85.227021,164.75521 L 86.499021,164.76321 L 86.595021,164.97121 L 88.235021,168.71521 L 88.235021,167.35521 C 88.240351,165.97388 88.243017,165.25921 88.243021,165.21121 C 88.248351,165.19521 88.251017,165.17921 88.251021,165.16321 C 88.283017,165.05654 88.336351,164.97121 88.411021,164.90721 C 88.432351,164.88588 88.451017,164.86988 88.467021,164.85921 C 88.48835,164.84321 88.509684,164.82988 88.531021,164.81921 C 88.55235,164.80854 88.573684,164.79788 88.595021,164.78721 C 88.659017,164.76588 88.72035,164.75521 88.779021,164.75521 C 88.859017,164.75521 88.939017,164.77388 89.019021,164.81121 C 89.163016,164.88054 89.259016,164.99521 89.307021,165.15521 C 89.31235,165.17121 89.315016,165.18988 89.315021,165.21121 C 89.32035,165.26988 89.323016,166.21121 89.323021,168.03521 L 89.323021,170.99521 L 88.043021,170.99521 L 86.315021,167.04321 L 86.307021,168.40321 C 86.307019,169.78454 86.304353,170.49921 86.299021,170.54721 C 86.299019,170.56321 86.296353,170.57921 86.291021,170.59521 C 86.243019,170.75521 86.14702,170.86987 86.003021,170.93921 C 85.928353,170.97654 85.85102,170.9952 85.771021,170.99521 C 85.701687,170.9952 85.640353,170.98454 85.587021,170.96321 C 85.52302,170.93654 85.472354,170.90987 85.435021,170.88321 C 85.41902,170.86721 85.40302,170.85121 85.387021,170.83521 C 85.365687,170.80854 85.349687,170.78987 85.339021,170.77921 C 85.30702,170.74187 85.280354,170.69654 85.259021,170.64321 C 85.248354,170.61654 85.240354,170.58721 85.235021,170.55521 C 85.229687,170.48587 85.22702,169.84587 85.227021,168.63521 C 85.22702,168.55521 85.22702,168.41121 85.227021,168.20321 C 85.22702,167.99521 85.22702,167.82721 85.227021,167.69921 M 92.201771,164.75521 C 92.201769,164.75521 92.273769,164.75521 92.417771,164.75521 C 92.785769,164.75521 92.991102,164.75788 93.033771,164.76321 C 93.236435,164.78988 93.423101,164.85921 93.593771,164.97121 C 93.764434,165.07788 93.903101,165.21388 94.009771,165.37921 C 94.025767,165.41121 94.175101,165.70454 94.457771,166.25921 C 94.6871,166.71788 94.825767,167.00054 94.873771,167.10721 C 94.921766,167.21388 94.9591,167.31788 94.985771,167.41921 C 95.0231,167.56321 95.041766,167.71521 95.041771,167.87521 C 95.041766,168.03521 95.0231,168.18721 94.985771,168.33121 C 94.9591,168.43254 94.921766,168.53654 94.873771,168.64321 C 94.825767,168.74987 94.6871,169.03254 94.457771,169.49121 C 94.175101,170.04587 94.025767,170.33921 94.009771,170.37121 C 93.929767,170.49921 93.831101,170.60854 93.713771,170.69921 C 93.521768,170.85921 93.300435,170.9552 93.049771,170.98721 C 92.996435,170.99254 92.852435,170.9952 92.617771,170.99521 C 92.537769,170.9952 92.393769,170.9952 92.185771,170.99521 L 91.393771,170.99521 L 91.337771,170.97121 C 91.199104,170.92854 91.09777,170.85921 91.033771,170.76321 C 90.975104,170.66187 90.94577,170.56054 90.945771,170.45921 C 90.94577,170.35254 90.975104,170.24854 91.033771,170.14721 C 91.09777,170.04587 91.199104,169.97387 91.337771,169.93121 C 91.35377,169.92587 91.367103,169.92054 91.377771,169.91521 C 91.40977,169.91521 91.495103,169.91254 91.633771,169.90721 L 91.697771,169.90721 L 91.697771,165.84321 L 91.633771,165.84321 C 91.48977,165.84321 91.404437,165.84054 91.377771,165.83521 C 91.367103,165.82988 91.35377,165.82454 91.337771,165.81921 C 91.172437,165.77121 91.05777,165.67254 90.993771,165.52321 C 90.96177,165.45388 90.94577,165.37921 90.945771,165.29921 C 90.94577,165.21921 90.96177,165.14454 90.993771,165.07521 C 91.068437,164.89921 91.204437,164.79521 91.401771,164.76321 C 91.423103,164.75788 91.68977,164.75521 92.201771,164.75521 M 92.945771,165.85121 L 92.945771,165.85121 L 92.945771,165.85121 M 92.945771,165.85121 C 92.935102,165.84588 92.881768,165.84321 92.785771,165.84321 L 92.777771,165.84321 L 92.777771,169.90721 L 92.785771,169.90721 C 92.871102,169.90721 92.921768,169.90721 92.937771,169.90721 C 92.948435,169.90187 92.964435,169.89387 92.985771,169.88321 C 93.017768,169.87254 93.044435,169.85387 93.065771,169.82721 C 93.076435,169.80587 93.292435,169.38187 93.713771,168.55521 C 93.831101,168.31521 93.897767,168.17654 93.913771,168.13921 C 93.935101,168.06987 93.948434,168.00321 93.953771,167.93921 C 93.953767,167.91787 93.953767,167.89387 93.953771,167.86721 C 93.953767,167.78721 93.940434,167.70187 93.913771,167.61121 C 93.897767,167.57388 93.831101,167.43788 93.713771,167.20321 C 93.292435,166.37121 93.076435,165.94454 93.065771,165.92321 C 93.039102,165.89121 92.999102,165.86721 92.945771,165.85121"
       id="text3764"
       style="font-size:8px;font-style:normal;font-variant:normal;font-weight:bold;font-stretch:normal;fill:#000000;fill-opacity:1;stroke:none;stroke-width:1px;stroke-linecap:butt;stroke-linejoin:miter;stroke-opacity:1;font-family:DroidSans;-inkscape-font-specification:DroidSans" />
  </g>
</svg>
