<?xml version='1.0' encoding='utf-8'?>
<!DOCTYPE svg PUBLIC '-//W3C//DTD SVG 1.1//EN' 'http://www.w3.org/Graphics/SVG/1.1/DTD/svg11.dtd'>
<!-- Generator: Adobe Illustrator 13.0.2, SVG Export Plug-In . SVG Version: 6.00 Build 14948)  -->
<svg width="2.14542in" x="0px" version="1.1" y="0px" xmlns="http://www.w3.org/2000/svg" height="2.525in" viewBox="0 0 154.47 181.8" xmlns:xml="http://www.w3.org/XML/1998/namespace" id="svg2" enable-background="new 0 0.08 154.47 181.8" xml:space="preserve">
 <sodipodi:namedview showgrid="false" objecttolerance="10" xmlns:sodipodi="http://sodipodi.sourceforge.net/DTD/sodipodi-0.dtd" pagecolor="#ffffff" bordercolor="#666666" id="namedview78" borderopacity="1" guidetolerance="10" gridtolerance="10"/>
 <g xmlns="http://www.w3.org/2000/svg" id="schematic">
  <rect width="106.949" x="22.68" y="1.08" fill="none" xmlns="http://www.w3.org/2000/svg" height="179.8" stroke="#000000" stroke-linejoin="round" id="rect5" stroke-linecap="round" stroke-width="2"/>
  <text font-family="DroidSans" xmlns="http://www.w3.org/2000/svg" id="label" transform="matrix(1 0 0 1 50.4924 21.9805)" font-size="16.92">74HC14</text>
  <line fill="none" xmlns="http://www.w3.org/2000/svg" stroke="#000000" stroke-linejoin="round" id="line8" stroke-linecap="round" y1="29.68" stroke-width="2" x1="1.08" y2="29.68" x2="21.6"/>
  <rect width="21.601" x="0" y="28.6" fill="none" xmlns="http://www.w3.org/2000/svg" height="2.159" id="connector0pin"/>
  <rect width="2.16" x="0" y="28.6" fill="none" xmlns="http://www.w3.org/2000/svg" height="2.159"/>
  <text font-family="DroidSans" xmlns="http://www.w3.org/2000/svg" id="label0" transform="matrix(1 0 0 1 28.0808 39.2002)" font-size="9.36">1A</text>
  <line fill="none" xmlns="http://www.w3.org/2000/svg" stroke="#000000" stroke-linejoin="round" id="line13" stroke-linecap="round" y1="29.68" stroke-width="2" x1="129.63" y2="29.68" x2="151.23"/>
  <rect width="21.601" x="130.71" y="28.6" fill="none" xmlns="http://www.w3.org/2000/svg" height="2.159" id="connector13pin"/>
  <rect width="2.16" x="152.31" y="28.6" fill="none" xmlns="http://www.w3.org/2000/svg" height="2.159"/>
  <text font-family="DroidSans" xmlns="http://www.w3.org/2000/svg" id="label13" transform="matrix(1 0 0 1 108.0012 39.2002)" font-size="9.36">VCC</text>
  <line fill="none" xmlns="http://www.w3.org/2000/svg" stroke="#000000" stroke-linejoin="round" id="line18" stroke-linecap="round" y1="51.28" stroke-width="2" x1="1.08" y2="51.28" x2="21.6"/>
  <rect width="21.601" x="0" y="50.2" fill="none" xmlns="http://www.w3.org/2000/svg" height="2.16" id="connector1pin"/>
  <rect width="2.16" x="0" y="50.2" fill="none" xmlns="http://www.w3.org/2000/svg" height="2.16"/>
  <text font-family="DroidSans" xmlns="http://www.w3.org/2000/svg" id="label1" transform="matrix(1 0 0 1 28.0808 60.7998)" font-size="9.36">1Y</text>
  <line fill="none" xmlns="http://www.w3.org/2000/svg" stroke="#000000" stroke-linejoin="round" id="line23" stroke-linecap="round" y1="51.28" stroke-width="2" x1="129.63" y2="51.28" x2="151.23"/>
  <rect width="21.601" x="130.71" y="50.2" fill="none" xmlns="http://www.w3.org/2000/svg" height="2.16" id="connector12pin"/>
  <rect width="2.16" x="152.31" y="50.2" fill="none" xmlns="http://www.w3.org/2000/svg" height="2.16"/>
  <text font-family="DroidSans" xmlns="http://www.w3.org/2000/svg" id="label12" transform="matrix(1 0 0 1 113.384 60.7998)" font-size="9.36">6A</text>
  <line fill="none" xmlns="http://www.w3.org/2000/svg" stroke="#000000" stroke-linejoin="round" id="line28" stroke-linecap="round" y1="72.88" stroke-width="2" x1="1.08" y2="72.88" x2="21.6"/>
  <rect width="21.601" x="0" y="71.8" fill="none" xmlns="http://www.w3.org/2000/svg" height="2.16" id="connector2pin"/>
  <rect width="2.16" x="0" y="71.8" fill="none" xmlns="http://www.w3.org/2000/svg" height="2.16"/>
  <text font-family="DroidSans" xmlns="http://www.w3.org/2000/svg" id="label2" transform="matrix(1 0 0 1 28.0808 82.4004)" font-size="9.36">2A</text>
  <line fill="none" xmlns="http://www.w3.org/2000/svg" stroke="#000000" stroke-linejoin="round" id="line33" stroke-linecap="round" y1="72.88" stroke-width="2" x1="129.63" y2="72.88" x2="151.23"/>
  <rect width="21.601" x="130.71" y="71.8" fill="none" xmlns="http://www.w3.org/2000/svg" height="2.16" id="connector11pin"/>
  <rect width="2.16" x="152.31" y="71.8" fill="none" xmlns="http://www.w3.org/2000/svg" height="2.16"/>
  <text font-family="DroidSans" xmlns="http://www.w3.org/2000/svg" id="label11" transform="matrix(1 0 0 1 114.1438 82.4004)" font-size="9.36">6Y</text>
  <line fill="none" xmlns="http://www.w3.org/2000/svg" stroke="#000000" stroke-linejoin="round" id="line38" stroke-linecap="round" y1="94.48" stroke-width="2" x1="1.08" y2="94.48" x2="21.6"/>
  <rect width="21.601" x="0" y="93.4" fill="none" xmlns="http://www.w3.org/2000/svg" height="2.16" id="connector3pin"/>
  <rect width="2.16" x="0" y="93.4" fill="none" xmlns="http://www.w3.org/2000/svg" height="2.16"/>
  <text font-family="DroidSans" xmlns="http://www.w3.org/2000/svg" id="label3" transform="matrix(1 0 0 1 28.0808 104)" font-size="9.36">2Y</text>
  <line fill="none" xmlns="http://www.w3.org/2000/svg" stroke="#000000" stroke-linejoin="round" id="line43" stroke-linecap="round" y1="94.48" stroke-width="2" x1="129.63" y2="94.48" x2="151.23"/>
  <rect width="21.601" x="130.71" y="93.4" fill="none" xmlns="http://www.w3.org/2000/svg" height="2.16" id="connector10pin"/>
  <rect width="2.16" x="152.31" y="93.4" fill="none" xmlns="http://www.w3.org/2000/svg" height="2.16"/>
  <text font-family="DroidSans" xmlns="http://www.w3.org/2000/svg" id="label10" transform="matrix(1 0 0 1 113.384 104)" font-size="9.36">5A</text>
  <line fill="none" xmlns="http://www.w3.org/2000/svg" stroke="#000000" stroke-linejoin="round" id="line48" stroke-linecap="round" y1="116.08" stroke-width="2" x1="1.08" y2="116.08" x2="21.6"/>
  <rect width="21.601" x="0" y="115" fill="none" xmlns="http://www.w3.org/2000/svg" height="2.16" id="connector4pin"/>
  <rect width="2.16" x="0" y="115" fill="none" xmlns="http://www.w3.org/2000/svg" height="2.16"/>
  <text font-family="DroidSans" xmlns="http://www.w3.org/2000/svg" id="label4" transform="matrix(1 0 0 1 28.0808 125.5996)" font-size="9.36">3A</text>
  <line fill="none" xmlns="http://www.w3.org/2000/svg" stroke="#000000" stroke-linejoin="round" id="line53" stroke-linecap="round" y1="116.08" stroke-width="2" x1="129.63" y2="116.08" x2="151.23"/>
  <rect width="21.601" x="130.71" y="115" fill="none" xmlns="http://www.w3.org/2000/svg" height="2.16" id="connector9pin"/>
  <rect width="2.16" x="152.31" y="115" fill="none" xmlns="http://www.w3.org/2000/svg" height="2.16"/>
  <text font-family="DroidSans" xmlns="http://www.w3.org/2000/svg" id="label9" transform="matrix(1 0 0 1 114.1438 125.5996)" font-size="9.36">5Y</text>
  <line fill="none" xmlns="http://www.w3.org/2000/svg" stroke="#000000" stroke-linejoin="round" id="line58" stroke-linecap="round" y1="137.68" stroke-width="2" x1="1.08" y2="137.68" x2="21.6"/>
  <rect width="21.601" x="0" y="136.6" fill="none" xmlns="http://www.w3.org/2000/svg" height="2.158" id="connector5pin"/>
  <rect width="2.16" x="0" y="136.6" fill="none" xmlns="http://www.w3.org/2000/svg" height="2.158"/>
  <text font-family="DroidSans" xmlns="http://www.w3.org/2000/svg" id="label5" transform="matrix(1 0 0 1 28.0808 147.2012)" font-size="9.36">3Y</text>
  <line fill="none" xmlns="http://www.w3.org/2000/svg" stroke="#000000" stroke-linejoin="round" id="line63" stroke-linecap="round" y1="137.68" stroke-width="2" x1="129.63" y2="137.68" x2="151.23"/>
  <rect width="21.601" x="130.71" y="136.6" fill="none" xmlns="http://www.w3.org/2000/svg" height="2.158" id="connector8pin"/>
  <rect width="2.16" x="152.31" y="136.6" fill="none" xmlns="http://www.w3.org/2000/svg" height="2.158"/>
  <text font-family="DroidSans" xmlns="http://www.w3.org/2000/svg" id="label8" transform="matrix(1 0 0 1 113.384 147.2012)" font-size="9.36">4A</text>
  <line fill="none" xmlns="http://www.w3.org/2000/svg" stroke="#000000" stroke-linejoin="round" id="line68" stroke-linecap="round" y1="159.281" stroke-width="2" x1="1.08" y2="159.281" x2="21.6"/>
  <rect width="21.601" x="0" y="158.201" fill="none" xmlns="http://www.w3.org/2000/svg" height="2.158" id="connector6pin"/>
  <rect width="2.16" x="0" y="158.201" fill="none" xmlns="http://www.w3.org/2000/svg" height="2.158"/>
  <text font-family="DroidSans" xmlns="http://www.w3.org/2000/svg" id="label6" transform="matrix(1 0 0 1 28.0808 168.8008)" font-size="9.36">GND</text>
  <line fill="none" xmlns="http://www.w3.org/2000/svg" stroke="#000000" stroke-linejoin="round" id="line73" stroke-linecap="round" y1="159.281" stroke-width="2" x1="129.63" y2="159.281" x2="151.23"/>
  <rect width="21.601" x="130.71" y="158.201" fill="none" xmlns="http://www.w3.org/2000/svg" height="2.158" id="connector7pin"/>
  <rect width="2.16" x="152.31" y="158.201" fill="none" xmlns="http://www.w3.org/2000/svg" height="2.158"/>
  <text font-family="DroidSans" xmlns="http://www.w3.org/2000/svg" id="label7" transform="matrix(1 0 0 1 114.1438 168.8008)" font-size="9.36">4Y</text>
  <g xmlns="http://www.w3.org/2000/svg">
   <g xmlns="http://www.w3.org/2000/svg">
    <rect width="18.996" x="41.634" y="26.681" fill="none" xmlns="http://www.w3.org/2000/svg" height="15.457" stroke="#000000" stroke-linejoin="round" stroke-linecap="round"/>
    <circle fill="none" cx="64.198" xmlns="http://www.w3.org/2000/svg" cy="34.409" stroke="#000000" stroke-linejoin="round" stroke-linecap="round" r="2.744"/>
   </g>
   <polyline fill="none" points="43.833,37.98 50.333,37.98 54.838,30.608 58.083,30.608 " xmlns="http://www.w3.org/2000/svg" stroke="#000000" stroke-linejoin="round" stroke-linecap="round"/>
   <polyline fill="none" points="46.514,37.98 51.019,30.608 55.139,30.608 " xmlns="http://www.w3.org/2000/svg" stroke="#000000" stroke-linejoin="round" stroke-linecap="round"/>
  </g>
  <g xmlns="http://www.w3.org/2000/svg">
   <rect width="18.995" x="90.635" y="48.523" fill="none" xmlns="http://www.w3.org/2000/svg" height="15.457" stroke="#000000" stroke-linejoin="round" stroke-linecap="round"/>
   <circle fill="none" cx="87.629" xmlns="http://www.w3.org/2000/svg" cy="56.251" stroke="#000000" stroke-linejoin="round" stroke-linecap="round" r="2.744"/>
   <polyline fill="none" points="92.833,59.822 99.333,59.822 103.838,52.45 107.083,52.45 " xmlns="http://www.w3.org/2000/svg" stroke="#000000" stroke-linejoin="round" stroke-linecap="round"/>
   <polyline fill="none" points="95.514,59.822 100.019,52.45 104.139,52.45 " xmlns="http://www.w3.org/2000/svg" stroke="#000000" stroke-linejoin="round" stroke-linecap="round"/>
  </g>
  <line fill="none" xmlns="http://www.w3.org/2000/svg" stroke="#000000" stroke-linejoin="round" stroke-linecap="round" y1="29.68" x1="21.6" y2="29.68" x2="41.634"/>
  <polyline fill="none" points="66.941,34.409 69.13,34.409 69.13,51.28 21.6,51.28 " xmlns="http://www.w3.org/2000/svg" stroke="#000000" stroke-linejoin="round" stroke-linecap="round"/>
  <g xmlns="http://www.w3.org/2000/svg">
   <g xmlns="http://www.w3.org/2000/svg">
    <rect width="18.996" x="41.634" y="69.88" fill="none" xmlns="http://www.w3.org/2000/svg" height="15.457" stroke="#000000" stroke-linejoin="round" stroke-linecap="round"/>
    <circle fill="none" cx="64.198" xmlns="http://www.w3.org/2000/svg" cy="77.609" stroke="#000000" stroke-linejoin="round" stroke-linecap="round" r="2.744"/>
   </g>
   <polyline fill="none" points="43.833,81.18 50.333,81.18 54.838,73.808 58.083,73.808 " xmlns="http://www.w3.org/2000/svg" stroke="#000000" stroke-linejoin="round" stroke-linecap="round"/>
   <polyline fill="none" points="46.514,81.18 51.019,73.808 55.139,73.808 " xmlns="http://www.w3.org/2000/svg" stroke="#000000" stroke-linejoin="round" stroke-linecap="round"/>
  </g>
  <line fill="none" xmlns="http://www.w3.org/2000/svg" stroke="#000000" stroke-linejoin="round" stroke-linecap="round" y1="72.88" x1="21.6" y2="72.88" x2="41.634"/>
  <polyline fill="none" points="66.941,77.609 69.13,77.609 69.13,94.48 21.6,94.48 " xmlns="http://www.w3.org/2000/svg" stroke="#000000" stroke-linejoin="round" stroke-linecap="round"/>
  <g xmlns="http://www.w3.org/2000/svg">
   <g xmlns="http://www.w3.org/2000/svg">
    <rect width="18.996" x="41.634" y="113.08" fill="none" xmlns="http://www.w3.org/2000/svg" height="15.457" stroke="#000000" stroke-linejoin="round" stroke-linecap="round"/>
    <circle fill="none" cx="64.198" xmlns="http://www.w3.org/2000/svg" cy="120.809" stroke="#000000" stroke-linejoin="round" stroke-linecap="round" r="2.744"/>
   </g>
   <polyline fill="none" points="43.833,124.379 50.333,124.379 54.838,117.007 58.083,117.007 " xmlns="http://www.w3.org/2000/svg" stroke="#000000" stroke-linejoin="round" stroke-linecap="round"/>
   <polyline fill="none" points="46.514,124.379 51.019,117.007 55.139,117.007 " xmlns="http://www.w3.org/2000/svg" stroke="#000000" stroke-linejoin="round" stroke-linecap="round"/>
  </g>
  <line fill="none" xmlns="http://www.w3.org/2000/svg" stroke="#000000" stroke-linejoin="round" stroke-linecap="round" y1="116.08" x1="21.6" y2="116.08" x2="41.634"/>
  <polyline fill="none" points="66.941,120.809 69.13,120.809 69.13,137.68 21.6,137.68 " xmlns="http://www.w3.org/2000/svg" stroke="#000000" stroke-linejoin="round" stroke-linecap="round"/>
  <line fill="none" xmlns="http://www.w3.org/2000/svg" stroke="#000000" stroke-linejoin="round" stroke-linecap="round" y1="51.28" x1="110.38" y2="51.28" x2="129.63"/>
  <polyline fill="none" points="84.886,56.251 82.88,56.251 82.88,72.88 129.63,72.88 " xmlns="http://www.w3.org/2000/svg" stroke="#000000" stroke-linejoin="round" stroke-linecap="round"/>
  <g xmlns="http://www.w3.org/2000/svg">
   <rect width="18.995" x="90.635" y="91.723" fill="none" xmlns="http://www.w3.org/2000/svg" height="15.457" stroke="#000000" stroke-linejoin="round" stroke-linecap="round"/>
   <circle fill="none" cx="87.629" xmlns="http://www.w3.org/2000/svg" cy="99.451" stroke="#000000" stroke-linejoin="round" stroke-linecap="round" r="2.744"/>
   <polyline fill="none" points="92.833,103.021 99.333,103.021 103.838,95.65 107.083,95.65 " xmlns="http://www.w3.org/2000/svg" stroke="#000000" stroke-linejoin="round" stroke-linecap="round"/>
   <polyline fill="none" points="95.514,103.021 100.019,95.65 104.139,95.65 " xmlns="http://www.w3.org/2000/svg" stroke="#000000" stroke-linejoin="round" stroke-linecap="round"/>
  </g>
  <line fill="none" xmlns="http://www.w3.org/2000/svg" stroke="#000000" stroke-linejoin="round" stroke-linecap="round" y1="94.48" x1="110.38" y2="94.48" x2="129.63"/>
  <polyline fill="none" points="84.886,99.451 82.88,99.451 82.88,116.08 129.63,116.08 " xmlns="http://www.w3.org/2000/svg" stroke="#000000" stroke-linejoin="round" stroke-linecap="round"/>
  <g xmlns="http://www.w3.org/2000/svg">
   <rect width="18.995" x="90.635" y="134.922" fill="none" xmlns="http://www.w3.org/2000/svg" height="15.456" stroke="#000000" stroke-linejoin="round" stroke-linecap="round"/>
   <circle fill="none" cx="87.629" xmlns="http://www.w3.org/2000/svg" cy="142.651" stroke="#000000" stroke-linejoin="round" stroke-linecap="round" r="2.743"/>
   <polyline fill="none" points="92.833,146.223 99.333,146.223 103.838,138.85 107.083,138.85 " xmlns="http://www.w3.org/2000/svg" stroke="#000000" stroke-linejoin="round" stroke-linecap="round"/>
   <polyline fill="none" points="95.514,146.223 100.019,138.85 104.139,138.85 " xmlns="http://www.w3.org/2000/svg" stroke="#000000" stroke-linejoin="round" stroke-linecap="round"/>
  </g>
  <line fill="none" xmlns="http://www.w3.org/2000/svg" stroke="#000000" stroke-linejoin="round" stroke-linecap="round" y1="137.68" x1="110.38" y2="137.68" x2="129.63"/>
  <polyline fill="none" points="84.886,142.65 82.88,142.65 82.88,159.279 129.63,159.279 " xmlns="http://www.w3.org/2000/svg" stroke="#000000" stroke-linejoin="round" stroke-linecap="round"/>
  <rect width="0.002" x="151.23" y="29.678" fill="none" xmlns="http://www.w3.org/2000/svg" height="0.002" id="connector13terminal"/>
  <rect width="0.002" x="151.23" y="51.278" fill="none" xmlns="http://www.w3.org/2000/svg" height="0.002" id="connector12terminal"/>
  <rect width="0.002" x="151.23" y="72.878" fill="none" xmlns="http://www.w3.org/2000/svg" height="0.002" id="connector11terminal"/>
  <rect width="0.002" x="151.23" y="94.479" fill="none" xmlns="http://www.w3.org/2000/svg" height="0.002" id="connector10terminal"/>
  <rect width="0.002" x="151.23" y="116.078" fill="none" xmlns="http://www.w3.org/2000/svg" height="0.002" id="connector9terminal"/>
  <rect width="0.002" x="151.23" y="137.678" fill="none" xmlns="http://www.w3.org/2000/svg" height="0.002" id="connector8terminal"/>
  <rect width="0.002" x="151.23" y="159.277" fill="none" xmlns="http://www.w3.org/2000/svg" height="0.002" id="connector7terminal"/>
  <rect width="0.002" x="1.5" y="29.678" fill="none" xmlns="http://www.w3.org/2000/svg" height="0.002" id="connector0terminal"/>
  <rect width="0.002" x="1.5" y="51.278" fill="none" xmlns="http://www.w3.org/2000/svg" height="0.002" id="connector1terminal"/>
  <rect width="0.002" x="1.5" y="72.878" fill="none" xmlns="http://www.w3.org/2000/svg" height="0.002" id="connector2terminal"/>
  <rect width="0.002" x="1.5" y="94.479" fill="none" xmlns="http://www.w3.org/2000/svg" height="0.002" id="connector3terminal"/>
  <rect width="0.002" x="1.5" y="116.078" fill="none" xmlns="http://www.w3.org/2000/svg" height="0.002" id="connector4terminal"/>
  <rect width="0.002" x="1.5" y="137.678" fill="none" xmlns="http://www.w3.org/2000/svg" height="0.002" id="connector5terminal"/>
  <rect width="0.002" x="1.5" y="159.277" fill="none" xmlns="http://www.w3.org/2000/svg" height="0.002" id="connector6terminal"/>
 </g>
 <g xmlns="http://www.w3.org/2000/svg" id="flowRoot3040"/>
</svg>
