<?xml version="1.0" encoding="utf-8"?>
<!-- Generator: Adobe Illustrator 14.0.0, SVG Export Plug-In . SVG Version: 6.00 Build 43363)  -->
<!DOCTYPE svg PUBLIC "-//W3C//DTD SVG 1.1//EN" "http://www.w3.org/Graphics/SVG/1.1/DTD/svg11.dtd">
<svg version="1.1"
	 id="svg2" xmlns:dc="http://purl.org/dc/elements/1.1/" xmlns:rdf="http://www.w3.org/1999/02/22-rdf-syntax-ns#" xmlns:svg="http://www.w3.org/2000/svg" xmlns:cc="http://creativecommons.org/ns#"
	 xmlns="http://www.w3.org/2000/svg" xmlns:xlink="http://www.w3.org/1999/xlink" x="0px" y="0px" width="32.024px"
	 height="29.13px" viewBox="0 0 32.024 29.13" enable-background="new 0 0 32.024 29.13" xml:space="preserve">
<g id="breadboard">
	<rect id="connector0pin" x="14.922" y="25.53" fill="none" width="2.16" height="3.251"/>
	<rect id="connector2pin" x="0.661" y="17.894" fill="none" width="2.881" height="2.16"/>
	<rect id="connector1pin" x="28.415" y="17.762" fill="none" width="3.076" height="2.159"/>
	<rect id="connector0terminal" x="14.922" y="25.621" fill="none" width="2.16" height="3.16"/>
	<rect id="connector1terminal" x="29.331" y="17.762" fill="none" width="2.16" height="2.159"/>
	<rect id="connector2terminal" x="0.661" y="17.894" fill="none" width="2.16" height="2.16"/>
	<g id="legs">
		<g id="pin0">
			<rect id="rect10" x="2.91" y="16.382" fill="#8C8C8C" width="1.439" height="4.89"/>
			<rect id="rect14" x="0.477" y="17.822" fill="#8C8C8C" width="3.679" height="2.16"/>
		</g>
		<g id="pin2">
			<rect id="rect8" x="27.56" y="16.235" fill="#8C8C8C" width="1.441" height="4.915"/>
			<rect id="rect16" x="27.754" y="17.676" fill="#8C8C8C" width="3.699" height="2.16"/>
		</g>
		<g id="legs_1_">
			<g id="pin0_1_">
				<rect id="rect10_1_" x="26.748" y="16.295" fill="#8C8C8C" width="2.272" height="4.891"/>
				<rect id="rect14_1_" x="27.774" y="17.584" fill="#8C8C8C" width="3.679" height="2.16"/>
			</g>
			<g id="pin2_1_">
				<rect id="rect8_1_" x="2.928" y="16.416" fill="#8C8C8C" width="2.277" height="4.916"/>
				<rect id="rect16_1_" x="0.477" y="17.73" fill="#8C8C8C" width="3.699" height="2.16"/>
			</g>
			<g id="pin1_1_">
				<rect id="rect18_1_" x="14.915" y="26.447" fill="#8C8C8C" width="2.16" height="2.24"/>
			</g>
		</g>
	</g>
	<rect id="rect12" x="13.64" y="6.261" fill="#8C8C8C" width="4.465" height="3.06"/>
	<path fill="#B78F2A" d="M27.56,14.796c1.021,4.261-0.812,10.136-7.312,12.761S6.653,25.799,4.935,21.827s-2-4.625-2-4.625
		L26.06,8.827C26.06,8.827,26.54,10.535,27.56,14.796z"/>
	<circle fill="#D8B45D" stroke="#DBAA21" cx="14.531" cy="13.113" r="11.75"/>
	<path fill="#AAAAAA" d="M6.689,5c-4.328,4.321-4.149,10.88,0,15.031c4.151,4.148,10.879,4.148,15.028,0L6.689,5z"/>
	<circle fill="#8C8C8C" cx="13.812" cy="11.072" r="2.625"/>
	<path fill="#8C8C8C" d="M13.822,0.384C7.706,0.377,3.196,5.143,3.196,11.014c0,5.868,4.758,10.624,10.626,10.624V0.384z"/>
	<circle fill="#BCA061" cx="13.593" cy="10.958" r="2.438"/>
	<polygon fill="#BCA061" points="11.437,12.076 15.891,10.176 14.453,6.755 10.107,8.927 	"/>
	<circle fill="#FFD56C" cx="12.31" cy="7.896" r="2.438"/>
	<line fill="none" stroke="#DBAA21" stroke-width="0.5" x1="14.154" y1="6.303" x2="10.435" y2="9.451"/>
	<g id="pin1_2_">
		<rect id="rect18_2_" x="14.915" y="26.53" fill="#8C8C8C" width="2.16" height="2.24"/>
	</g>
	<g id="pin1_3_">
		<polygon id="rect18_3_" fill="#AAAAAA" points="14.005,25.357 16.165,25.357 17.076,26.747 14.916,26.747 		"/>
	</g>
	<rect x="14.005" y="21.399" fill="#AAAAAA" width="2.16" height="3.958"/>
</g>
</svg>
