<?xml version="1.0" encoding="utf-8"?>
<svg version="1.2" baseProfile="tiny" id="svg2" xmlns:svg="http://www.w3.org/2000/svg"
	 xmlns="http://www.w3.org/2000/svg" xmlns:xlink="http://www.w3.org/1999/xlink" x="0px" y="0px" width="2.947in"
	 height="2.056in" viewBox="0 0 212.184 148.032" xml:space="preserve">
<rect id="connector0pin" x="82.648" y="4.11" width="2.774" height="2.773"/>
<rect id="connector1pin" x="89.825" y="4.11" width="2.772" height="2.773"/>
<rect id="connector2pin" x="97.003" y="4.11" width="2.772" height="2.773"/>
<rect id="connector3pin" x="104.18" y="4.11" width="2.774" height="2.773"/>
<rect id="connector4pin" x="111.359" y="4.11" width="2.773" height="2.773"/>
<rect id="connector5pin" x="118.535" y="4.11" width="2.772" height="2.773"/>
<rect id="connector6pin" x="125.714" y="4.11" width="2.773" height="2.773"/>
<rect id="connector7pin" x="132.892" y="4.11" width="2.773" height="2.773"/>
<rect id="connector8pin" x="147.438" y="4.11" width="2.772" height="2.773"/>
<rect id="connector9pin" x="154.615" y="4.11" width="2.773" height="2.773"/>
<rect id="connector10pin" x="161.792" y="4.11" width="2.772" height="2.773"/>
<rect id="connector11pin" x="168.97" y="4.11" width="2.772" height="2.773"/>
<rect id="connector12pin" x="176.147" y="4.11" width="2.774" height="2.773"/>
<rect id="connector13pin" x="183.324" y="4.11" width="2.772" height="2.773"/>
<rect id="connector14pin" x="190.502" y="4.11" width="2.771" height="2.773"/>
<rect id="connector15pin" x="197.68" y="4.11" width="2.774" height="2.773"/>
<rect id="connector16pin" x="111.443" y="140.887" width="2.774" height="2.771"/>
<rect id="connector17pin" x="118.642" y="140.887" width="2.774" height="2.771"/>
<rect id="connector18pin" x="125.84" y="140.887" width="2.773" height="2.771"/>
<rect id="connector19pin" x="133.018" y="140.887" width="2.772" height="2.771"/>
<rect id="connector20pin" x="140.196" y="140.887" width="2.774" height="2.771"/>
<rect id="connector21pin" x="147.372" y="140.887" width="2.773" height="2.771"/>
<rect id="connector22pin" x="161.835" y="140.887" width="2.771" height="2.771"/>
<rect id="connector23pin" x="169.012" y="140.887" width="2.773" height="2.771"/>
<rect id="connector24pin" x="176.19" y="140.887" width="2.773" height="2.771"/>
<rect id="connector25pin" x="183.367" y="140.887" width="2.772" height="2.771"/>
<rect id="connector26pin" x="190.544" y="140.887" width="2.772" height="2.771"/>
<rect id="connector27pin" x="197.722" y="140.887" width="2.771" height="2.771"/>
<g id="breadboardbreadboard">
	<g>
		<g>
			<path fill="#0F7391" d="M205.249,35.918V3.694L201.262,0H21.974v148.032h183.277v-5.033l6.923-7.135V42.507L205.249,35.918z
				 M64.771,10.87c-2.524,0-4.574-2.049-4.574-4.574s2.05-4.574,4.574-4.574c2.525,0,4.574,2.049,4.574,4.574
				S67.296,10.87,64.771,10.87z M205.501,45.819c1.62,0,2.936,1.317,2.936,2.938c0,1.623-1.314,2.936-2.936,2.936
				c-1.623,0-2.939-1.313-2.939-2.936C202.562,47.137,203.878,45.819,205.501,45.819z M206.003,130.747
				c-2.363,0-4.278-1.916-4.278-4.276c0-2.367,1.915-4.281,4.278-4.281c2.364,0,4.276,1.914,4.276,4.281
				C210.282,128.831,208.367,130.747,206.003,130.747z"/>
		</g>
	</g>
	<path fill="#02809E" d="M100.371,68.774c0-1.004-0.736-1.831-1.697-1.984v-0.029h-6.86c-1.111,0-2.014,0.901-2.014,2.014
		c0,1.112,0.901,2.015,2.014,2.015h6.86v-0.032C99.633,70.605,100.371,69.78,100.371,68.774z"/>
	<path fill="#02809E" d="M100.371,62.721c0-1.003-0.736-1.829-1.697-1.982v-0.031h-6.86c-1.111,0-2.014,0.903-2.014,2.014
		c0,1.114,0.901,2.015,2.014,2.015h6.86v-0.031C99.633,64.553,100.371,63.725,100.371,62.721z"/>
	<path fill="#02809E" d="M100.371,56.669c0-1.005-0.736-1.831-1.697-1.984v-0.031h-6.86c-1.111,0-2.014,0.903-2.014,2.015
		c0,1.112,0.901,2.014,2.014,2.014h6.86v-0.031C99.633,58.499,100.371,57.673,100.371,56.669z"/>
	<path fill="#02809E" d="M127.828,63.88c0-1.005-0.736-1.83-1.699-1.982v-0.031h-6.858c-1.111,0-2.015,0.9-2.015,2.013
		c0,1.113,0.902,2.014,2.015,2.014h6.858v-0.031C127.091,65.711,127.828,64.885,127.828,63.88z"/>
	<path fill="#02809E" d="M144.584,74.422c0-3.033-2.229-5.529-5.133-5.989v-0.094h-17.522c-3.358,0-6.082,2.723-6.082,6.083
		s2.724,6.083,6.082,6.083h17.522v-0.094C142.357,79.95,144.584,77.454,144.584,74.422z"/>
	<path fill="#02809E" d="M142.429,63.88c0-1.005-0.735-1.83-1.696-1.982v-0.031h-6.859c-1.112,0-2.015,0.9-2.015,2.013
		c0,1.113,0.901,2.014,2.015,2.014h6.859v-0.031C141.692,65.711,142.429,64.885,142.429,63.88z"/>
	<path fill="#02809E" d="M159.886,63.88c0-1.005-0.735-1.83-1.696-1.982v-0.031h-6.859c-1.113,0-2.016,0.9-2.016,2.013
		c0,1.113,0.901,2.014,2.016,2.014h6.858v-0.031C159.149,65.711,159.886,64.885,159.886,63.88z"/>
	<path fill="#02809E" d="M159.886,71.619c0-1.005-0.735-1.831-1.696-1.983v-0.031h-6.859c-1.113,0-2.016,0.901-2.016,2.014
		c0,1.113,0.901,2.014,2.016,2.014h6.858v-0.031C159.149,73.45,159.886,72.624,159.886,71.619z"/>
	<path fill="#02809E" d="M159.886,79.357c0-1.005-0.735-1.831-1.696-1.981v-0.031h-6.859c-1.113,0-2.016,0.9-2.016,2.014
		s0.901,2.016,2.016,2.016h6.858V81.34C159.149,81.188,159.886,80.362,159.886,79.357z"/>
	<path fill="#02809E" d="M174.37,67.316c0-1.004-0.735-1.831-1.697-1.982v-0.031h-6.859c-1.111,0-2.014,0.901-2.014,2.014
		c0,1.113,0.901,2.014,2.014,2.014h6.859V69.3C173.634,69.147,174.37,68.32,174.37,67.316z"/>
	<path fill="#02809E" d="M174.37,79.793c0-1.004-0.735-1.83-1.697-1.982v-0.029h-6.859c-1.111,0-2.014,0.9-2.014,2.012
		c0,1.113,0.901,2.017,2.014,2.017h6.859v-0.031C173.634,81.625,174.37,80.797,174.37,79.793z"/>
	<path fill="#02809E" d="M178.143,67.316c0-1.004,0.735-1.831,1.697-1.982v-0.031h6.858c1.111,0,2.013,0.901,2.013,2.014
		c0,1.113-0.9,2.014-2.013,2.014h-6.858V69.3C178.879,69.147,178.143,68.32,178.143,67.316z"/>
	<path fill="#02809E" d="M178.143,79.793c0-1.004,0.735-1.83,1.697-1.982v-0.029h6.858c1.111,0,2.013,0.9,2.013,2.012
		c0,1.113-0.9,2.017-2.013,2.017h-6.858v-0.031C178.879,81.625,178.143,80.797,178.143,79.793z"/>
	<path fill="#02809E" d="M100.371,80.879c0-1.004-0.736-1.828-1.697-1.98v-0.031h-6.86c-1.111,0-2.014,0.9-2.014,2.014
		s0.901,2.017,2.014,2.017h6.86v-0.034C99.633,82.711,100.371,81.887,100.371,80.879z"/>
	<path fill="#02809E" d="M100.371,26.401c0-1.004-0.736-1.829-1.697-1.981v-0.033h-6.86c-1.111,0-2.014,0.901-2.014,2.014
		c0,1.113,0.901,2.016,2.014,2.016h6.86v-0.034C99.633,28.231,100.371,27.407,100.371,26.401z"/>
	<path fill="#02809E" d="M66.897,21.901c0-1.004-0.735-1.829-1.696-1.981v-0.032h-6.86c-1.112,0-2.015,0.901-2.015,2.013
		c0,1.112,0.901,2.017,2.015,2.017h6.859v-0.034C66.159,23.732,66.897,22.908,66.897,21.901z"/>
	<path fill="#02809E" d="M79.675,21.901c0-1.004-0.737-1.829-1.698-1.981v-0.032h-6.858c-1.112,0-2.016,0.901-2.016,2.013
		c0,1.112,0.902,2.017,2.016,2.017h6.858v-0.034C78.937,23.732,79.675,22.908,79.675,21.901z"/>
	<path fill="#02809E" d="M100.371,38.508c0-1.004-0.736-1.829-1.697-1.982v-0.031h-6.86c-1.111,0-2.014,0.901-2.014,2.014
		c0,1.113,0.901,2.015,2.014,2.015h6.86v-0.031C99.633,40.338,100.371,39.513,100.371,38.508z"/>
	<path fill="#02809E" d="M76.38,100.67c0-1.004-0.735-1.83-1.697-1.98v-0.033h-6.859c-1.113,0-2.015,0.902-2.015,2.014
		c0,1.113,0.9,2.017,2.015,2.017h6.858v-0.032C75.643,102.5,76.38,101.674,76.38,100.67z"/>
	<path fill="#02809E" d="M76.38,92.392c0-1.005-0.735-1.829-1.697-1.981v-0.031h-6.859c-1.113,0-2.015,0.9-2.015,2.014
		s0.9,2.016,2.015,2.016h6.858v-0.031C75.643,94.223,76.38,93.397,76.38,92.392z"/>
	<path fill="#02809E" d="M59.194,69.636c1.006,0,1.831-0.737,1.982-1.699h0.034v-4.846c0-1.11-0.904-2.016-2.018-2.016
		c-1.11,0-2.014,0.904-2.014,2.016v4.846h0.031C57.365,68.899,58.19,69.636,59.194,69.636z"/>
	<path fill="#02809E" d="M66.578,69.636c1.005,0,1.832-0.737,1.981-1.699h0.032v-4.846c0-1.11-0.901-2.016-2.015-2.016
		c-1.111,0-2.016,0.904-2.016,2.016v4.846h0.031C64.75,68.899,65.575,69.636,66.578,69.636z"/>
	<path fill="#02809E" d="M73.963,69.636c1.005,0,1.831-0.737,1.98-1.699h0.033v-4.846c0-1.11-0.9-2.016-2.015-2.016
		c-1.111,0-2.016,0.904-2.016,2.016v4.846h0.032C72.135,68.899,72.96,69.636,73.963,69.636z"/>
	<path fill="#02809E" d="M81.348,69.636c1.005,0,1.832-0.737,1.983-1.699h0.031v-4.846c0-1.11-0.901-2.016-2.016-2.016
		c-1.111,0-2.014,0.904-2.014,2.016v4.846h0.03C79.519,68.899,80.345,69.636,81.348,69.636z"/>
	<path fill="#02809E" d="M167.086,47.197c0,1.005,0.737,1.832,1.699,1.984v0.029h6.859c1.111,0,2.015-0.9,2.015-2.013
		c0-1.111-0.902-2.014-2.015-2.014h-6.859v0.031C167.824,45.367,167.086,46.194,167.086,47.197z"/>
	<path fill="#02809E" d="M56.571,94.258c0-1.004-0.736-1.832-1.698-1.982v-0.033h-6.859c-1.114,0-2.016,0.901-2.016,2.018
		c0,1.109,0.9,2.014,2.016,2.014h6.858v-0.031C55.832,96.088,56.571,95.262,56.571,94.258z"/>
	<path fill="#02809E" d="M56.571,100.805c0-1.006-0.736-1.83-1.698-1.984v-0.029h-6.859c-1.114,0-2.016,0.898-2.016,2.015
		c0,1.108,0.9,2.014,2.016,2.014h6.858v-0.03C55.832,102.631,56.571,101.808,56.571,100.805z"/>
	<path fill="#02809E" d="M56.571,107.35c0-1.005-0.736-1.83-1.698-1.982v-0.031h-6.859c-1.114,0-2.016,0.902-2.016,2.015
		s0.9,2.015,2.016,2.015h6.858v-0.031C55.832,109.181,56.571,108.356,56.571,107.35z"/>
	<rect x="29.884" y="90.799" fill="#02809E" width="20.308" height="19.303"/>
	<rect x="26.36" y="93.149" fill="#02809E" width="5.036" height="14.602"/>
	<circle fill="#02809E" cx="74.819" cy="6.078" r="1.762"/>
	<g>
		<g>
			<path fill="#02809E" d="M74.819,1.633c-2.457,0-4.448,1.991-4.448,4.446c0,2.458,1.991,4.447,4.448,4.447
				c2.456,0,4.448-1.99,4.448-4.447C79.266,3.623,77.275,1.633,74.819,1.633z M74.819,10.064c-2.202,0-3.986-1.785-3.986-3.986
				c0-2.201,1.785-3.986,3.986-3.986c2.202,0,3.985,1.785,3.985,3.986C78.804,8.28,77.02,10.064,74.819,10.064z"/>
		</g>
	</g>
	<circle fill="#02809E" cx="28.963" cy="141.398" r="1.763"/>
	<g>
		<g>
			<path fill="#02809E" d="M28.964,136.952c-2.457,0-4.45,1.992-4.45,4.447c0,2.457,1.993,4.447,4.45,4.447
				c2.454,0,4.447-1.99,4.447-4.447C33.411,138.944,31.42,136.952,28.964,136.952z M28.964,145.383
				c-2.204,0-3.987-1.783-3.987-3.984s1.785-3.986,3.987-3.986c2.201,0,3.984,1.784,3.984,3.986
				C32.949,143.6,31.165,145.383,28.964,145.383z"/>
		</g>
	</g>
	<circle fill="#02809E" cx="197.025" cy="31.557" r="1.762"/>
	<g>
		<g>
			<path fill="#02809E" d="M197.026,27.108c-2.456,0-4.449,1.993-4.449,4.449c0,2.455,1.993,4.444,4.449,4.444
				c2.453,0,4.448-1.99,4.448-4.444C201.473,29.101,199.481,27.108,197.026,27.108z M197.026,35.541
				c-2.204,0-3.985-1.785-3.985-3.984c0-2.204,1.785-3.987,3.985-3.987s3.982,1.784,3.982,3.987
				C201.009,33.757,199.226,35.541,197.026,35.541z"/>
		</g>
	</g>
	<circle fill="#02809E" cx="30.304" cy="24.842" r="4.28"/>
	<circle fill="#02809E" cx="30.304" cy="59.583" r="4.28"/>
	<rect x="54.807" y="33.454" fill="#02809E" width="28.531" height="16.113"/>
	<rect x="61.381" y="110.083" fill="#02809E" width="17.538" height="7.973"/>
	<rect x="62.281" y="77.329" fill="#02809E" width="16.163" height="9.348"/>
	<rect x="101.213" y="92.522" fill="#02809E" width="96.841" height="21.482"/>
	<circle fill="#02809E" cx="52.584" cy="125.919" r="5.665"/>
	<circle fill="#02809E" cx="45.199" cy="139.682" r="5.664"/>
	<path fill="#02809E" d="M83.573,137.56c0.432-1.115,0.675-2.319,0.675-3.585c0-5.491-4.453-9.941-9.942-9.941
		s-9.943,4.451-9.943,9.941c0,2.574,0.986,4.913,2.593,6.678L83.573,137.56z"/>
	<path fill="#02809E" d="M106.783,137.56c0.432-1.115,0.675-2.319,0.675-3.585c0-5.491-4.453-9.941-9.942-9.941
		c-5.493,0-9.942,4.451-9.942,9.941c0,2.574,0.985,4.913,2.592,6.678L106.783,137.56z"/>
	<path fill="#8D8C8C" d="M100.371,44.561c0-1.004-0.736-1.829-1.697-1.982v-0.031h-6.86c-1.111,0-2.014,0.901-2.014,2.013
		s0.901,2.015,2.014,2.015h6.86v-0.032C99.633,46.392,100.371,45.567,100.371,44.561z"/>
	<rect x="93.323" y="42.925" fill="#FBBE0E" width="3.648" height="3.21"/>
	<path fill="#8D8C8C" d="M100.371,32.455c0-1.004-0.736-1.829-1.697-1.982v-0.031h-6.86c-1.111,0-2.014,0.901-2.014,2.014
		c0,1.113,0.901,2.015,2.014,2.015h6.86v-0.032C99.633,34.286,100.371,33.46,100.371,32.455z"/>
	<rect x="93.323" y="30.819" fill="#FBBE0E" width="3.648" height="3.21"/>
	<path fill="#8D8C8C" d="M190.522,47.197c0-1.004-0.736-1.83-1.697-1.981v-0.032h-6.859c-1.113,0-2.015,0.901-2.015,2.014
		c0,1.112,0.9,2.015,2.015,2.015h6.859v-0.032C189.782,49.026,190.522,48.2,190.522,47.197z"/>
	<rect x="183.473" y="45.561" fill="#FBBE0E" width="3.648" height="3.21"/>
	<path fill="#8D8C8C" d="M100.371,50.615c0-1.004-0.736-1.83-1.697-1.983v-0.031h-6.86c-1.111,0-2.014,0.903-2.014,2.014
		c0,1.113,0.901,2.015,2.014,2.015h6.86v-0.032C99.633,52.446,100.371,51.62,100.371,50.615z"/>
	<rect x="93.323" y="48.978" fill="#FBBE0E" width="3.648" height="3.21"/>
	<rect x="168.263" y="64.996" fill="#8D8C8C" width="16.615" height="16.991"/>
	<path fill="#404040" d="M184.502,67.386c0,0.835-0.677,1.513-1.514,1.513c-0.834,0-1.512-0.675-1.512-1.513
		c0-0.832,0.675-1.513,1.512-1.513C183.825,65.876,184.502,66.555,184.502,67.386z"/>
	<path fill="#404040" d="M171.788,67.386c0,0.835-0.677,1.513-1.513,1.513c-0.837,0-1.513-0.675-1.513-1.513
		c0-0.832,0.675-1.513,1.513-1.513C171.112,65.876,171.788,66.555,171.788,67.386z"/>
	<circle fill="#404040" cx="170.277" cy="80.101" r="1.511"/>
	<circle fill="#404040" cx="182.991" cy="80.101" r="1.511"/>
	<circle fill="#404040" cx="176.256" cy="73.492" r="4.909"/>
	<polygon fill="#404040" points="208.373,59.78 204.441,59.78 201.1,59.78 197.167,59.78 195.656,61.289 195.656,65.223 
		197.167,66.732 201.1,66.732 204.441,66.732 208.373,66.732 209.885,65.223 209.885,61.289 	"/>
	<polygon fill="#404040" points="208.373,66.961 204.441,66.961 201.1,66.961 197.167,66.961 195.656,68.471 195.656,72.403 
		197.167,73.915 201.1,73.915 204.441,73.915 208.373,73.915 209.885,72.403 209.885,68.471 	"/>
	<polygon fill="#404040" points="208.373,74.14 204.441,74.14 201.1,74.14 197.167,74.14 195.656,75.651 195.656,79.584 
		197.167,81.094 201.1,81.094 204.441,81.094 208.373,81.094 209.885,79.584 209.885,75.651 	"/>
	<polygon fill="#404040" points="208.373,59.78 204.441,59.78 201.1,59.78 197.167,59.78 195.656,61.289 195.656,65.223 
		197.167,66.732 201.1,66.732 204.441,66.732 208.373,66.732 209.885,65.223 209.885,61.289 	"/>
	<polygon fill="#404040" points="208.373,66.961 204.441,66.961 201.1,66.961 197.167,66.961 195.656,68.471 195.656,72.403 
		197.167,73.915 201.1,73.915 204.441,73.915 208.373,73.915 209.885,72.403 209.885,68.471 	"/>
	<polygon fill="#404040" points="208.373,74.14 204.441,74.14 201.1,74.14 197.167,74.14 195.656,75.651 195.656,79.584 
		197.167,81.094 201.1,81.094 204.441,81.094 208.373,81.094 209.885,79.584 209.885,75.651 	"/>
	<rect x="198.065" y="76.334" fill="#8D8C8C" width="2.298" height="2.299"/>
	<rect x="205.264" y="76.334" fill="#8D8C8C" width="2.297" height="2.299"/>
	<rect x="198.065" y="69.136" fill="#8D8C8C" width="2.298" height="2.298"/>
	<rect x="205.264" y="69.136" fill="#8D8C8C" width="2.297" height="2.298"/>
	<rect x="198.065" y="61.937" fill="#8D8C8C" width="2.298" height="2.298"/>
	<rect x="205.264" y="61.937" fill="#8D8455" width="2.297" height="2.298"/>
	<polygon fill="#404040" points="35.611,66.808 31.677,66.808 35.611,66.808 31.677,66.808 30.165,68.318 30.165,72.253 
		31.677,73.763 35.611,73.763 31.677,73.763 35.611,73.763 37.12,72.253 37.12,68.318 	"/>
	<rect x="205.823" y="62.495" fill="#8C8663" width="1.182" height="1.182"/>
	<polygon fill="#B8AF82" points="205.264,61.937 205.823,62.495 207.003,62.495 207.562,61.937 	"/>
	<polygon fill="#80795B" points="207.003,63.677 207.003,62.495 207.562,61.937 207.562,64.235 	"/>
	<polygon fill="#5E5B43" points="205.823,63.677 207.003,63.677 207.562,64.235 205.264,64.235 	"/>
	<polygon fill="#9A916C" points="205.264,61.937 205.823,62.495 205.823,63.677 205.264,64.235 	"/>
	<rect x="198.623" y="62.495" fill="#8C8663" width="1.182" height="1.182"/>
	<polygon fill="#B8AF82" points="198.065,61.937 198.623,62.495 199.804,62.495 200.363,61.937 	"/>
	<polygon fill="#80795B" points="199.804,63.677 199.804,62.495 200.363,61.937 200.363,64.235 	"/>
	<polygon fill="#5E5B43" points="198.623,63.677 199.804,63.677 200.363,64.235 198.065,64.235 	"/>
	<polygon fill="#9A916C" points="198.065,61.937 198.623,62.495 198.623,63.677 198.065,64.235 	"/>
	<rect x="205.823" y="69.693" fill="#8C8663" width="1.182" height="1.182"/>
	<polygon fill="#B8AF82" points="205.264,69.136 205.823,69.693 207.003,69.693 207.562,69.136 	"/>
	<polygon fill="#80795B" points="207.003,70.875 207.003,69.693 207.562,69.136 207.562,71.434 	"/>
	<polygon fill="#5E5B43" points="205.823,70.875 207.003,70.875 207.562,71.434 205.264,71.434 	"/>
	<polygon fill="#9A916C" points="205.264,69.136 205.823,69.693 205.823,70.875 205.264,71.434 	"/>
	<rect x="198.623" y="69.693" fill="#8C8663" width="1.182" height="1.182"/>
	<polygon fill="#B8AF82" points="198.065,69.136 198.623,69.693 199.804,69.693 200.363,69.136 	"/>
	<polygon fill="#80795B" points="199.804,70.875 199.804,69.693 200.363,69.136 200.363,71.434 	"/>
	<polygon fill="#5E5B43" points="198.623,70.875 199.804,70.875 200.363,71.434 198.065,71.434 	"/>
	<polygon fill="#9A916C" points="198.065,69.136 198.623,69.693 198.623,70.875 198.065,71.434 	"/>
	<rect x="205.823" y="76.892" fill="#8C8663" width="1.182" height="1.183"/>
	<polygon fill="#B8AF82" points="205.264,76.334 205.823,76.892 207.003,76.892 207.562,76.334 	"/>
	<polygon fill="#80795B" points="207.003,78.075 207.003,76.892 207.562,76.334 207.562,78.633 	"/>
	<polygon fill="#5E5B43" points="205.823,78.075 207.003,78.075 207.562,78.633 205.264,78.633 	"/>
	<polygon fill="#9A916C" points="205.264,76.334 205.823,76.892 205.823,78.075 205.264,78.633 	"/>
	<rect x="198.623" y="76.892" fill="#8C8663" width="1.182" height="1.183"/>
	<polygon fill="#B8AF82" points="198.065,76.334 198.623,76.892 199.804,76.892 200.363,76.334 	"/>
	<polygon fill="#80795B" points="199.804,78.075 199.804,76.892 200.363,76.334 200.363,78.633 	"/>
	<polygon fill="#5E5B43" points="198.623,78.075 199.804,78.075 200.363,78.633 198.065,78.633 	"/>
	<polygon fill="#9A916C" points="198.065,76.334 198.623,76.892 198.623,78.075 198.065,78.633 	"/>
	<rect x="33.053" y="69.693" fill="#8C8663" width="1.181" height="1.182"/>
	<polygon fill="#B8AF82" points="32.493,69.136 33.053,69.693 34.233,69.693 34.791,69.136 	"/>
	<polygon fill="#80795B" points="34.233,70.875 34.233,69.693 34.791,69.136 34.791,71.434 	"/>
	<polygon fill="#5E5B43" points="33.053,70.875 34.233,70.875 34.791,71.434 32.493,71.434 	"/>
	<polygon fill="#9A916C" points="32.493,69.136 33.053,69.693 33.053,70.875 32.493,71.434 	"/>
	<polygon fill="#404040" points="35.611,74.006 31.678,74.006 35.611,74.006 31.678,74.006 30.166,75.518 30.166,79.452 
		31.678,80.961 35.611,80.961 31.678,80.961 35.611,80.961 37.121,79.452 37.121,75.518 	"/>
	<rect x="33.053" y="76.892" fill="#8C8663" width="1.182" height="1.183"/>
	<polygon fill="#B8AF82" points="32.494,76.334 33.053,76.892 34.234,76.892 34.792,76.334 	"/>
	<polygon fill="#80795B" points="34.234,78.075 34.234,76.892 34.792,76.334 34.792,78.633 	"/>
	<polygon fill="#5E5B43" points="33.053,78.075 34.234,78.075 34.792,78.633 32.494,78.633 	"/>
	<polygon fill="#9A916C" points="32.494,76.334 33.053,76.892 33.053,78.075 32.494,78.633 	"/>
	<polygon fill="#404040" points="35.611,81.206 31.677,81.206 35.611,81.206 31.677,81.206 30.165,82.715 30.165,86.651 
		31.677,88.161 35.611,88.161 31.677,88.161 35.611,88.161 37.12,86.651 37.12,82.715 	"/>
	<rect x="33.053" y="84.09" fill="#8C8663" width="1.181" height="1.183"/>
	<polygon fill="#B8AF82" points="32.493,83.534 33.053,84.09 34.233,84.09 34.791,83.534 	"/>
	<polygon fill="#80795B" points="34.233,85.273 34.233,84.09 34.791,83.534 34.791,85.833 	"/>
	<polygon fill="#5E5B43" points="33.053,85.273 34.233,85.273 34.791,85.833 32.493,85.833 	"/>
	<polygon fill="#9A916C" points="32.493,83.534 33.053,84.09 33.053,85.273 32.493,85.833 	"/>
	<path d="M30.159,66.808v14.153h6.954V66.808H30.159z M34.792,78.633h-2.297v-2.299h2.297V78.633z M34.791,71.434h-2.297v-2.298
		h2.297V71.434z"/>
	<rect x="31.947" y="68.888" fill="#746A39" width="0.548" height="9.942"/>
	<rect x="32.792" y="71.434" fill="#4D4726" width="1.7" height="0.546"/>
	<rect x="32.792" y="75.788" fill="#4D4726" width="1.7" height="0.547"/>
	<polygon fill="#262626" points="30.159,66.808 30.159,71.98 31.775,71.98 31.775,68.731 35.51,68.731 35.51,71.98 37.115,71.98 
		37.115,66.808 	"/>
	<polygon fill="#262626" points="37.128,80.961 37.128,75.788 35.512,75.788 35.512,79.038 31.777,79.038 31.777,75.788 
		30.171,75.788 30.171,80.961 	"/>
	<polyline fill="none" stroke="#FFFFFF" points="38.155,68.903 39.222,68.903 39.222,76.383 38.155,76.383 	"/>
	<polyline fill="none" stroke="#FFFFFF" points="38.155,78.532 39.222,78.532 39.222,86.012 38.155,86.012 	"/>
	<rect x="0.01" y="25.387" fill="#676666" width="37.929" height="33.902"/>
	<rect x="37.94" y="25.387" fill="#676666" width="8.056" height="33.902"/>
	<rect x="15.114" y="115.471" width="37.261" height="23.83"/>
	<rect x="14.78" y="114.129" width="7.722" height="26.182"/>
	<rect x="80.445" y="1.908" fill="#404040" width="7.18" height="7.178"/>
	<rect x="82.648" y="4.11" width="2.774" height="2.773"/>
	<polygon fill="#2A2A29" points="81.625,3.087 82.648,4.11 85.421,4.11 86.443,3.087 	"/>
	<polygon fill="#474747" points="86.444,3.087 85.421,4.113 85.421,6.885 86.444,7.906 	"/>
	<polygon fill="#595959" points="86.443,7.906 85.421,6.885 82.647,6.885 81.625,7.906 	"/>
	<polygon fill="#373737" points="81.624,7.906 82.647,6.883 82.647,4.11 81.624,3.087 	"/>
	<rect x="87.623" y="1.908" fill="#404040" width="7.177" height="7.178"/>
	<rect x="89.825" y="4.11" width="2.772" height="2.773"/>
	<polygon fill="#2A2A29" points="88.802,3.087 89.824,4.11 92.598,4.11 93.621,3.087 	"/>
	<polygon fill="#474747" points="93.621,3.087 92.598,4.113 92.598,6.885 93.621,7.906 	"/>
	<polygon fill="#595959" points="93.619,7.906 92.598,6.885 89.824,6.885 88.802,7.906 	"/>
	<polygon fill="#373737" points="88.801,7.906 89.824,6.883 89.824,4.11 88.801,3.087 	"/>
	<rect x="94.8" y="1.908" fill="#404040" width="7.18" height="7.178"/>
	<rect x="97.003" y="4.11" width="2.772" height="2.773"/>
	<polygon fill="#2A2A29" points="95.98,3.087 97.002,4.11 99.777,4.11 100.799,3.087 	"/>
	<polygon fill="#474747" points="100.799,3.087 99.777,4.113 99.777,6.885 100.799,7.906 	"/>
	<polygon fill="#595959" points="100.798,7.906 99.776,6.885 97.001,6.885 95.98,7.906 	"/>
	<polygon fill="#373737" points="95.979,7.906 97.001,6.883 97.001,4.11 95.979,3.087 	"/>
	<rect x="101.978" y="1.908" fill="#404040" width="7.178" height="7.178"/>
	<rect x="104.18" y="4.11" width="2.774" height="2.773"/>
	<polygon fill="#2A2A29" points="103.157,3.087 104.18,4.11 106.953,4.11 107.977,3.087 	"/>
	<polygon fill="#474747" points="107.977,3.087 106.953,4.113 106.953,6.885 107.977,7.906 	"/>
	<polygon fill="#595959" points="107.975,7.906 106.953,6.885 104.179,6.885 103.157,7.906 	"/>
	<polygon fill="#373737" points="103.156,7.906 104.179,6.883 104.179,4.11 103.156,3.087 	"/>
	<rect x="123.638" y="138.684" fill="#404040" width="7.178" height="7.178"/>
	<rect x="125.84" y="140.887" width="2.773" height="2.771"/>
	<polygon fill="#2A2A29" points="124.817,139.864 125.839,140.885 128.614,140.885 129.635,139.864 	"/>
	<polygon fill="#474747" points="129.636,139.864 128.614,140.889 128.614,143.661 129.636,144.682 	"/>
	<polygon fill="#595959" points="129.635,144.682 128.614,143.661 125.839,143.661 124.817,144.682 	"/>
	<polygon fill="#373737" points="124.817,144.682 125.839,143.659 125.839,140.885 124.817,139.864 	"/>
	<rect x="116.44" y="138.684" fill="#404040" width="7.178" height="7.178"/>
	<rect x="118.642" y="140.887" width="2.774" height="2.771"/>
	<polygon fill="#2A2A29" points="117.618,139.864 118.64,140.885 121.414,140.885 122.436,139.864 	"/>
	<polygon fill="#474747" points="122.438,139.864 121.414,140.889 121.414,143.661 122.438,144.682 	"/>
	<polygon fill="#595959" points="122.436,144.682 121.414,143.661 118.64,143.661 117.618,144.682 	"/>
	<polygon fill="#373737" points="117.618,144.682 118.64,143.659 118.64,140.885 117.618,139.864 	"/>
	<rect x="109.24" y="138.684" fill="#404040" width="7.178" height="7.178"/>
	<rect x="111.443" y="140.887" width="2.774" height="2.771"/>
	<polygon fill="#2A2A29" points="110.419,139.864 111.442,140.885 114.216,140.885 115.238,139.864 	"/>
	<polygon fill="#474747" points="115.239,139.864 114.216,140.889 114.216,143.661 115.239,144.682 	"/>
	<polygon fill="#595959" points="115.238,144.682 114.216,143.661 111.442,143.661 110.419,144.682 	"/>
	<polygon fill="#373737" points="110.419,144.682 111.442,143.659 111.442,140.885 110.419,139.864 	"/>
	<rect x="130.815" y="138.684" fill="#404040" width="7.179" height="7.178"/>
	<rect x="133.018" y="140.887" width="2.772" height="2.771"/>
	<polygon fill="#2A2A29" points="131.994,139.864 133.017,140.885 135.79,140.885 136.813,139.864 	"/>
	<polygon fill="#474747" points="136.815,139.864 135.79,140.889 135.79,143.661 136.815,144.682 	"/>
	<polygon fill="#595959" points="136.813,144.682 135.79,143.661 133.015,143.661 131.994,144.682 	"/>
	<polygon fill="#373737" points="131.994,144.682 133.015,143.659 133.015,140.885 131.994,139.864 	"/>
	<rect x="137.992" y="138.684" fill="#404040" width="7.18" height="7.178"/>
	<rect x="140.196" y="140.887" width="2.774" height="2.771"/>
	<polygon fill="#2A2A29" points="139.172,139.864 140.194,140.885 142.97,140.885 143.99,139.864 	"/>
	<polygon fill="#474747" points="143.99,139.864 142.97,140.889 142.97,143.661 143.99,144.682 	"/>
	<polygon fill="#595959" points="143.99,144.682 142.97,143.661 140.194,143.661 139.172,144.682 	"/>
	<polygon fill="#373737" points="139.172,144.682 140.194,143.659 140.194,140.885 139.172,139.864 	"/>
	<rect x="145.17" y="138.684" fill="#404040" width="7.179" height="7.178"/>
	<rect x="147.372" y="140.887" width="2.773" height="2.771"/>
	<polygon fill="#2A2A29" points="146.348,139.864 147.372,140.885 150.147,140.885 151.168,139.864 	"/>
	<polygon fill="#474747" points="151.169,139.864 150.147,140.889 150.147,143.661 151.169,144.682 	"/>
	<polygon fill="#595959" points="151.168,144.682 150.145,143.661 147.372,143.661 146.348,144.682 	"/>
	<polygon fill="#373737" points="146.348,144.682 147.372,143.659 147.372,140.885 146.348,139.864 	"/>
	<rect x="159.632" y="138.684" fill="#404040" width="7.178" height="7.178"/>
	<rect x="161.835" y="140.887" width="2.771" height="2.771"/>
	<polygon fill="#2A2A29" points="160.812,139.864 161.833,140.885 164.608,140.885 165.629,139.864 	"/>
	<polygon fill="#474747" points="165.631,139.864 164.608,140.889 164.608,143.661 165.631,144.682 	"/>
	<polygon fill="#595959" points="165.629,144.682 164.607,143.661 161.833,143.661 160.812,144.682 	"/>
	<polygon fill="#373737" points="160.812,144.682 161.833,143.659 161.833,140.885 160.812,139.864 	"/>
	<rect x="166.81" y="138.684" fill="#404040" width="7.178" height="7.178"/>
	<rect x="169.012" y="140.887" width="2.773" height="2.771"/>
	<polygon fill="#2A2A29" points="167.99,139.864 169.012,140.885 171.785,140.885 172.809,139.864 	"/>
	<polygon fill="#474747" points="172.809,139.864 171.785,140.889 171.785,143.661 172.809,144.682 	"/>
	<polygon fill="#595959" points="172.807,144.682 171.784,143.661 169.01,143.661 167.99,144.682 	"/>
	<polygon fill="#373737" points="167.988,144.682 169.01,143.659 169.01,140.885 167.988,139.864 	"/>
	<rect x="173.988" y="138.684" fill="#404040" width="7.18" height="7.178"/>
	<rect x="176.19" y="140.887" width="2.773" height="2.771"/>
	<polygon fill="#2A2A29" points="175.165,139.864 176.189,140.885 178.962,140.885 179.985,139.864 	"/>
	<polygon fill="#474747" points="179.985,139.864 178.962,140.889 178.962,143.661 179.985,144.682 	"/>
	<polygon fill="#595959" points="179.985,144.682 178.962,143.661 176.189,143.661 175.165,144.682 	"/>
	<polygon fill="#373737" points="175.165,144.682 176.189,143.659 176.189,140.885 175.165,139.864 	"/>
	<rect x="181.164" y="138.684" fill="#404040" width="7.178" height="7.178"/>
	<rect x="183.367" y="140.887" width="2.772" height="2.771"/>
	<polygon fill="#2A2A29" points="182.344,139.864 183.365,140.885 186.141,140.885 187.163,139.864 	"/>
	<polygon fill="#474747" points="187.163,139.864 186.141,140.889 186.141,143.661 187.163,144.682 	"/>
	<polygon fill="#595959" points="187.163,144.682 186.14,143.661 183.365,143.661 182.344,144.682 	"/>
	<polygon fill="#373737" points="182.344,144.682 183.365,143.659 183.365,140.885 182.344,139.864 	"/>
	<rect x="188.342" y="138.684" fill="#404040" width="7.177" height="7.178"/>
	<rect x="190.544" y="140.887" width="2.772" height="2.771"/>
	<polygon fill="#2A2A29" points="189.52,139.864 190.544,140.885 193.318,140.885 194.338,139.864 	"/>
	<polygon fill="#474747" points="194.341,139.864 193.318,140.889 193.318,143.661 194.341,144.682 	"/>
	<polygon fill="#595959" points="194.338,144.682 193.316,143.661 190.544,143.661 189.52,144.682 	"/>
	<polygon fill="#373737" points="189.52,144.682 190.544,143.659 190.544,140.885 189.52,139.864 	"/>
	<rect x="195.519" y="138.684" fill="#404040" width="7.178" height="7.178"/>
	<rect x="197.722" y="140.887" width="2.771" height="2.771"/>
	<polygon fill="#2A2A29" points="196.698,139.864 197.719,140.885 200.494,140.885 201.516,139.864 	"/>
	<polygon fill="#474747" points="201.518,139.864 200.494,140.889 200.494,143.661 201.518,144.682 	"/>
	<polygon fill="#595959" points="201.516,144.682 200.492,143.661 197.719,143.661 196.698,144.682 	"/>
	<polygon fill="#373737" points="196.698,144.682 197.719,143.659 197.719,140.885 196.698,139.864 	"/>
	<rect x="109.156" y="1.908" fill="#404040" width="7.179" height="7.178"/>
	<rect x="111.359" y="4.11" width="2.773" height="2.773"/>
	<polygon fill="#2A2A29" points="110.335,3.087 111.358,4.11 114.132,4.11 115.154,3.087 	"/>
	<polygon fill="#474747" points="115.154,3.087 114.132,4.113 114.132,6.885 115.154,7.906 	"/>
	<polygon fill="#595959" points="115.154,7.906 114.13,6.885 111.358,6.885 110.335,7.906 	"/>
	<polygon fill="#373737" points="110.333,7.906 111.358,6.883 111.358,4.11 110.333,3.087 	"/>
	<rect x="116.333" y="1.908" fill="#404040" width="7.179" height="7.178"/>
	<rect x="118.535" y="4.11" width="2.772" height="2.773"/>
	<polygon fill="#2A2A29" points="117.513,3.087 118.535,4.11 121.309,4.11 122.331,3.087 	"/>
	<polygon fill="#474747" points="122.331,3.087 121.309,4.113 121.309,6.885 122.331,7.906 	"/>
	<polygon fill="#595959" points="122.331,7.906 121.308,6.885 118.534,6.885 117.513,7.906 	"/>
	<polygon fill="#373737" points="117.512,7.906 118.534,6.883 118.534,4.11 117.512,3.087 	"/>
	<rect x="123.511" y="1.908" fill="#404040" width="7.178" height="7.178"/>
	<rect x="125.714" y="4.11" width="2.773" height="2.773"/>
	<polygon fill="#2A2A29" points="124.692,3.087 125.712,4.11 128.488,4.11 129.51,3.087 	"/>
	<polygon fill="#474747" points="129.51,3.087 128.488,4.113 128.488,6.885 129.51,7.906 	"/>
	<polygon fill="#595959" points="129.509,7.906 128.487,6.885 125.712,6.885 124.692,7.906 	"/>
	<polygon fill="#373737" points="124.69,7.906 125.712,6.883 125.712,4.11 124.69,3.087 	"/>
	<rect x="130.688" y="1.908" fill="#404040" width="7.18" height="7.178"/>
	<rect x="132.892" y="4.11" width="2.773" height="2.773"/>
	<polygon fill="#2A2A29" points="131.868,3.087 132.89,4.11 135.664,4.11 136.687,3.087 	"/>
	<polygon fill="#474747" points="136.687,3.087 135.664,4.113 135.664,6.885 136.687,7.906 	"/>
	<polygon fill="#595959" points="136.686,7.906 135.663,6.885 132.89,6.885 131.868,7.906 	"/>
	<polygon fill="#373737" points="131.866,7.906 132.89,6.883 132.89,4.11 131.866,3.087 	"/>
	<rect x="145.234" y="1.908" fill="#404040" width="7.181" height="7.178"/>
	<rect x="147.438" y="4.11" width="2.772" height="2.773"/>
	<polygon fill="#2A2A29" points="146.413,3.087 147.435,4.11 150.21,4.11 151.232,3.087 	"/>
	<polygon fill="#474747" points="151.232,3.087 150.21,4.113 150.21,6.885 151.232,7.906 	"/>
	<polygon fill="#595959" points="151.232,7.906 150.209,6.885 147.435,6.885 146.413,7.906 	"/>
	<polygon fill="#373737" points="146.413,7.906 147.435,6.883 147.435,4.11 146.413,3.087 	"/>
	<rect x="152.412" y="1.908" fill="#404040" width="7.176" height="7.178"/>
	<rect x="154.615" y="4.11" width="2.773" height="2.773"/>
	<polygon fill="#2A2A29" points="153.591,3.087 154.615,4.11 157.388,4.11 158.409,3.087 	"/>
	<polygon fill="#474747" points="158.411,3.087 157.388,4.113 157.388,6.885 158.411,7.906 	"/>
	<polygon fill="#595959" points="158.409,7.906 157.388,6.885 154.614,6.885 153.591,7.906 	"/>
	<polygon fill="#373737" points="153.591,7.906 154.614,6.883 154.614,4.11 153.591,3.087 	"/>
	<rect x="159.588" y="1.908" fill="#404040" width="7.181" height="7.178"/>
	<rect x="161.792" y="4.11" width="2.772" height="2.773"/>
	<polygon fill="#2A2A29" points="160.769,3.087 161.792,4.11 164.565,4.11 165.588,3.087 	"/>
	<polygon fill="#474747" points="165.588,3.087 164.565,4.113 164.565,6.885 165.588,7.906 	"/>
	<polygon fill="#595959" points="165.586,7.906 164.565,6.885 161.79,6.885 160.769,7.906 	"/>
	<polygon fill="#373737" points="160.768,7.906 161.79,6.883 161.79,4.11 160.768,3.087 	"/>
	<rect x="166.767" y="1.908" fill="#404040" width="7.179" height="7.178"/>
	<rect x="168.97" y="4.11" width="2.772" height="2.773"/>
	<polygon fill="#2A2A29" points="167.947,3.087 168.968,4.11 171.743,4.11 172.765,3.087 	"/>
	<polygon fill="#474747" points="172.765,3.087 171.743,4.113 171.743,6.885 172.765,7.906 	"/>
	<polygon fill="#595959" points="172.765,7.906 171.741,6.885 168.968,6.885 167.947,7.906 	"/>
	<polygon fill="#373737" points="167.947,7.906 168.968,6.883 168.968,4.11 167.947,3.087 	"/>
	<rect x="173.945" y="1.908" fill="#404040" width="7.179" height="7.178"/>
	<rect x="176.147" y="4.11" width="2.774" height="2.773"/>
	<polygon fill="#2A2A29" points="175.123,3.087 176.146,4.11 178.92,4.11 179.942,3.087 	"/>
	<polygon fill="#474747" points="179.942,3.087 178.92,4.113 178.92,6.885 179.942,7.906 	"/>
	<polygon fill="#595959" points="179.942,7.906 178.92,6.885 176.146,6.885 175.123,7.906 	"/>
	<polygon fill="#373737" points="175.123,7.906 176.146,6.883 176.146,4.11 175.123,3.087 	"/>
	<rect x="181.122" y="1.908" fill="#404040" width="7.179" height="7.178"/>
	<rect x="183.324" y="4.11" width="2.772" height="2.773"/>
	<polygon fill="#2A2A29" points="182.302,3.087 183.324,4.11 186.097,4.11 187.12,3.087 	"/>
	<polygon fill="#474747" points="187.12,3.087 186.097,4.113 186.097,6.885 187.12,7.906 	"/>
	<polygon fill="#595959" points="187.12,7.906 186.097,6.885 183.324,6.885 182.302,7.906 	"/>
	<polygon fill="#373737" points="182.3,7.906 183.324,6.883 183.324,4.11 182.3,3.087 	"/>
	<rect x="188.3" y="1.908" fill="#404040" width="7.178" height="7.178"/>
	<rect x="190.502" y="4.11" width="2.771" height="2.773"/>
	<polygon fill="#2A2A29" points="189.48,3.087 190.502,4.11 193.275,4.11 194.298,3.087 	"/>
	<polygon fill="#474747" points="194.299,3.087 193.275,4.113 193.275,6.885 194.299,7.906 	"/>
	<polygon fill="#595959" points="194.298,7.906 193.275,6.885 190.501,6.885 189.48,7.906 	"/>
	<polygon fill="#373737" points="189.476,7.906 190.501,6.883 190.501,4.11 189.476,3.087 	"/>
	<rect x="195.477" y="1.908" fill="#404040" width="7.18" height="7.178"/>
	<rect x="197.68" y="4.11" width="2.774" height="2.773"/>
	<polygon fill="#2A2A29" points="196.657,3.087 197.679,4.11 200.453,4.11 201.476,3.087 	"/>
	<polygon fill="#474747" points="201.476,3.087 200.453,4.113 200.453,6.885 201.476,7.906 	"/>
	<polygon fill="#595959" points="201.474,7.906 200.452,6.885 197.679,6.885 196.657,7.906 	"/>
	<polygon fill="#373737" points="196.656,7.906 197.679,6.883 197.679,4.11 196.656,3.087 	"/>
	<g>
		<text transform="matrix(0 -1 1 0 86.0442 24.0073)" fill="#FFFFFF" font-family="OCRA" font-size="5">AREF</text>
		<text transform="matrix(0 -1 1 0 93.0442 20.5825)" fill="#FFFFFF" font-family="OCRA" font-size="5">GND</text>
		<text transform="matrix(0 -1 1 0 114.6038 136.8638)" fill="#FFFFFF" font-family="OCRA" font-size="5">RESET</text>
		<text transform="matrix(0 -1 1 0 121.6038 136.8638)" fill="#FFFFFF" font-family="OCRA" font-size="5">3V3</text>
		<text transform="matrix(0 -1 1 0 114.4963 33.9692)" fill="#FFFFFF" font-family="OCRA" font-size="5">PWM</text>
		<text transform="matrix(0 -1 1 0 121.7952 33.9692)" fill="#FFFFFF" font-family="OCRA" font-size="5">PWM</text>
		<text transform="matrix(0 -1 1 0 129.0959 33.9692)" fill="#FFFFFF" font-family="OCRA" font-size="5">PWM</text>
		<text transform="matrix(1 0 0 1 101.5242 34.0259)" fill="#FFFFFF" font-family="OCRA" font-size="5">L</text>
		<text transform="matrix(1 0 0 1 101.5242 46.0259)" fill="#FFFFFF" font-family="OCRA" font-size="5">TX</text>
		<text transform="matrix(1 0 0 1 101.5242 52.0259)" fill="#FFFFFF" font-family="OCRA" font-size="5">RX</text>
		<text transform="matrix(1 0 0 1 40.9934 75.2446)" fill="#FFFFFF" font-family="OCRA" font-size="5">USB</text>
		<text transform="matrix(1 0 0 1 40.9934 84.2446)" fill="#FFFFFF" font-family="OCRA" font-size="5">EXT</text>
		<text transform="matrix(4.489659e-11 -1 1 4.489659e-11 28.3772 89.7739)" fill="#FFFFFF" font-family="OCRA" font-size="5">PWR</text>
		<text transform="matrix(4.489659e-11 -1 1 4.489659e-11 28.3772 76.5669)" fill="#FFFFFF" font-family="OCRA" font-size="5">SEL</text>
		<text transform="matrix(1 0 0 1 192.2112 49.3145)" fill="#FFFFFF" font-family="OCRA" font-size="5">PWR</text>
		<text transform="matrix(1 0 0 1 196.3352 86.7681)" fill="#FFFFFF" font-family="OCRA" font-size="5">ICSP</text>
		<text transform="matrix(0 -1 1 0 158.3381 33.9692)" fill="#FFFFFF" font-family="OCRA" font-size="5">PWM</text>
		<text transform="matrix(0 -1 1 0 165.4875 33.9692)" fill="#FFFFFF" font-family="OCRA" font-size="5">PWM</text>
		<text transform="matrix(0 -1 1 0 179.7883 33.9692)" fill="#FFFFFF" font-family="OCRA" font-size="5">PWM</text>
		<text transform="matrix(0 -1 1 0 194.3176 24.4341)" fill="#FFFFFF" font-family="OCRA" font-size="5">TX</text>
		<text transform="matrix(0 -1 1 0 201.467 24.4341)" fill="#FFFFFF" font-family="OCRA" font-size="5">RX</text>
		<text transform="matrix(1 0 0 1 96.7327 15.7803)" fill="#FFFFFF" font-family="OCRA" font-size="5">3</text>
		<text transform="matrix(1 0 0 1 96.7327 21.7803)" fill="#FFFFFF" font-family="OCRA" font-size="5">1</text>
		<text transform="matrix(1 0 0 1 103.9094 15.7803)" fill="#FFFFFF" font-family="OCRA" font-size="5">2</text>
		<text transform="matrix(1 0 0 1 103.9094 21.7803)" fill="#FFFFFF" font-family="OCRA" font-size="5">1</text>
		<text transform="matrix(1 0 0 1 111.0862 15.7803)" fill="#FFFFFF" font-family="OCRA" font-size="5">1</text>
		<text transform="matrix(1 0 0 1 111.0862 21.7803)" fill="#FFFFFF" font-family="OCRA" font-size="5">1</text>
		<text transform="matrix(1 0 0 1 118.2629 15.7803)" fill="#FFFFFF" font-family="OCRA" font-size="5">0</text>
		<text transform="matrix(1 0 0 1 118.2629 21.7803)" fill="#FFFFFF" font-family="OCRA" font-size="5">1</text>
		<text transform="matrix(1 0 0 1 125.4397 15.7803)" fill="#FFFFFF" font-family="OCRA" font-size="5">9</text>
		<text transform="matrix(1 0 0 1 132.6155 15.7803)" fill="#FFFFFF" font-family="OCRA" font-size="5">8</text>
		<text transform="matrix(1 0 0 1 129.845 21.8472)" fill="#FFFFFF" font-family="OCRA" font-size="5">DIGITAL</text>
		<text transform="matrix(1 0 0 1 147.0139 15.7803)" fill="#FFFFFF" font-family="OCRA" font-size="5">7</text>
		<text transform="matrix(1 0 0 1 154.1985 15.7803)" fill="#FFFFFF" font-family="OCRA" font-size="5">6</text>
		<text transform="matrix(1 0 0 1 161.3831 15.7803)" fill="#FFFFFF" font-family="OCRA" font-size="5">5</text>
		<text transform="matrix(1 0 0 1 168.5667 15.7803)" fill="#FFFFFF" font-family="OCRA" font-size="5">4</text>
		<text transform="matrix(1 0 0 1 175.7512 15.7803)" fill="#FFFFFF" font-family="OCRA" font-size="5">3</text>
		<text transform="matrix(1 0 0 1 182.9358 15.7803)" fill="#FFFFFF" font-family="OCRA" font-size="5">2</text>
		<text transform="matrix(1 0 0 1 190.1204 15.7803)" fill="#FFFFFF" font-family="OCRA" font-size="5">1</text>
		<text transform="matrix(1 0 0 1 197.304 15.7803)" fill="#FFFFFF" font-family="OCRA" font-size="5">0</text>
		<text transform="matrix(4.489659e-11 -1 1 4.489659e-11 200.803 58.5825)" fill="#FFFFFF" font-family="OCRA" font-size="5">1</text>
		<text transform="matrix(1 0 0 1 123.1321 136.3491)" fill="#FFFFFF" font-family="OCRA" font-size="5">5V</text>
		<text transform="matrix(1 0 0 1 132.6555 136.3491)" fill="#FFFFFF" font-family="OCRA" font-size="5">Gnd</text>
		<text transform="matrix(1 0 0 1 128.1477 129.771)" fill="#FFFFFF" font-family="OCRA" font-size="5">POWER</text>
		<text transform="matrix(1 0 0 1 130.9153 119.7271)" fill="#FFFFFF" font-family="OCRA" font-size="5">www.arduino.cc</text>
		<text transform="matrix(1 0 0 1 165.1477 129.5718)" fill="#FFFFFF" font-family="OCRA" font-size="5">ANALOG IN</text>
		<text transform="matrix(1 0 0 1 145.6272 136.3491)" fill="#FFFFFF" font-family="OCRA" font-size="5">Vin</text>
		<text transform="matrix(1 0 0 1 161.4807 136.3491)" fill="#FFFFFF" font-family="OCRA" font-size="5">0</text>
		<text transform="matrix(1 0 0 1 168.678 136.3491)" fill="#FFFFFF" font-family="OCRA" font-size="5">1</text>
		<text transform="matrix(1 0 0 1 175.8762 136.3491)" fill="#FFFFFF" font-family="OCRA" font-size="5">2</text>
		<text transform="matrix(1 0 0 1 183.0735 136.3491)" fill="#FFFFFF" font-family="OCRA" font-size="5">3</text>
		<text transform="matrix(1 0 0 1 190.2708 136.3491)" fill="#FFFFFF" font-family="OCRA" font-size="5">4</text>
		<text transform="matrix(1 0 0 1 197.468 136.3491)" fill="#FFFFFF" font-family="OCRA" font-size="5">5</text>
		<text transform="matrix(1 0 0 1 116.1038 49.3794)" fill="#FFFFFF" font-family="OCRA" font-size="9.1394">Arduino</text>
	</g>
</g>
</svg>
