<?xml version="1.0" encoding="utf-8"?>
<!DOCTYPE svg PUBLIC "-//W3C//DTD SVG 1.1 Basic//EN" "http://www.w3.org/Graphics/SVG/1.1/DTD/svg11-basic.dtd">
<svg version="1.1" baseProfile="basic" id="svg" xmlns="http://www.w3.org/2000/svg" xmlns:xlink="http://www.w3.org/1999/xlink"
	 x="0px" y="0px" width="0.69in" height="0.42in" viewBox="0 0 49.884 30.065" xml:space="preserve">
<g id="breadboard">
	<rect id="connector2pin" x="45.217" y="15.74" fill="#8C8C8C" stroke="none" width="4.667" height="5.349"/>
	<rect id="connector2terminal" x="49.015" y="15.74" fill="#8C8C8C" stroke="none" width="0.868" height="5.349"/>
	<rect id="connector0pin" x="45.217" y="15.74" fill="#8C8C8C" width="4.667" height="5.349"/>
	<rect id="connector0terminal" x="49.015" y="15.74" fill="#8C8C8C" width="0.868" height="5.349"/>
	<rect id="connector1pin" x="45.217" y="8.978" fill="#8C8C8C" width="4.667" height="5.348"/>
	<rect id="connector1terminal" x="49.015" y="8.978" fill="#8C8C8C" width="0.868" height="5.348"/>
	<polygon fill="#1F7A34" points="47.502,26.249 47.502,26.249 47.502,0 44.736,0 44.736,0 15.986,0 15.986,30.065 47.502,30.065"/>
	<circle fill="#8C8C8C" cx="36.456" cy="13.091" r="2.708"/>
	<circle fill="#8C8C8C" cx="32.479" cy="23.913" r="2.708"/>
	<polyline fill="none" stroke="#8C8C8C" points="38.313,13.091 41.188,13.091 41.188,11.673 46.412,11.673 	"/>
	<polyline fill="none" stroke="#8C8C8C" points="32.381,27.874 25.014,27.874 25.014,22.649 	"/>
	<polyline fill="none" stroke="#8C8C8C" points="32.479,26.621 32.479,27.862 41.188,27.862 41.188,18.353 46.412,18.353 	"/>
	<rect x="45.217" y="8.978" fill="#8C8C8C" width="4.667" height="5.349"/>
	<rect x="45.217" y="15.74" fill="#8C8C8C" width="4.667" height="5.349"/>
	<rect x="4.49" y="1.176" fill="#232323" width="33.104" height="23.831"/>
	<rect x="5.098" y="1.756" fill="#494949" width="32.062" height="1.648"/>
	<polygon fill="#FACB00" points="20.082,5.994 15.605,12.133 18.661,12.735 14.83,20.188 22.32,11.186 19.134,10.369 	"/>
	<rect x="5.098" y="3.405" fill="#3D3D3D" fill-opacity="0.3" width="32.062" height="5.394"/>
	<rect x="4.057" y="22.86" width="33.104" height="1.627"/>
	<rect x="4.057" y="17.059" fill="#0F0F0F" fill-opacity="0.4" width="33.104" height="5.852"/>
	<rect y="0" fill="#232323" width="7.721" height="26.182"/>
</g>
</svg>
