<?xml version="1.0" encoding="UTF-8" standalone="no"?>
<svg
   version="1.0"
   baseProfile="tiny"
   id="svg2"
   x="0px"
   y="0px"
   width="32"
   height="32"
   xml:space="preserve">
<g
   id="g2402"
   transform="matrix(0.5516406,0,0,0.5516406,-0.141648,5.8045181)"><g
     transform="translate(25.567978,2.8630951)"
     id="breadboard">
	<path
   id="polygon4"
   d="M 32.521,33.559 L -23.979,33.559 L -25.221867,32.035821 L -23.979,-2.191 L 31.215133,-3.6671786 L 32.521,-2.191 L 32.521,33.559 z"
   transform="translate(0.1694095,0.4401881)" />
	<rect
   style="fill:#1a1a1a"
   id="rect6"
   height="35.75"
   width="56.5"
   y="-3.1576223"
   x="-25.037245" />
	<line
   style="fill:none;stroke:#f1f1f1;stroke-width:1;stroke-opacity:1"
   id="line8"
   y2="30.667311"
   x2="29.071066"
   y1="0.29231122"
   x1="29.071066" />
	<line
   style="fill:none;stroke:#f1f1f1;stroke-width:1;stroke-opacity:1"
   id="line10"
   y2="7.7923112"
   x2="-10.928934"
   y1="0.45931125"
   x1="-10.928934" />
	<line
   style="fill:none;stroke:#f1f1f1;stroke-width:1;stroke-opacity:1"
   id="line12"
   y2="30.87631"
   x2="-10.928934"
   y1="23.542311"
   x1="-10.928934" />
	<circle
   transform="translate(-0.3249337,0.1083112)"
   style="fill:none;stroke:#f1f1f1;stroke-opacity:1"
   id="circle14"
   r="1.8329999"
   cy="14.434"
   cx="-10.687" />
	<line
   style="fill:none;stroke:#f1f1f1;stroke-width:1;stroke-opacity:1"
   id="line16"
   y2="14.542312"
   x2="28.821066"
   y1="14.542312"
   x1="-9.4289341" />
	<line
   style="fill:none;stroke:#f1f1f1;stroke-width:1;stroke-opacity:1"
   id="line18"
   y2="4.3763113"
   x2="-21.094934"
   y1="13.126311"
   x1="-12.344934" />
	<circle
   transform="translate(-0.3249337,0.1083112)"
   style="fill:#b3b3b3"
   id="circle20"
   r="1.25"
   cy="0.212"
   cx="-20.635" />
	<circle
   transform="translate(-0.3249337,0.1083112)"
   style="fill:#b3b3b3"
   id="circle22"
   r="1.25"
   cy="0.212"
   cx="-10.552" />
	<circle
   transform="translate(-0.3249337,0.1083112)"
   style="fill:#b3b3b3"
   id="circle24"
   r="1.25"
   cy="30.532"
   cx="-20.635" />
	<circle
   transform="translate(-0.3249337,0.1083112)"
   style="fill:#b3b3b3"
   id="circle26"
   r="1.25"
   cy="30.532"
   cx="-10.552" />
	<circle
   transform="translate(-0.3249337,0.1083112)"
   style="fill:#b3b3b3"
   id="circle28"
   r="1.25"
   cy="0.212"
   cx="29.437" />
	<circle
   transform="translate(-0.3249337,0.1083112)"
   style="fill:#b3b3b3"
   id="circle30"
   r="1.25"
   cy="30.532"
   cx="29.437" />
</g><circle
     transform="translate(-5.090628,-3.5742708)"
     style="fill:#666666"
     r="1.25"
     cy="6.73"
     cx="9.6459999"
     id="connector0pin" /><circle
     transform="translate(-5.090628,-3.5742708)"
     style="fill:#666666"
     r="1.25"
     cy="6.73"
     cx="19.73"
     id="connector1pin" /><circle
     transform="translate(-5.090628,-3.5742708)"
     style="fill:#666666"
     r="1.25"
     cy="37.049999"
     cx="9.6459999"
     id="connector3pin" /><circle
     transform="translate(-5.090628,-3.5742708)"
     style="fill:#666666"
     r="1.25"
     cy="37.049999"
     cx="19.73"
     id="connector4pin" /><circle
     transform="translate(-5.090628,-3.5742708)"
     style="fill:#666666"
     r="1.25"
     cy="6.73"
     cx="59.719002"
     id="connector2pin" /><circle
     transform="translate(-5.090628,-3.5742708)"
     style="fill:#666666"
     r="1.25"
     cy="37.049999"
     cx="59.719002"
     id="connector5pin" /></g>
</svg>
