<?xml version="1.0" encoding="utf-8"?>
<!-- Generator: Adobe Illustrator 15.0.1, SVG Export Plug-In . SVG Version: 6.00 Build 0)  -->
<!DOCTYPE svg PUBLIC "-//W3C//DTD SVG 1.1//EN" "http://www.w3.org/Graphics/SVG/1.1/DTD/svg11.dtd">
<svg version="1.1" id="Ebene_1" xmlns="http://www.w3.org/2000/svg" xmlns:xlink="http://www.w3.org/1999/xlink" x="0px" y="0px"
	 width="146.835px" height="59.924px" viewBox="0 0 146.835 59.924" enable-background="new 0 0 146.835 59.924"
	 xml:space="preserve">
<g>
	<g>
		<polygon fill="#B8AF82" points="6.645,57.769 10.092,57.541 10.092,35.319 6.645,35.546 		"/>
		<polygon fill="#9A916C" points="6.645,57.769 10.092,57.769 10.092,57.067 6.645,57.067 		"/>
		<polygon fill="#E2D6A1" points="6.645,57.048 10.092,57.048 10.092,54.948 6.645,54.948 		"/>
	</g>
	<g>
		<polygon fill="#B8AF82" points="18.47,57.541 21.919,57.541 21.919,35.319 18.47,35.319 		"/>
		<polygon fill="#9A916C" points="18.47,57.769 21.919,57.769 21.919,57.067 18.47,57.067 		"/>
		<polygon fill="#E2D6A1" points="18.47,57.048 21.919,57.048 21.919,54.948 18.47,54.948 		"/>
	</g>
	<g>
		<polygon fill="#B8AF82" points="30.299,57.541 33.747,57.541 33.747,35.319 30.299,35.319 		"/>
		<polygon fill="#9A916C" points="30.299,57.769 33.747,57.769 33.747,57.067 30.299,57.067 		"/>
		<polygon fill="#E2D6A1" points="30.299,57.048 33.747,57.048 33.747,54.948 30.299,54.948 		"/>
	</g>
	<g>
		<polygon fill="#B8AF82" points="42.125,57.541 45.573,57.541 45.573,35.319 42.125,35.319 		"/>
		<polygon fill="#9A916C" points="42.125,57.769 45.573,57.769 45.573,57.067 42.125,57.067 		"/>
		<polygon fill="#E2D6A1" points="42.125,57.048 45.573,57.048 45.573,54.948 42.125,54.948 		"/>
	</g>
	<g>
		<polygon fill="#B8AF82" points="53.952,57.541 57.401,57.541 57.401,35.319 53.952,35.319 		"/>
		<polygon fill="#9A916C" points="53.952,57.769 57.401,57.769 57.401,57.067 53.952,57.067 		"/>
		<polygon fill="#E2D6A1" points="53.952,57.048 57.401,57.048 57.401,54.948 53.952,54.948 		"/>
	</g>
	<g>
		<polygon fill="#B8AF82" points="65.78,57.541 69.225,57.541 69.225,35.319 65.78,35.319 		"/>
		<polygon fill="#9A916C" points="65.78,57.769 69.225,57.769 69.225,57.067 65.78,57.067 		"/>
		<polygon fill="#E2D6A1" points="65.78,57.048 69.225,57.048 69.225,54.948 65.78,54.948 		"/>
	</g>
	<g>
		<polygon fill="#B8AF82" points="77.607,57.541 81.055,57.541 81.055,35.319 77.607,35.319 		"/>
		<polygon fill="#9A916C" points="77.607,57.769 81.055,57.769 81.055,57.067 77.607,57.067 		"/>
		<polygon fill="#E2D6A1" points="77.607,57.048 81.055,57.048 81.055,54.948 77.607,54.948 		"/>
	</g>
	<g>
		<polygon fill="#B8AF82" points="89.432,57.541 92.882,57.541 92.882,35.319 89.432,35.319 		"/>
		<polygon fill="#9A916C" points="89.432,57.769 92.882,57.769 92.882,57.067 89.432,57.067 		"/>
		<polygon fill="#E2D6A1" points="89.432,57.048 92.882,57.048 92.882,54.948 89.432,54.948 		"/>
	</g>
	<g>
		<polygon fill="#B8AF82" points="101.259,57.541 104.708,57.541 104.708,35.319 101.259,35.319 		"/>
		<polygon fill="#9A916C" points="101.259,57.769 104.708,57.769 104.708,57.067 101.259,57.067 		"/>
		<polygon fill="#E2D6A1" points="101.259,57.048 104.708,57.048 104.708,54.948 101.259,54.948 		"/>
	</g>
	<g>
		<polygon fill="#B8AF82" points="113.087,57.541 116.537,57.541 116.537,35.319 113.087,35.319 		"/>
		<polygon fill="#9A916C" points="113.087,57.769 116.537,57.769 116.537,57.067 113.087,57.067 		"/>
		<polygon fill="#E2D6A1" points="113.087,57.048 116.537,57.048 116.537,54.948 113.087,54.948 		"/>
	</g>
	<g>
		<polygon fill="#B8AF82" points="124.916,57.541 128.364,57.541 128.364,35.319 124.916,35.319 		"/>
		<polygon fill="#9A916C" points="124.916,57.769 128.364,57.769 128.364,57.067 124.916,57.067 		"/>
		<polygon fill="#E2D6A1" points="124.916,57.048 128.364,57.048 128.364,54.948 124.916,54.948 		"/>
	</g>
	<g>
		<polygon fill="#B8AF82" points="136.744,57.541 140.192,57.541 140.192,35.319 136.744,35.319 		"/>
		<polygon fill="#9A916C" points="136.744,57.769 140.192,57.769 140.192,57.067 136.744,57.067 		"/>
		<polygon fill="#E2D6A1" points="136.744,57.048 140.192,57.048 140.192,54.948 136.744,54.948 		"/>
	</g>
</g>
<rect fill="#E8E8E8" width="146.835" height="35.546"/>
<g>
	<rect x="13.27" opacity="0.2" fill="#B7B7B7" enable-background="new    " width="1.924" height="27.332"/>
	<rect x="25.062" opacity="0.2" fill="#B7B7B7" enable-background="new    " width="1.924" height="27.332"/>
	<rect x="36.854" opacity="0.2" fill="#B7B7B7" enable-background="new    " width="1.924" height="27.332"/>
	<rect x="48.646" opacity="0.2" fill="#B7B7B7" enable-background="new    " width="1.924" height="27.332"/>
	<rect x="60.438" opacity="0.2" fill="#B7B7B7" enable-background="new    " width="1.924" height="27.332"/>
	<rect x="72.229" opacity="0.2" fill="#B7B7B7" enable-background="new    " width="1.923" height="27.332"/>
	<rect x="84.021" opacity="0.2" fill="#B7B7B7" enable-background="new    " width="1.924" height="27.332"/>
	<rect x="95.813" opacity="0.2" fill="#B7B7B7" enable-background="new    " width="1.924" height="27.332"/>
	<rect x="107.605" opacity="0.2" fill="#B7B7B7" enable-background="new    " width="1.924" height="27.332"/>
	<rect x="119.396" opacity="0.2" fill="#B7B7B7" enable-background="new    " width="1.925" height="27.332"/>
	<rect x="131.189" opacity="0.2" fill="#B7B7B7" enable-background="new    " width="1.924" height="27.332"/>
</g>
</svg>
