<?xml version="1.0" encoding="utf-8"?>
<!-- Generator: Adobe Illustrator 15.0.1, SVG Export Plug-In . SVG Version: 6.00 Build 0)  -->
<!DOCTYPE svg PUBLIC "-//W3C//DTD SVG 1.1//EN" "http://www.w3.org/Graphics/SVG/1.1/DTD/svg11.dtd">
<svg version="1.1" id="Ebene_1" xmlns="http://www.w3.org/2000/svg" xmlns:xlink="http://www.w3.org/1999/xlink" x="0px" y="0px"
	 width="41.953px" height="25.512px" viewBox="0 0 41.953 25.512" enable-background="new 0 0 41.953 25.512" xml:space="preserve">
<g>
	<g>
		<rect x="1.701" y="0.888" fill="#232323" width="32.97" height="23.733"/>
		<rect x="2.133" y="22.404" fill="#494949" width="31.934" height="1.644"/>
		<rect x="2.133" y="17.031" fill="#3D3D3D" fill-opacity="0.3" width="31.934" height="5.369"/>
		<rect x="2.133" y="1.406" width="32.971" height="1.619"/>
		<rect x="2.133" y="2.975" fill="#0F0F0F" fill-opacity="0.4" width="32.971" height="5.828"/>
	</g>
	<rect x="1.701" y="0.888" opacity="0.2" enable-background="new    " width="0.592" height="23.733"/>
</g>
<line opacity="0.5" fill="none" stroke="#000000" stroke-width="0.25" stroke-miterlimit="10" x1="4.511" y1="0.888" x2="4.511" y2="24.621"/>
<g>
	<rect x="31.175" y="0.866" opacity="0.25" enable-background="new    " width="1.287" height="23.729"/>
	<path opacity="0.25" stroke="#565656" stroke-width="0.25" stroke-miterlimit="10" enable-background="new    " d="M32.18,20.297
		V5.216H18.882c-4.165,0-7.541,3.376-7.541,7.541c0,4.164,3.376,7.541,7.541,7.541L32.18,20.297L32.18,20.297z"/>
</g>
<g>
	<path fill="#232323" d="M32.18,20.297V5.216H18.882c-4.165,0-7.541,3.376-7.541,7.541c0,4.164,3.376,7.541,7.541,7.541
		L32.18,20.297L32.18,20.297z"/>
	<rect x="31.452" y="0" fill="#232323" width="7.688" height="25.512"/>
</g>
<rect y="9.899" fill="#6D6D6D" width="1.701" height="5.713"/>
<rect x="0.726" y="7.146" fill="#494949" width="0.975" height="11.22"/>
</svg>
